ScienceGothic-BlkExpCtrS.ufo
<glyph name="exclam" format="2">
  <advance width="1333"/>
  <unicode hex="0021"/>
  <outline>
    <contour>
      <point x="287.286" y="135" type="line"/>
      <point x="302.286" y="226" type="line" smooth="yes"/>
      <point x="310.286" y="270"/>
      <point x="330.286" y="324"/>
      <point x="366.286" y="354"/>
      <point x="423.286" y="364"/>
      <point x="468.286" y="364" type="qcurve" smooth="yes"/>
      <point x="755.286" y="364" type="line" smooth="yes"/>
      <point x="800.286" y="364"/>
      <point x="854.286" y="354"/>
      <point x="879.286" y="324"/>
      <point x="880.286" y="269"/>
      <point x="872.286" y="224" type="qcurve" smooth="yes"/>
      <point x="857.286" y="135" type="line" smooth="yes"/>
      <point x="849.286" y="90"/>
      <point x="829.286" y="35"/>
      <point x="793.286" y="4"/>
      <point x="736.286" y="-6"/>
      <point x="691.286" y="-6" type="qcurve" smooth="yes"/>
      <point x="403.286" y="-6" type="line" smooth="yes"/>
      <point x="358.286" y="-6"/>
      <point x="305.286" y="4"/>
      <point x="280.286" y="35"/>
      <point x="279.286" y="90"/>
      <point x="287.286" y="135" type="qcurve"/>
    </contour>
    <contour>
      <point x="611.286" y="462" type="line"/>
      <point x="484.286" y="1400" type="line"/>
      <point x="1100.29" y="1400" type="line"/>
      <point x="647.286" y="462" type="line"/>
    </contour>
  </outline>
</glyph>
<glyph name="numbersign" format="2">
  <advance width="1960"/>
  <unicode hex="0023"/>
  <outline>
    <contour>
      <point x="95" y="224" type="line"/>
      <point x="226" y="636" type="line"/>
      <point x="1691" y="636" type="line"/>
      <point x="1560" y="224" type="line"/>
    </contour>
    <contour>
      <point x="266" y="765" type="line"/>
      <point x="396" y="1177" type="line"/>
      <point x="1861" y="1177" type="line"/>
      <point x="1731" y="765" type="line"/>
    </contour>
    <contour>
      <point x="457" y="0" type="line"/>
      <point x="899" y="1400" type="line"/>
      <point x="935" y="1400" type="line"/>
      <point x="493" y="0" type="line"/>
    </contour>
    <contour>
      <point x="1022" y="0" type="line"/>
      <point x="1464" y="1400" type="line"/>
      <point x="1500" y="1400" type="line"/>
      <point x="1058" y="0" type="line"/>
    </contour>
  </outline>
  <guideline y="334"/>
  <guideline y="875"/>
</glyph>
<glyph name="dollar" format="2">
  <advance width="3091.79"/>
  <unicode hex="0024"/>
  <outline>
    <contour>
      <point x="1223" y="-150" type="line"/>
      <point x="1252" y="20" type="line"/>
      <point x="601" y="20" type="line" smooth="yes"/>
      <point x="506" y="20"/>
      <point x="359" y="48"/>
      <point x="266" y="123"/>
      <point x="233" y="256"/>
      <point x="251" y="362" type="qcurve" smooth="yes"/>
      <point x="260" y="410" type="line"/>
      <point x="815" y="462" type="line"/>
      <point x="744" y="56" type="line"/>
      <point x="744" y="56"/>
      <point x="744" y="56"/>
      <point x="744" y="56"/>
      <point x="744" y="56"/>
      <point x="744" y="56" type="qcurve"/>
      <point x="1259" y="56" type="line"/>
      <point x="1369" y="690" type="line"/>
      <point x="746" y="690" type="line" smooth="yes"/>
      <point x="651" y="690"/>
      <point x="504" y="718"/>
      <point x="412" y="794"/>
      <point x="380" y="928"/>
      <point x="398" y="1034" type="qcurve"/>
      <point x="401" y="1048" type="line"/>
      <point x="419" y="1152"/>
      <point x="503" y="1281"/>
      <point x="626" y="1354"/>
      <point x="783" y="1380"/>
      <point x="875" y="1380" type="qcurve" smooth="yes"/>
      <point x="1490" y="1380" type="line"/>
      <point x="1520" y="1550" type="line"/>
      <point x="1862" y="1550" type="line"/>
      <point x="1832" y="1380" type="line"/>
      <point x="2463" y="1380" type="line" smooth="yes"/>
      <point x="2554" y="1380"/>
      <point x="2701" y="1355"/>
      <point x="2796" y="1283"/>
      <point x="2834" y="1155"/>
      <point x="2816" y="1052" type="qcurve" smooth="yes"/>
      <point x="2808" y="1008" type="line"/>
      <point x="2253" y="958" type="line"/>
      <point x="2321" y="1344" type="line"/>
      <point x="2321" y="1344"/>
      <point x="2321" y="1344"/>
      <point x="2321" y="1344"/>
      <point x="2321" y="1344"/>
      <point x="2321" y="1344" type="qcurve"/>
      <point x="1826" y="1344" type="line"/>
      <point x="1718" y="726" type="line"/>
      <point x="2367" y="726" type="line" smooth="yes"/>
      <point x="2458" y="726"/>
      <point x="2606" y="701"/>
      <point x="2702" y="630"/>
      <point x="2739" y="502"/>
      <point x="2721" y="398" type="qcurve"/>
      <point x="2716" y="364" type="line"/>
      <point x="2697" y="258"/>
      <point x="2617" y="123"/>
      <point x="2497" y="48"/>
      <point x="2339" y="20"/>
      <point x="2243" y="20" type="qcurve" smooth="yes"/>
      <point x="1594" y="20" type="line"/>
      <point x="1565" y="-150" type="line"/>
    </contour>
    <contour>
      <point x="1376" y="726" type="line"/>
      <point x="1484" y="1344" type="line"/>
      <point x="999" y="1344" type="line"/>
      <point x="999" y="1344"/>
      <point x="999" y="1344"/>
      <point x="999" y="1344"/>
      <point x="999" y="1344"/>
      <point x="999" y="1344" type="qcurve"/>
      <point x="891" y="726" type="line"/>
      <point x="891" y="726"/>
      <point x="891" y="726"/>
      <point x="891" y="726"/>
      <point x="891" y="726"/>
      <point x="891" y="726" type="qcurve"/>
    </contour>
    <contour>
      <point x="1601" y="56" type="line"/>
      <point x="2116" y="56" type="line"/>
      <point x="2116" y="56"/>
      <point x="2116" y="56"/>
      <point x="2116" y="56"/>
      <point x="2116" y="56"/>
      <point x="2116" y="56" type="qcurve"/>
      <point x="2226" y="690" type="line"/>
      <point x="2226" y="690"/>
      <point x="2226" y="690"/>
      <point x="2226" y="690"/>
      <point x="2226" y="690"/>
      <point x="2226" y="690" type="qcurve"/>
      <point x="1711" y="690" type="line"/>
    </contour>
  </outline>
</glyph>
<glyph name="ampersand" format="2">
  <advance width="3029"/>
  <unicode hex="0026"/>
  <outline>
    <contour>
      <point x="346" y="-10" type="line"/>
      <point x="987" y="-10" type="line" smooth="yes"/>
      <point x="1055" y="-10"/>
      <point x="1157" y="-1"/>
      <point x="1251" y="23"/>
      <point x="1354" y="66"/>
      <point x="1424" y="101" type="qcurve" smooth="yes"/>
      <point x="1669" y="225" type="line"/>
      <point x="2001" y="0" type="line"/>
      <point x="2879" y="0" type="line"/>
      <point x="2149" y="491" type="line"/>
      <point x="2706" y="776" type="line"/>
      <point x="2675" y="798" type="line"/>
      <point x="2118" y="513" type="line"/>
      <point x="1396" y="1024" type="line"/>
      <point x="1396" y="1024"/>
      <point x="1396" y="1024"/>
      <point x="1396" y="1024"/>
      <point x="1396" y="1024"/>
      <point x="1396" y="1024" type="qcurve"/>
      <point x="1458" y="1378" type="line"/>
      <point x="1458" y="1378"/>
      <point x="1458" y="1378"/>
      <point x="1458" y="1378"/>
      <point x="1458" y="1378"/>
      <point x="1458" y="1378" type="qcurve"/>
      <point x="2005" y="1378" type="line"/>
      <point x="2005" y="1378"/>
      <point x="2005" y="1378"/>
      <point x="2005" y="1378"/>
      <point x="2005" y="1378"/>
      <point x="2005" y="1378" type="qcurve"/>
      <point x="1931" y="958" type="line"/>
      <point x="2411" y="1043" type="line"/>
      <point x="2424" y="1119" type="line" smooth="yes"/>
      <point x="2437" y="1191"/>
      <point x="2412" y="1302"/>
      <point x="2339" y="1376"/>
      <point x="2219" y="1414"/>
      <point x="2135" y="1414" type="qcurve" smooth="yes"/>
      <point x="1279" y="1414" type="line" smooth="yes"/>
      <point x="1197" y="1414"/>
      <point x="1065" y="1375"/>
      <point x="968" y="1298"/>
      <point x="905" y="1184"/>
      <point x="892" y="1109" type="qcurve" smooth="yes"/>
      <point x="863" y="948" type="line"/>
      <point x="861" y="933"/>
      <point x="861" y="901"/>
      <point x="865" y="869"/>
      <point x="873" y="838"/>
      <point x="879" y="826" type="qcurve"/>
      <point x="373" y="567" type="line" smooth="yes"/>
      <point x="318" y="539"/>
      <point x="234" y="477"/>
      <point x="174" y="406"/>
      <point x="136" y="324"/>
      <point x="127" y="276" type="qcurve" smooth="yes"/>
      <point x="117" y="217" type="line" smooth="yes"/>
      <point x="107" y="161"/>
      <point x="127" y="76"/>
      <point x="185" y="19"/>
      <point x="280" y="-10"/>
      <point x="346" y="-10" type="qcurve"/>
    </contour>
    <contour>
      <point x="639" y="26" type="line"/>
      <point x="639" y="26"/>
      <point x="639" y="26"/>
      <point x="639" y="26"/>
      <point x="639" y="26"/>
      <point x="639" y="26" type="qcurve"/>
      <point x="761" y="728" type="line"/>
      <point x="761" y="728"/>
      <point x="761" y="728"/>
      <point x="761" y="728"/>
      <point x="761" y="728"/>
      <point x="761" y="728" type="qcurve"/>
      <point x="907" y="803" type="line"/>
      <point x="1638" y="246" type="line"/>
      <point x="1387" y="120" type="line" smooth="yes"/>
      <point x="1333" y="93"/>
      <point x="1246" y="57"/>
      <point x="1161" y="35"/>
      <point x="1069" y="26"/>
      <point x="1010" y="26" type="qcurve" smooth="yes"/>
    </contour>
  </outline>
</glyph>
<glyph name="quotesingle" format="2">
  <advance width="1290.29"/>
  <unicode hex="0027"/>
  <outline>
    <contour>
      <point x="449.062" y="1184" type="line"/>
      <point x="475.062" y="1333" type="line" smooth="yes"/>
      <point x="483.062" y="1376"/>
      <point x="494.062" y="1423"/>
      <point x="517.062" y="1446"/>
      <point x="558.062" y="1450"/>
      <point x="594.062" y="1450" type="qcurve" smooth="yes"/>
      <point x="966.062" y="1450" type="line" smooth="yes"/>
      <point x="1002.06" y="1450"/>
      <point x="1042.06" y="1446"/>
      <point x="1057.06" y="1423"/>
      <point x="1053.06" y="1376"/>
      <point x="1045.06" y="1333" type="qcurve" smooth="yes"/>
      <point x="1019.06" y="1184" type="line"/>
      <point x="809.062" y="785" type="line"/>
      <point x="519.062" y="785" type="line"/>
    </contour>
  </outline>
</glyph>
<glyph name="parenleft" format="2">
  <advance width="999"/>
  <unicode hex="0028"/>
  <outline>
    <contour>
      <point x="714.032" y="-256" type="line"/>
      <point x="666.032" y="-256" type="line"/>
      <point x="554.032" y="-182"/>
      <point x="382.032" y="3"/>
      <point x="275.032" y="223"/>
      <point x="240.032" y="478"/>
      <point x="265.032" y="622" type="qcurve" smooth="yes"/>
      <point x="290.032" y="766"/>
      <point x="414.032" y="1021"/>
      <point x="598.032" y="1242"/>
      <point x="835.032" y="1426"/>
      <point x="973.032" y="1500" type="qcurve"/>
      <point x="1021.03" y="1500" type="line"/>
      <point x="970.032" y="1467"/>
      <point x="898.032" y="1412"/>
      <point x="845.032" y="1340"/>
      <point x="805.032" y="1232"/>
      <point x="765.032" y="1060"/>
      <point x="719.032" y="806"/>
      <point x="687.032" y="622" type="qcurve" smooth="yes"/>
      <point x="655.032" y="439"/>
      <point x="612.032" y="184"/>
      <point x="592.032" y="12"/>
      <point x="595.032" y="-96"/>
      <point x="622.032" y="-168"/>
      <point x="675.032" y="-222"/>
      <point x="714.032" y="-256" type="qcurve"/>
    </contour>
  </outline>
</glyph>
<glyph name="asterisk" format="2">
  <advance width="1211"/>
  <unicode hex="002A"/>
  <outline>
    <contour>
      <point x="514" y="782" type="line"/>
      <point x="656" y="1101" type="line"/>
      <point x="268" y="832" type="line"/>
      <point x="195" y="994" type="line"/>
      <point x="646" y="1127" type="line"/>
      <point x="260" y="1272" type="line"/>
      <point x="373" y="1420" type="line"/>
      <point x="665" y="1151" type="line"/>
      <point x="635" y="1472" type="line"/>
      <point x="843" y="1472" type="line"/>
      <point x="701" y="1151" type="line"/>
      <point x="1100" y="1420" type="line"/>
      <point x="1173" y="1258" type="line"/>
      <point x="714" y="1127" type="line"/>
      <point x="1096" y="976" type="line"/>
      <point x="984" y="828" type="line"/>
      <point x="692" y="1100" type="line"/>
      <point x="722" y="782" type="line"/>
    </contour>
  </outline>
</glyph>
<glyph name="comma" format="2">
  <advance width="1288"/>
  <unicode hex="002C"/>
  <outline>
    <contour>
      <point x="442" y="-346" type="line"/>
      <point x="416" y="-340" type="line"/>
      <point x="656" y="0" type="line"/>
      <point x="380" y="0" type="line" smooth="yes"/>
      <point x="335" y="0"/>
      <point x="281" y="10"/>
      <point x="256" y="41"/>
      <point x="255" y="96"/>
      <point x="263" y="141" type="qcurve" smooth="yes"/>
      <point x="305" y="385" type="line" smooth="yes"/>
      <point x="313" y="429"/>
      <point x="333" y="484"/>
      <point x="368" y="514"/>
      <point x="425" y="524"/>
      <point x="470" y="524" type="qcurve" smooth="yes"/>
      <point x="758" y="524" type="line" smooth="yes"/>
      <point x="803" y="524"/>
      <point x="857" y="514"/>
      <point x="882" y="484"/>
      <point x="883" y="429"/>
      <point x="875" y="385" type="qcurve" smooth="yes"/>
      <point x="833" y="141" type="line" smooth="yes"/>
      <point x="829" y="117"/>
      <point x="818" y="80"/>
      <point x="803" y="48"/>
      <point x="780" y="17"/>
      <point x="764" y="0" type="qcurve" smooth="yes"/>
    </contour>
  </outline>
</glyph>
<glyph name="hyphen" format="2">
  <advance width="1758.36"/>
  <unicode hex="002D"/>
  <outline>
    <contour>
      <point x="269.09" y="628" type="line"/>
      <point x="1469.09" y="628" type="line"/>
      <point x="1463.09" y="596" type="line"/>
      <point x="263.09" y="596" type="line"/>
    </contour>
  </outline>
  <guideline angle="0" x="0" y="612"/>
</glyph>
<glyph name="period" format="2">
  <advance width="1289"/>
  <unicode hex="002E"/>
  <outline>
    <contour>
      <point x="262.49" y="135" type="line"/>
      <point x="305.49" y="386" type="line" smooth="yes"/>
      <point x="313.49" y="430"/>
      <point x="333.49" y="484"/>
      <point x="368.49" y="514"/>
      <point x="425.49" y="524"/>
      <point x="470.49" y="524" type="qcurve" smooth="yes"/>
      <point x="757.49" y="524" type="line" smooth="yes"/>
      <point x="802.49" y="524"/>
      <point x="856.49" y="514"/>
      <point x="882.49" y="484"/>
      <point x="883.49" y="429"/>
      <point x="875.49" y="384" type="qcurve" smooth="yes"/>
      <point x="832.49" y="135" type="line" smooth="yes"/>
      <point x="824.49" y="90"/>
      <point x="804.49" y="35"/>
      <point x="768.49" y="4"/>
      <point x="711.49" y="-6"/>
      <point x="666.49" y="-6" type="qcurve" smooth="yes"/>
      <point x="378.49" y="-6" type="line" smooth="yes"/>
      <point x="333.49" y="-6"/>
      <point x="280.49" y="4"/>
      <point x="255.49" y="35"/>
      <point x="254.49" y="90"/>
      <point x="262.49" y="135" type="qcurve"/>
    </contour>
  </outline>
</glyph>
<glyph name="slash" format="2">
  <advance width="1892"/>
  <unicode hex="002F"/>
  <outline>
    <contour>
      <point x="1365.08" y="1430" type="line"/>
      <point x="1844.08" y="1430" type="line"/>
      <point x="520.081" y="-100" type="line"/>
      <point x="41.0813" y="-100" type="line"/>
    </contour>
  </outline>
</glyph>
<glyph name="zero" format="2">
  <advance width="3111" height="1448"/>
  <unicode hex="0030"/>
  <outline>
    <contour>
      <point x="691" y="0" type="line"/>
      <point x="2177" y="0" type="line" smooth="yes"/>
      <point x="2276" y="0"/>
      <point x="2436" y="31"/>
      <point x="2555" y="110"/>
      <point x="2634" y="245"/>
      <point x="2652" y="348" type="qcurve" smooth="yes"/>
      <point x="2777" y="1068" type="line" smooth="yes"/>
      <point x="2795" y="1169"/>
      <point x="2759" y="1298"/>
      <point x="2664" y="1373"/>
      <point x="2517" y="1402"/>
      <point x="2422" y="1402" type="qcurve" smooth="yes"/>
      <point x="936" y="1402" type="line" smooth="yes"/>
      <point x="842" y="1402"/>
      <point x="684" y="1373"/>
      <point x="563" y="1298"/>
      <point x="483" y="1169"/>
      <point x="465" y="1068" type="qcurve" smooth="yes"/>
      <point x="340" y="348" type="line" smooth="yes"/>
      <point x="322" y="245"/>
      <point x="353" y="111"/>
      <point x="444" y="32"/>
      <point x="592" y="0"/>
      <point x="691" y="0" type="qcurve"/>
    </contour>
    <contour>
      <point x="857" y="36" type="line"/>
      <point x="857" y="36"/>
      <point x="857" y="36"/>
      <point x="857" y="36" type="qcurve"/>
      <point x="1089" y="1366" type="line"/>
      <point x="1089" y="1366"/>
      <point x="1089" y="1366"/>
      <point x="1089" y="1366"/>
      <point x="1089" y="1366"/>
      <point x="1089" y="1366" type="qcurve"/>
      <point x="2257" y="1366" type="line"/>
      <point x="2257" y="1366"/>
      <point x="2257" y="1366"/>
      <point x="2257" y="1366"/>
      <point x="2257" y="1366"/>
      <point x="2257" y="1366" type="qcurve"/>
      <point x="2025" y="36" type="line"/>
      <point x="2025" y="36"/>
      <point x="2025" y="36"/>
      <point x="2025" y="36"/>
      <point x="2025" y="36"/>
      <point x="2025" y="36" type="qcurve"/>
    </contour>
  </outline>
</glyph>
<glyph name="one" format="2">
  <advance width="1574" height="1448"/>
  <unicode hex="0031"/>
  <outline>
    <contour>
      <point x="482" y="0" type="line"/>
      <point x="1054" y="0" type="line"/>
      <point x="1303" y="1424" type="line"/>
      <point x="231" y="1310" type="line"/>
      <point x="224" y="1273" type="line"/>
      <point x="714" y="1327" type="line"/>
    </contour>
  </outline>
  <guideline angle="90" color="0.4,0.4,0.4,1" name="halfwidth" x="786" y="0"/>
</glyph>
<glyph name="two" format="2">
  <advance width="3002"/>
  <unicode hex="0032"/>
  <outline>
    <contour>
      <point x="278" y="0" type="line"/>
      <point x="307" y="167" type="line" smooth="yes"/>
      <point x="324" y="267"/>
      <point x="404" y="432"/>
      <point x="538" y="555"/>
      <point x="729" y="634"/>
      <point x="858" y="647" type="qcurve" smooth="yes"/>
      <point x="2120" y="775" type="line"/>
      <point x="2125" y="775"/>
      <point x="2134" y="780"/>
      <point x="2140" y="786"/>
      <point x="2145" y="794"/>
      <point x="2146" y="798" type="qcurve"/>
      <point x="2248" y="1378" type="line"/>
      <point x="2248" y="1378"/>
      <point x="2248" y="1378"/>
      <point x="2248" y="1378" type="qcurve"/>
      <point x="1074" y="1378" type="line"/>
      <point x="1074" y="1378"/>
      <point x="1074" y="1378"/>
      <point x="1074" y="1378" type="qcurve"/>
      <point x="992" y="912" type="line"/>
      <point x="463" y="1008" type="line"/>
      <point x="477" y="1086" type="line" smooth="yes"/>
      <point x="494" y="1189"/>
      <point x="576" y="1317"/>
      <point x="696" y="1389"/>
      <point x="852" y="1414"/>
      <point x="944" y="1414" type="qcurve" smooth="yes"/>
      <point x="2384" y="1414" type="line" smooth="yes"/>
      <point x="2475" y="1414"/>
      <point x="2623" y="1383"/>
      <point x="2720" y="1310"/>
      <point x="2760" y="1191"/>
      <point x="2745" y="1102" type="qcurve" smooth="yes"/>
      <point x="2742" y="1084" type="line" smooth="yes"/>
      <point x="2730" y="1018"/>
      <point x="2672" y="908"/>
      <point x="2557" y="823"/>
      <point x="2374" y="765"/>
      <point x="2239" y="751" type="qcurve" smooth="yes"/>
      <point x="977" y="623" type="line"/>
      <point x="962" y="622"/>
      <point x="941" y="613"/>
      <point x="929" y="602"/>
      <point x="922" y="588"/>
      <point x="921" y="580" type="qcurve"/>
      <point x="826" y="36" type="line"/>
      <point x="2023" y="36" type="line"/>
      <point x="2023" y="36"/>
      <point x="2023" y="36"/>
      <point x="2023" y="36" type="qcurve"/>
      <point x="2103" y="492" type="line"/>
      <point x="2632" y="396" type="line"/>
      <point x="2623" y="342" type="line" smooth="yes"/>
      <point x="2604" y="236"/>
      <point x="2524" y="103"/>
      <point x="2404" y="28"/>
      <point x="2248" y="0"/>
      <point x="2153" y="0" type="qcurve" smooth="yes"/>
    </contour>
  </outline>
</glyph>
<glyph name="three" format="2">
  <advance width="3030" height="1448"/>
  <unicode hex="0033"/>
  <outline>
    <contour>
      <point x="351" y="418" type="line"/>
      <point x="838" y="502" type="line"/>
      <point x="756" y="36" type="line"/>
      <point x="756" y="36"/>
      <point x="756" y="36"/>
      <point x="756" y="36"/>
      <point x="756" y="36"/>
      <point x="756" y="36" type="qcurve"/>
      <point x="1886" y="36" type="line" smooth="yes"/>
      <point x="1921" y="36"/>
      <point x="1981" y="51"/>
      <point x="2029" y="84"/>
      <point x="2062" y="137"/>
      <point x="2068" y="174" type="qcurve" smooth="yes"/>
      <point x="2135" y="556" type="line"/>
      <point x="2141" y="594"/>
      <point x="2125" y="645"/>
      <point x="2087" y="676"/>
      <point x="2031" y="690"/>
      <point x="1996" y="690" type="qcurve" smooth="yes"/>
      <point x="1324" y="690" type="line"/>
      <point x="1331" y="726" type="line"/>
      <point x="1995" y="726" type="line" smooth="yes"/>
      <point x="2030" y="726"/>
      <point x="2091" y="743"/>
      <point x="2141" y="776"/>
      <point x="2174" y="825"/>
      <point x="2180" y="858" type="qcurve" smooth="yes"/>
      <point x="2244" y="1228" type="line" smooth="yes"/>
      <point x="2250" y="1261"/>
      <point x="2235" y="1312"/>
      <point x="2199" y="1346"/>
      <point x="2142" y="1364"/>
      <point x="2106" y="1364" type="qcurve" smooth="yes"/>
      <point x="1000" y="1364" type="line"/>
      <point x="1000" y="1364"/>
      <point x="1000" y="1364"/>
      <point x="1000" y="1364" type="qcurve"/>
      <point x="916" y="880" type="line"/>
      <point x="458" y="964" type="line"/>
      <point x="481" y="1092" type="line" smooth="yes"/>
      <point x="494" y="1169"/>
      <point x="562" y="1284"/>
      <point x="671" y="1361"/>
      <point x="824" y="1400"/>
      <point x="922" y="1400" type="qcurve" smooth="yes"/>
      <point x="2358" y="1400" type="line" smooth="yes"/>
      <point x="2555" y="1400"/>
      <point x="2720" y="1249"/>
      <point x="2693" y="1096" type="qcurve" smooth="yes"/>
      <point x="2679" y="1014" type="line" smooth="yes"/>
      <point x="2667" y="947"/>
      <point x="2625" y="845"/>
      <point x="2561" y="773"/>
      <point x="2476" y="730"/>
      <point x="2422" y="720" type="qcurve"/>
      <point x="2471" y="716"/>
      <point x="2544" y="679"/>
      <point x="2586" y="605"/>
      <point x="2596" y="491"/>
      <point x="2581" y="408" type="qcurve" smooth="yes"/>
      <point x="2568" y="330" type="line" smooth="yes"/>
      <point x="2551" y="235"/>
      <point x="2470" y="108"/>
      <point x="2349" y="32"/>
      <point x="2194" y="0"/>
      <point x="2102" y="0" type="qcurve" smooth="yes"/>
      <point x="666" y="0" type="line" smooth="yes"/>
      <point x="575" y="0"/>
      <point x="436" y="29"/>
      <point x="349" y="101"/>
      <point x="318" y="225"/>
      <point x="334" y="320" type="qcurve" smooth="yes"/>
    </contour>
  </outline>
</glyph>
<glyph name="four" format="2">
  <advance width="2820"/>
  <unicode hex="0034"/>
  <outline>
    <contour>
      <point x="-38" y="404" type="line"/>
      <point x="1533" y="404" type="line"/>
      <point x="1462" y="0" type="line"/>
      <point x="2034" y="0" type="line"/>
      <point x="2105" y="404" type="line"/>
      <point x="2512" y="404" type="line"/>
      <point x="2518" y="440" type="line"/>
      <point x="2111" y="440" type="line"/>
      <point x="2278" y="1400" type="line"/>
      <point x="1928" y="1400" type="line"/>
      <point x="-32" y="440" type="line"/>
    </contour>
    <contour>
      <point x="45" y="440" type="line"/>
      <point x="1678" y="1240" type="line"/>
      <point x="1539" y="440" type="line"/>
    </contour>
  </outline>
</glyph>
<glyph name="five" format="2">
  <advance width="2769"/>
  <unicode hex="0035"/>
  <outline>
    <contour>
      <point x="1237" y="-12" type="line"/>
      <point x="1105" y="-12"/>
      <point x="825" y="1"/>
      <point x="567" y="21"/>
      <point x="348" y="45"/>
      <point x="277" y="56" type="qcurve"/>
      <point x="270" y="96" type="line"/>
      <point x="320" y="87"/>
      <point x="454" y="70"/>
      <point x="609" y="54"/>
      <point x="778" y="41"/>
      <point x="945" y="31"/>
      <point x="1104" y="25"/>
      <point x="1172" y="25" type="qcurve" smooth="yes"/>
      <point x="1341" y="25"/>
      <point x="1584" y="65"/>
      <point x="1749" y="156"/>
      <point x="1842" y="303"/>
      <point x="1861" y="410" type="qcurve" smooth="yes"/>
      <point x="1880" y="518"/>
      <point x="1843" y="655"/>
      <point x="1718" y="733"/>
      <point x="1500" y="762"/>
      <point x="1338" y="762" type="qcurve" smooth="yes"/>
      <point x="1191" y="762"/>
      <point x="920" y="742"/>
      <point x="671" y="701"/>
      <point x="445" y="639"/>
      <point x="343" y="598" type="qcurve"/>
      <point x="559" y="1400" type="line"/>
      <point x="2431" y="1400" type="line"/>
      <point x="2264" y="970" type="line"/>
      <point x="479" y="970" type="line"/>
      <point x="396" y="655" type="line"/>
      <point x="490" y="688"/>
      <point x="693" y="741"/>
      <point x="925" y="778"/>
      <point x="1196" y="798"/>
      <point x="1359" y="798" type="qcurve" smooth="yes"/>
      <point x="1574" y="798"/>
      <point x="1908" y="783"/>
      <point x="2156" y="747"/>
      <point x="2323" y="689"/>
      <point x="2419" y="603"/>
      <point x="2448" y="486"/>
      <point x="2435" y="410" type="qcurve" smooth="yes"/>
      <point x="2422" y="334"/>
      <point x="2341" y="212"/>
      <point x="2204" y="119"/>
      <point x="2009" y="51"/>
      <point x="1751" y="8"/>
      <point x="1430" y="-12"/>
      <point x="1237" y="-12" type="qcurve"/>
    </contour>
  </outline>
</glyph>
<glyph name="six" format="2">
  <advance width="2907"/>
  <unicode hex="0036"/>
  <outline>
    <contour>
      <point x="1326" y="-5" type="line"/>
      <point x="1581" y="-5"/>
      <point x="1952" y="1"/>
      <point x="2214" y="22"/>
      <point x="2380" y="63"/>
      <point x="2480" y="133"/>
      <point x="2528" y="236"/>
      <point x="2541" y="309" type="qcurve" smooth="yes"/>
      <point x="2559" y="412"/>
      <point x="2541" y="553"/>
      <point x="2457" y="646"/>
      <point x="2299" y="697"/>
      <point x="2053" y="722"/>
      <point x="1712" y="727"/>
      <point x="1488" y="727" type="qcurve" smooth="yes"/>
      <point x="1339" y="727"/>
      <point x="1063" y="718"/>
      <point x="821" y="703"/>
      <point x="619" y="682"/>
      <point x="544" y="671" type="qcurve"/>
      <point x="538" y="635" type="line"/>
      <point x="612" y="647"/>
      <point x="825" y="668"/>
      <point x="1073" y="683"/>
      <point x="1338" y="691"/>
      <point x="1464" y="691" type="qcurve" smooth="yes"/>
      <point x="1588" y="691"/>
      <point x="1769" y="688"/>
      <point x="1892" y="670"/>
      <point x="1965" y="630"/>
      <point x="1996" y="559"/>
      <point x="1993" y="449"/>
      <point x="1979" y="369" type="qcurve" smooth="yes"/>
      <point x="1965" y="285"/>
      <point x="1933" y="170"/>
      <point x="1881" y="94"/>
      <point x="1797" y="54"/>
      <point x="1663" y="34"/>
      <point x="1469" y="31"/>
      <point x="1332" y="31" type="qcurve" smooth="yes"/>
      <point x="1206" y="31"/>
      <point x="1023" y="36"/>
      <point x="900" y="65"/>
      <point x="831" y="127"/>
      <point x="807" y="242"/>
      <point x="822" y="418"/>
      <point x="844" y="546" type="qcurve" smooth="yes"/>
      <point x="880" y="751"/>
      <point x="977" y="1034"/>
      <point x="1097" y="1218"/>
      <point x="1238" y="1318"/>
      <point x="1399" y="1365"/>
      <point x="1578" y="1374"/>
      <point x="1675" y="1374" type="qcurve" smooth="yes"/>
      <point x="1765" y="1374"/>
      <point x="1912" y="1367"/>
      <point x="2028" y="1354"/>
      <point x="2117" y="1337"/>
      <point x="2149" y="1327" type="qcurve"/>
      <point x="2131" y="1370" type="line"/>
      <point x="2109" y="1376"/>
      <point x="2031" y="1390"/>
      <point x="1918" y="1402"/>
      <point x="1771" y="1410"/>
      <point x="1681" y="1410" type="qcurve" smooth="yes"/>
      <point x="1489" y="1410"/>
      <point x="1147" y="1377"/>
      <point x="854" y="1300"/>
      <point x="613" y="1171"/>
      <point x="429" y="980"/>
      <point x="304" y="719"/>
      <point x="274" y="548" type="qcurve" smooth="yes"/>
      <point x="254" y="432"/>
      <point x="260" y="259"/>
      <point x="333" y="137"/>
      <point x="483" y="58"/>
      <point x="730" y="12"/>
      <point x="1085" y="-5"/>
      <point x="1326" y="-5" type="qcurve"/>
    </contour>
  </outline>
</glyph>
<glyph name="seven" format="2">
  <advance width="2463.69"/>
  <unicode hex="0037"/>
  <outline>
    <contour>
      <point x="181" y="973" type="line"/>
      <point x="710" y="877" type="line"/>
      <point x="795" y="1364" type="line"/>
      <point x="2035" y="1364" type="line"/>
      <point x="503" y="0" type="line"/>
      <point x="1244" y="0" type="line"/>
      <point x="2551" y="1228" type="line"/>
      <point x="2581" y="1400" type="line"/>
      <point x="255" y="1400" type="line"/>
    </contour>
  </outline>
  <guideline angle="90" color="0.4,0.4,0.4,1" name="halfwidth" x="1231.84" y="0"/>
</glyph>
<glyph name="eight" format="2">
  <advance width="3197"/>
  <unicode hex="0038"/>
  <outline>
    <contour>
      <point x="838" y="224" type="line" smooth="yes"/>
      <point x="829" y="172"/>
      <point x="839" y="100"/>
      <point x="876" y="55"/>
      <point x="939" y="36"/>
      <point x="983" y="36" type="qcurve" smooth="yes"/>
      <point x="1987" y="36" type="line" smooth="yes"/>
      <point x="2031" y="36"/>
      <point x="2102" y="55"/>
      <point x="2154" y="100"/>
      <point x="2189" y="172"/>
      <point x="2198" y="224" type="qcurve" smooth="yes"/>
      <point x="2246" y="501" type="line" smooth="yes"/>
      <point x="2255" y="554"/>
      <point x="2246" y="625"/>
      <point x="2209" y="670"/>
      <point x="2145" y="689"/>
      <point x="2101" y="689" type="qcurve" smooth="yes"/>
      <point x="1097" y="689" type="line" smooth="yes"/>
      <point x="1053" y="689"/>
      <point x="983" y="670"/>
      <point x="930" y="625"/>
      <point x="895" y="554"/>
      <point x="886" y="501" type="qcurve" smooth="yes"/>
    </contour>
    <contour>
      <point x="2352" y="1178" type="line" smooth="yes"/>
      <point x="2361" y="1230"/>
      <point x="2351" y="1301"/>
      <point x="2314" y="1345"/>
      <point x="2250" y="1364"/>
      <point x="2206" y="1364" type="qcurve" smooth="yes"/>
      <point x="1228" y="1364" type="line" smooth="yes"/>
      <point x="1184" y="1364"/>
      <point x="1114" y="1345"/>
      <point x="1062" y="1301"/>
      <point x="1027" y="1230"/>
      <point x="1018" y="1178" type="qcurve" smooth="yes"/>
      <point x="971" y="911" type="line" smooth="yes"/>
      <point x="962" y="859"/>
      <point x="972" y="788"/>
      <point x="1009" y="744"/>
      <point x="1073" y="725"/>
      <point x="1117" y="725" type="qcurve" smooth="yes"/>
      <point x="2095" y="725" type="line" smooth="yes"/>
      <point x="2139" y="725"/>
      <point x="2209" y="744"/>
      <point x="2261" y="788"/>
      <point x="2296" y="859"/>
      <point x="2305" y="911" type="qcurve" smooth="yes"/>
    </contour>
    <contour>
      <point x="340" y="353" type="line"/>
      <point x="346" y="392" type="line"/>
      <point x="361" y="477"/>
      <point x="415" y="592"/>
      <point x="483" y="665"/>
      <point x="561" y="703"/>
      <point x="599" y="712" type="qcurve"/>
      <point x="565" y="721"/>
      <point x="506" y="765"/>
      <point x="465" y="833"/>
      <point x="449" y="923"/>
      <point x="459" y="977" type="qcurve"/>
      <point x="473" y="1061" type="line" smooth="yes"/>
      <point x="487" y="1139"/>
      <point x="559" y="1264"/>
      <point x="674" y="1353"/>
      <point x="834" y="1400"/>
      <point x="934" y="1400" type="qcurve" smooth="yes"/>
      <point x="2513" y="1400" type="line" smooth="yes"/>
      <point x="2614" y="1400"/>
      <point x="2756" y="1353"/>
      <point x="2840" y="1265"/>
      <point x="2869" y="1140"/>
      <point x="2855" y="1062" type="qcurve"/>
      <point x="2841" y="977" type="line"/>
      <point x="2831" y="923"/>
      <point x="2782" y="833"/>
      <point x="2718" y="765"/>
      <point x="2643" y="721"/>
      <point x="2608" y="712" type="qcurve"/>
      <point x="2643" y="704"/>
      <point x="2707" y="667"/>
      <point x="2750" y="595"/>
      <point x="2764" y="481"/>
      <point x="2749" y="396" type="qcurve" smooth="yes"/>
      <point x="2742" y="354" type="line" smooth="yes"/>
      <point x="2724" y="253"/>
      <point x="2636" y="117"/>
      <point x="2508" y="35"/>
      <point x="2346" y="0"/>
      <point x="2254" y="0" type="qcurve" smooth="yes"/>
      <point x="703" y="0" type="line" smooth="yes"/>
      <point x="613" y="0"/>
      <point x="463" y="34"/>
      <point x="363" y="116"/>
      <point x="322" y="252"/>
      <point x="340" y="353" type="qcurve"/>
    </contour>
  </outline>
</glyph>
<glyph name="nine" format="2">
  <advance width="2988"/>
  <unicode hex="0039"/>
  <outline>
    <contour>
      <point x="1606" y="1410" type="line"/>
      <point x="1354" y="1410"/>
      <point x="983" y="1397"/>
      <point x="720" y="1365"/>
      <point x="549" y="1309"/>
      <point x="445" y="1221"/>
      <point x="392" y="1099"/>
      <point x="377" y="1016" type="qcurve" smooth="yes"/>
      <point x="361" y="926"/>
      <point x="381" y="800"/>
      <point x="467" y="716"/>
      <point x="626" y="668"/>
      <point x="872" y="644"/>
      <point x="1213" y="638"/>
      <point x="1437" y="638" type="qcurve" smooth="yes"/>
      <point x="1586" y="638"/>
      <point x="1862" y="647"/>
      <point x="2104" y="662"/>
      <point x="2306" y="683"/>
      <point x="2381" y="694" type="qcurve"/>
      <point x="2387" y="730" type="line"/>
      <point x="2313" y="718"/>
      <point x="2100" y="698"/>
      <point x="1853" y="683"/>
      <point x="1588" y="674"/>
      <point x="1462" y="674" type="qcurve" smooth="yes"/>
      <point x="1338" y="674"/>
      <point x="1158" y="679"/>
      <point x="1034" y="699"/>
      <point x="962" y="741"/>
      <point x="930" y="815"/>
      <point x="934" y="926"/>
      <point x="948" y="1006" type="qcurve" smooth="yes"/>
      <point x="964" y="1095"/>
      <point x="996" y="1219"/>
      <point x="1050" y="1301"/>
      <point x="1134" y="1346"/>
      <point x="1268" y="1369"/>
      <point x="1463" y="1374"/>
      <point x="1600" y="1374" type="qcurve" smooth="yes"/>
      <point x="1726" y="1374"/>
      <point x="1909" y="1369"/>
      <point x="2032" y="1340"/>
      <point x="2101" y="1278"/>
      <point x="2125" y="1163"/>
      <point x="2110" y="987"/>
      <point x="2088" y="859" type="qcurve" smooth="yes"/>
      <point x="2052" y="654"/>
      <point x="1951" y="371"/>
      <point x="1824" y="187"/>
      <point x="1672" y="87"/>
      <point x="1498" y="40"/>
      <point x="1303" y="31"/>
      <point x="1197" y="31" type="qcurve" smooth="yes"/>
      <point x="1098" y="31"/>
      <point x="935" y="38"/>
      <point x="804" y="51"/>
      <point x="704" y="68"/>
      <point x="669" y="78" type="qcurve"/>
      <point x="689" y="35" type="line"/>
      <point x="713" y="29"/>
      <point x="802" y="15"/>
      <point x="929" y="3"/>
      <point x="1093" y="-5"/>
      <point x="1191" y="-5" type="qcurve" smooth="yes"/>
      <point x="1401" y="-5"/>
      <point x="1767" y="35"/>
      <point x="2075" y="124"/>
      <point x="2325" y="265"/>
      <point x="2513" y="468"/>
      <point x="2638" y="736"/>
      <point x="2668" y="907" type="qcurve" smooth="yes"/>
      <point x="2688" y="1023"/>
      <point x="2681" y="1188"/>
      <point x="2605" y="1300"/>
      <point x="2453" y="1366"/>
      <point x="2203" y="1400"/>
      <point x="1847" y="1410"/>
      <point x="1606" y="1410" type="qcurve"/>
    </contour>
  </outline>
</glyph>
<glyph name="colon" format="2">
  <advance width="1289.61"/>
  <unicode hex="003A"/>
  <outline>
    <contour>
      <point x="263" y="135" type="line"/>
      <point x="294" y="316" type="line" smooth="yes"/>
      <point x="302" y="360"/>
      <point x="322" y="414"/>
      <point x="358" y="444"/>
      <point x="414" y="454"/>
      <point x="459" y="454" type="qcurve" smooth="yes"/>
      <point x="746" y="454" type="line" smooth="yes"/>
      <point x="791" y="454"/>
      <point x="845" y="444"/>
      <point x="871" y="414"/>
      <point x="872" y="359"/>
      <point x="864" y="314" type="qcurve" smooth="yes"/>
      <point x="833" y="135" type="line" smooth="yes"/>
      <point x="826" y="90"/>
      <point x="805" y="35"/>
      <point x="770" y="4"/>
      <point x="712" y="-6"/>
      <point x="667" y="-6" type="qcurve" smooth="yes"/>
      <point x="379" y="-6" type="line" smooth="yes"/>
      <point x="334" y="-6"/>
      <point x="281" y="4"/>
      <point x="256" y="35"/>
      <point x="256" y="90"/>
      <point x="263" y="135" type="qcurve"/>
    </contour>
    <contour>
      <point x="364" y="715" type="line"/>
      <point x="395" y="896" type="line" smooth="yes"/>
      <point x="403" y="940"/>
      <point x="423" y="994"/>
      <point x="459" y="1024"/>
      <point x="515" y="1034"/>
      <point x="560" y="1034" type="qcurve" smooth="yes"/>
      <point x="847" y="1034" type="line" smooth="yes"/>
      <point x="892" y="1034"/>
      <point x="946" y="1024"/>
      <point x="972" y="994"/>
      <point x="973" y="939"/>
      <point x="965" y="894" type="qcurve" smooth="yes"/>
      <point x="934" y="715" type="line" smooth="yes"/>
      <point x="927" y="670"/>
      <point x="906" y="615"/>
      <point x="871" y="584"/>
      <point x="813" y="574"/>
      <point x="768" y="574" type="qcurve" smooth="yes"/>
      <point x="480" y="574" type="line" smooth="yes"/>
      <point x="435" y="574"/>
      <point x="382" y="584"/>
      <point x="357" y="615"/>
      <point x="357" y="670"/>
      <point x="364" y="715" type="qcurve"/>
    </contour>
  </outline>
</glyph>
<glyph name="semicolon" format="2">
  <advance width="1286"/>
  <unicode hex="003B"/>
  <outline>
    <contour>
      <point x="364" y="715" type="line"/>
      <point x="395" y="896" type="line" smooth="yes"/>
      <point x="403" y="940"/>
      <point x="423" y="994"/>
      <point x="458" y="1024"/>
      <point x="515" y="1034"/>
      <point x="560" y="1034" type="qcurve" smooth="yes"/>
      <point x="847" y="1034" type="line" smooth="yes"/>
      <point x="892" y="1034"/>
      <point x="946" y="1024"/>
      <point x="972" y="994"/>
      <point x="973" y="939"/>
      <point x="965" y="894" type="qcurve" smooth="yes"/>
      <point x="934" y="715" type="line" smooth="yes"/>
      <point x="926" y="670"/>
      <point x="906" y="615"/>
      <point x="870" y="584"/>
      <point x="813" y="574"/>
      <point x="768" y="574" type="qcurve" smooth="yes"/>
      <point x="480" y="574" type="line" smooth="yes"/>
      <point x="435" y="574"/>
      <point x="382" y="584"/>
      <point x="357" y="615"/>
      <point x="356" y="670"/>
      <point x="364" y="715" type="qcurve"/>
    </contour>
    <contour>
      <point x="264" y="145" type="line"/>
      <point x="294" y="315" type="line" smooth="yes"/>
      <point x="302" y="359"/>
      <point x="322" y="414"/>
      <point x="357" y="444"/>
      <point x="414" y="454"/>
      <point x="459" y="454" type="qcurve" smooth="yes"/>
      <point x="747" y="454" type="line" smooth="yes"/>
      <point x="792" y="454"/>
      <point x="846" y="444"/>
      <point x="871" y="414"/>
      <point x="872" y="359"/>
      <point x="864" y="315" type="qcurve" smooth="yes"/>
      <point x="834" y="145" type="line" smooth="yes"/>
      <point x="826" y="100"/>
      <point x="806" y="45"/>
      <point x="771" y="14"/>
      <point x="714" y="4"/>
      <point x="669" y="4" type="qcurve" smooth="yes"/>
      <point x="381" y="4" type="line" smooth="yes"/>
      <point x="336" y="4"/>
      <point x="282" y="14"/>
      <point x="257" y="45"/>
      <point x="256" y="100"/>
      <point x="264" y="145" type="qcurve"/>
    </contour>
    <contour>
      <point x="417" y="-336" type="line"/>
      <point x="672" y="25" type="line"/>
      <point x="795" y="36" type="line"/>
      <point x="443" y="-342" type="line"/>
      <point x="417" y="-336" type="line"/>
    </contour>
  </outline>
</glyph>
<glyph name="less" format="2">
  <advance width="2085"/>
  <unicode hex="003C"/>
  <outline>
    <contour>
      <point x="1705" y="0" type="line"/>
      <point x="1711" y="38" type="line"/>
      <point x="298" y="582" type="line"/>
      <point x="1901" y="1127" type="line"/>
      <point x="1909" y="1168" type="line"/>
      <point x="244" y="602" type="line"/>
      <point x="238" y="566" type="line"/>
      <point x="1705" y="0" type="line"/>
    </contour>
  </outline>
</glyph>
<glyph name="greater" format="2">
  <advance width="2085.29"/>
  <unicode hex="003E"/>
  <outline>
    <contour>
      <point x="346" y="1168" type="line"/>
      <point x="340" y="1131" type="line"/>
      <point x="1753" y="587" type="line"/>
      <point x="150" y="42" type="line"/>
      <point x="142" y="0" type="line"/>
      <point x="1807" y="566" type="line"/>
      <point x="1813" y="602" type="line"/>
      <point x="346" y="1168" type="line"/>
    </contour>
  </outline>
</glyph>
<glyph name="question" format="2">
  <advance width="2324"/>
  <unicode hex="003F"/>
  <outline>
    <contour>
      <point x="1006.78" y="462" type="line"/>
      <point x="1022.78" y="557" type="line" smooth="yes"/>
      <point x="1028.78" y="593"/>
      <point x="1060.78" y="654"/>
      <point x="1111.78" y="699"/>
      <point x="1184.78" y="724"/>
      <point x="1232.78" y="725" type="qcurve" smooth="yes"/>
      <point x="1487.78" y="729" type="line"/>
      <point x="1487.78" y="729"/>
      <point x="1487.78" y="729"/>
      <point x="1487.78" y="729"/>
      <point x="1487.78" y="729"/>
      <point x="1487.78" y="729" type="qcurve"/>
      <point x="1598.78" y="1364" type="line"/>
      <point x="1598.78" y="1364"/>
      <point x="1598.78" y="1364"/>
      <point x="1598.78" y="1364"/>
      <point x="1598.78" y="1364"/>
      <point x="1598.78" y="1364" type="qcurve"/>
      <point x="853.782" y="1364" type="line"/>
      <point x="853.782" y="1364"/>
      <point x="853.782" y="1364"/>
      <point x="853.782" y="1364"/>
      <point x="853.782" y="1364"/>
      <point x="853.782" y="1364" type="qcurve"/>
      <point x="775.782" y="914" type="line"/>
      <point x="252.782" y="988" type="line"/>
      <point x="273.782" y="1103" type="line" smooth="yes"/>
      <point x="287.782" y="1182"/>
      <point x="349.782" y="1295"/>
      <point x="453.782" y="1367"/>
      <point x="603.782" y="1400"/>
      <point x="705.782" y="1400" type="qcurve" smooth="yes"/>
      <point x="1751.78" y="1400" type="line" smooth="yes"/>
      <point x="1853.78" y="1400"/>
      <point x="1991.78" y="1367"/>
      <point x="2069.78" y="1297"/>
      <point x="2092.78" y="1185"/>
      <point x="2078.78" y="1105" type="qcurve" smooth="yes"/>
      <point x="2059.78" y="995" type="line" smooth="yes"/>
      <point x="2049.78" y="936"/>
      <point x="2000.78" y="830"/>
      <point x="1920.78" y="749"/>
      <point x="1808.78" y="700"/>
      <point x="1733.78" y="698" type="qcurve"/>
      <point x="1225.78" y="689" type="line" smooth="yes"/>
      <point x="1191.78" y="688"/>
      <point x="1136.78" y="671"/>
      <point x="1095.78" y="638"/>
      <point x="1068.78" y="590"/>
      <point x="1063.78" y="560" type="qcurve" smooth="yes"/>
      <point x="1046.78" y="462" type="line"/>
    </contour>
    <contour>
      <point x="684.782" y="135" type="line"/>
      <point x="699.782" y="226" type="line" smooth="yes"/>
      <point x="707.782" y="270"/>
      <point x="727.782" y="324"/>
      <point x="763.782" y="354"/>
      <point x="820.782" y="364"/>
      <point x="865.782" y="364" type="qcurve" smooth="yes"/>
      <point x="1152.78" y="364" type="line" smooth="yes"/>
      <point x="1197.78" y="364"/>
      <point x="1251.78" y="354"/>
      <point x="1276.78" y="324"/>
      <point x="1277.78" y="269"/>
      <point x="1269.78" y="224" type="qcurve" smooth="yes"/>
      <point x="1254.78" y="135" type="line" smooth="yes"/>
      <point x="1246.78" y="90"/>
      <point x="1226.78" y="35"/>
      <point x="1190.78" y="4"/>
      <point x="1133.78" y="-6"/>
      <point x="1088.78" y="-6" type="qcurve" smooth="yes"/>
      <point x="800.782" y="-6" type="line" smooth="yes"/>
      <point x="755.782" y="-6"/>
      <point x="702.782" y="4"/>
      <point x="677.782" y="35"/>
      <point x="676.782" y="90"/>
      <point x="684.782" y="135" type="qcurve"/>
    </contour>
  </outline>
</glyph>
<glyph name="at" format="2">
  <advance width="3343" height="1020.84"/>
  <unicode hex="0040"/>
  <outline>
    <contour>
      <point x="282.441" y="193" type="line"/>
      <point x="398.441" y="858" type="line" smooth="yes"/>
      <point x="413.441" y="946"/>
      <point x="484.441" y="1056"/>
      <point x="587.441" y="1118"/>
      <point x="720.441" y="1140"/>
      <point x="798.441" y="1140" type="qcurve" smooth="yes"/>
      <point x="2700.44" y="1140" type="line" smooth="yes"/>
      <point x="2778.44" y="1140"/>
      <point x="2904.44" y="1118"/>
      <point x="2986.44" y="1056"/>
      <point x="3019.44" y="946"/>
      <point x="3004.44" y="858" type="qcurve" smooth="yes"/>
      <point x="2928.44" y="426" type="line" smooth="yes"/>
      <point x="2912.44" y="335"/>
      <point x="2847.44" y="228"/>
      <point x="2758.44" y="171"/>
      <point x="2650.44" y="154"/>
      <point x="2592.44" y="154" type="qcurve" smooth="yes"/>
      <point x="2090.44" y="154" type="line" smooth="yes"/>
      <point x="2064.44" y="154"/>
      <point x="2020.44" y="164"/>
      <point x="1984.44" y="180"/>
      <point x="1956.44" y="202"/>
      <point x="1946.44" y="214" type="qcurve"/>
      <point x="1938.44" y="200"/>
      <point x="1915.44" y="178"/>
      <point x="1885.44" y="162"/>
      <point x="1849.44" y="154"/>
      <point x="1827.44" y="154" type="qcurve" smooth="yes"/>
      <point x="1078.44" y="154" type="line" smooth="yes"/>
      <point x="1022.44" y="154"/>
      <point x="944.441" y="176"/>
      <point x="900.441" y="221"/>
      <point x="887.441" y="291"/>
      <point x="895.441" y="339" type="qcurve" smooth="yes"/>
      <point x="958.441" y="700" type="line" smooth="yes"/>
      <point x="966.441" y="746"/>
      <point x="1003.44" y="813"/>
      <point x="1063.44" y="857"/>
      <point x="1148.44" y="878"/>
      <point x="1204.44" y="878" type="qcurve" smooth="yes"/>
      <point x="1986.44" y="878" type="line" smooth="yes"/>
      <point x="1997.44" y="878"/>
      <point x="2026.44" y="871"/>
      <point x="2034.44" y="860" type="qcurve"/>
      <point x="2037.44" y="878" type="line"/>
      <point x="2391.44" y="878" type="line"/>
      <point x="2278.44" y="227" type="line" smooth="yes"/>
      <point x="2276.44" y="216"/>
      <point x="2278.44" y="199"/>
      <point x="2288.44" y="188"/>
      <point x="2306.44" y="182"/>
      <point x="2319.44" y="182" type="qcurve" smooth="yes"/>
      <point x="2525.44" y="182" type="line" smooth="yes"/>
      <point x="2542.44" y="182"/>
      <point x="2563.44" y="192"/>
      <point x="2578.44" y="212"/>
      <point x="2587.44" y="244"/>
      <point x="2591.44" y="265" type="qcurve" smooth="yes"/>
      <point x="2720.44" y="1000" type="line" smooth="yes"/>
      <point x="2724.44" y="1023"/>
      <point x="2715.44" y="1061"/>
      <point x="2684.44" y="1089"/>
      <point x="2625.44" y="1104"/>
      <point x="2579.44" y="1104" type="qcurve" smooth="yes"/>
      <point x="897.441" y="1104" type="line" smooth="yes"/>
      <point x="864.441" y="1104"/>
      <point x="808.441" y="1096"/>
      <point x="766.441" y="1073"/>
      <point x="738.441" y="1032"/>
      <point x="732.441" y="1000" type="qcurve" smooth="yes"/>
      <point x="566.441" y="51" type="line" smooth="yes"/>
      <point x="562.441" y="25"/>
      <point x="566.441" y="-17"/>
      <point x="593.441" y="-47"/>
      <point x="647.441" y="-64"/>
      <point x="693.441" y="-64" type="qcurve" smooth="yes"/>
      <point x="2545.44" y="-64" type="line"/>
      <point x="2539.44" y="-100" type="line"/>
      <point x="582.441" y="-100" type="line" smooth="yes"/>
      <point x="500.441" y="-100"/>
      <point x="374.441" y="-76"/>
      <point x="294.441" y="-11"/>
      <point x="266.441" y="103"/>
      <point x="282.441" y="193" type="qcurve"/>
    </contour>
    <contour>
      <point x="1235.44" y="186" type="line"/>
      <point x="1235.44" y="186"/>
      <point x="1235.44" y="186"/>
      <point x="1235.44" y="186" type="qcurve"/>
      <point x="1830.44" y="186" type="line" smooth="yes"/>
      <point x="1874.44" y="186"/>
      <point x="1924.44" y="231"/>
      <point x="1932.44" y="276" type="qcurve" smooth="yes"/>
      <point x="2031.44" y="845" type="line"/>
      <point x="1350.44" y="845" type="line"/>
      <point x="1350.44" y="845"/>
      <point x="1350.44" y="845"/>
      <point x="1350.44" y="845" type="qcurve"/>
    </contour>
  </outline>
</glyph>
<glyph name="A" format="2">
  <advance width="2910" height="1448"/>
  <unicode hex="0041"/>
  <anchor x="1599" y="1550" name="top"/>
  <anchor x="1234" y="-150" name="bottom"/>
  <anchor x="2087" y="0" name="ogonek_in"/>
  <outline>
    <contour>
      <point x="-114" y="0" type="line"/>
      <point x="-62" y="0" type="line"/>
      <point x="312" y="338" type="line"/>
      <point x="1838" y="338" type="line"/>
      <point x="2087" y="0" type="line"/>
      <point x="2784" y="0" type="line"/>
      <point x="1722" y="1400" type="line"/>
      <point x="1436" y="1400" type="line"/>
    </contour>
    <contour>
      <point x="352" y="374" type="line"/>
      <point x="1229" y="1165" type="line"/>
      <point x="1812" y="374" type="line"/>
    </contour>
  </outline>
</glyph>
<glyph name="B" format="2">
  <advance width="3454"/>
  <unicode hex="0042"/>
  <anchor x="1732" y="1550" name="top"/>
  <anchor x="1732" y="-150" name="bottom"/>
  <outline>
    <contour>
      <point x="280" y="0" type="line"/>
      <point x="2600" y="0" type="line" smooth="yes"/>
      <point x="2710" y="0"/>
      <point x="2873" y="39"/>
      <point x="2988" y="122"/>
      <point x="3058" y="251"/>
      <point x="3074" y="342" type="qcurve" smooth="yes"/>
      <point x="3081" y="382" type="line" smooth="yes"/>
      <point x="3093" y="454"/>
      <point x="3082" y="570"/>
      <point x="3034" y="655"/>
      <point x="2951" y="710"/>
      <point x="2892" y="722" type="qcurve"/>
      <point x="2950" y="737"/>
      <point x="3040" y="791"/>
      <point x="3107" y="868"/>
      <point x="3151" y="970"/>
      <point x="3162" y="1034" type="qcurve" smooth="yes"/>
      <point x="3169" y="1074" type="line" smooth="yes"/>
      <point x="3184" y="1160"/>
      <point x="3158" y="1283"/>
      <point x="3071" y="1363"/>
      <point x="2921" y="1400"/>
      <point x="2812" y="1400" type="qcurve" smooth="yes"/>
      <point x="524" y="1400" type="line"/>
    </contour>
    <contour>
      <point x="858" y="36" type="line"/>
      <point x="974" y="700" type="line"/>
      <point x="2331" y="700" type="line" smooth="yes"/>
      <point x="2445" y="700"/>
      <point x="2544" y="590"/>
      <point x="2528" y="500" type="qcurve" smooth="yes"/>
      <point x="2482" y="236" type="line" smooth="yes"/>
      <point x="2474" y="191"/>
      <point x="2431" y="117"/>
      <point x="2364" y="65"/>
      <point x="2272" y="36"/>
      <point x="2215" y="36" type="qcurve" smooth="yes"/>
    </contour>
    <contour>
      <point x="980" y="736" type="line"/>
      <point x="1090" y="1364" type="line"/>
      <point x="2415" y="1364" type="line" smooth="yes"/>
      <point x="2472" y="1364"/>
      <point x="2554" y="1335"/>
      <point x="2603" y="1283"/>
      <point x="2620" y="1209"/>
      <point x="2612" y="1164" type="qcurve" smooth="yes"/>
      <point x="2572" y="936" type="line" smooth="yes"/>
      <point x="2564" y="891"/>
      <point x="2521" y="817"/>
      <point x="2454" y="765"/>
      <point x="2362" y="736"/>
      <point x="2305" y="736" type="qcurve" smooth="yes"/>
    </contour>
  </outline>
</glyph>
<glyph name="C" format="2">
  <advance width="3100.1" height="1448"/>
  <unicode hex="0043"/>
  <anchor x="1722" y="1550" name="top"/>
  <anchor x="1425" y="-150" name="bottom"/>
  <outline>
    <contour>
      <point x="435.107" y="1066" type="line"/>
      <point x="309.107" y="346" type="line" smooth="yes"/>
      <point x="291.107" y="243"/>
      <point x="323.107" y="109"/>
      <point x="414.107" y="31"/>
      <point x="562.107" y="0"/>
      <point x="661.107" y="0" type="qcurve" smooth="yes"/>
      <point x="2237.11" y="0" type="line" smooth="yes"/>
      <point x="2336.11" y="0"/>
      <point x="2495.11" y="31"/>
      <point x="2615.11" y="109"/>
      <point x="2693.11" y="243"/>
      <point x="2711.11" y="346" type="qcurve" smooth="yes"/>
      <point x="2743.11" y="528" type="line"/>
      <point x="2191.11" y="640" type="line"/>
      <point x="2085.11" y="36" type="line"/>
      <point x="2085.11" y="36"/>
      <point x="2085.11" y="36"/>
      <point x="2085.11" y="36"/>
      <point x="2085.11" y="36"/>
      <point x="2085.11" y="36" type="qcurve"/>
      <point x="827.107" y="36" type="line"/>
      <point x="827.107" y="36"/>
      <point x="827.107" y="36"/>
      <point x="827.107" y="36"/>
      <point x="827.107" y="36"/>
      <point x="827.107" y="36" type="qcurve"/>
      <point x="1059.11" y="1364" type="line"/>
      <point x="1059.11" y="1364"/>
      <point x="1059.11" y="1364"/>
      <point x="1059.11" y="1364"/>
      <point x="1059.11" y="1364"/>
      <point x="1059.11" y="1364" type="qcurve"/>
      <point x="2311.11" y="1364" type="line"/>
      <point x="2311.11" y="1364"/>
      <point x="2311.11" y="1364"/>
      <point x="2311.11" y="1364"/>
      <point x="2311.11" y="1364"/>
      <point x="2311.11" y="1364" type="qcurve"/>
      <point x="2210.11" y="786" type="line"/>
      <point x="2801.11" y="892" type="line"/>
      <point x="2831.11" y="1066" type="line" smooth="yes"/>
      <point x="2849.11" y="1167"/>
      <point x="2813.11" y="1296"/>
      <point x="2718.11" y="1371"/>
      <point x="2570.11" y="1400"/>
      <point x="2475.11" y="1400" type="qcurve" smooth="yes"/>
      <point x="905.107" y="1400" type="line" smooth="yes"/>
      <point x="811.107" y="1400"/>
      <point x="653.107" y="1371"/>
      <point x="533.107" y="1296"/>
      <point x="453.107" y="1167"/>
      <point x="435.107" y="1066" type="qcurve"/>
    </contour>
  </outline>
</glyph>
<glyph name="D" format="2">
  <advance width="3202"/>
  <unicode hex="0044"/>
  <anchor x="1605" y="1550" name="top"/>
  <anchor x="1306" y="-150" name="bottom"/>
  <outline>
    <contour>
      <point x="857.982" y="36" type="line"/>
      <point x="1648.98" y="36" type="line" smooth="yes"/>
      <point x="1754.98" y="36"/>
      <point x="1931.74" y="69"/>
      <point x="2076.13" y="140"/>
      <point x="2190.15" y="249"/>
      <point x="2278.5" y="400"/>
      <point x="2341.53" y="595"/>
      <point x="2362.64" y="716" type="qcurve" smooth="yes"/>
      <point x="2383.41" y="835"/>
      <point x="2386.39" y="1024"/>
      <point x="2349.52" y="1168"/>
      <point x="2271.31" y="1270"/>
      <point x="2149.48" y="1334"/>
      <point x="1985.72" y="1364"/>
      <point x="1880.72" y="1364" type="qcurve" smooth="yes"/>
      <point x="1089.72" y="1364" type="line"/>
    </contour>
    <contour>
      <point x="279.7" y="0" type="line"/>
      <point x="524" y="1400" type="line"/>
      <point x="2120" y="1400" type="line" smooth="yes"/>
      <point x="2285" y="1400"/>
      <point x="2542.62" y="1352"/>
      <point x="2731.74" y="1261"/>
      <point x="2857.54" y="1128"/>
      <point x="2923.87" y="958"/>
      <point x="2934.1" y="753"/>
      <point x="2913.51" y="635" type="qcurve" smooth="yes"/>
      <point x="2891.69" y="510"/>
      <point x="2805.19" y="318"/>
      <point x="2675.59" y="177"/>
      <point x="2503.01" y="82"/>
      <point x="2286.89" y="24"/>
      <point x="2027.7" y="0"/>
      <point x="1875.7" y="0" type="qcurve" smooth="yes"/>
    </contour>
  </outline>
  <guideline x="945170"/>
</glyph>
<glyph name="E" format="2">
  <advance width="2750"/>
  <unicode hex="0045"/>
  <anchor x="1721" y="1550" name="top"/>
  <anchor x="1424" y="-150" name="bottom"/>
  <anchor x="2091" y="0" name="ogonek"/>
  <outline>
    <contour>
      <point x="280" y="0" type="line"/>
      <point x="524" y="1400" type="line"/>
      <point x="2830" y="1400" type="line"/>
      <point x="2824" y="1364" type="line"/>
      <point x="1090" y="1364" type="line"/>
      <point x="980" y="736" type="line"/>
      <point x="2062" y="736" type="line"/>
      <point x="2056" y="700" type="line"/>
      <point x="974" y="700" type="line"/>
      <point x="858" y="36" type="line"/>
      <point x="2626" y="36" type="line"/>
      <point x="2620" y="0" type="line"/>
    </contour>
  </outline>
  <guideline x="-130"/>
</glyph>
<glyph name="F" format="2">
  <advance width="2691.14"/>
  <unicode hex="0046"/>
  <outline>
    <contour>
      <point x="280" y="0" type="line"/>
      <point x="524" y="1400" type="line"/>
      <point x="2808" y="1400" type="line"/>
      <point x="2802" y="1364" type="line"/>
      <point x="1090" y="1364" type="line"/>
      <point x="980" y="734" type="line"/>
      <point x="2038" y="734" type="line"/>
      <point x="2032" y="698" type="line"/>
      <point x="974" y="698" type="line"/>
      <point x="852" y="0" type="line"/>
    </contour>
  </outline>
</glyph>
<glyph name="H" format="2">
  <advance width="3404" height="1448"/>
  <unicode hex="0048"/>
  <anchor x="1853" y="1550" name="top"/>
  <anchor x="1556" y="-150" name="bottom"/>
  <anchor x="302" y="700" name="left"/>
  <outline>
    <contour>
      <point x="280" y="0" type="line"/>
      <point x="852" y="0" type="line"/>
      <point x="976" y="710" type="line"/>
      <point x="2436" y="710" type="line"/>
      <point x="2312" y="0" type="line"/>
      <point x="2884" y="0" type="line"/>
      <point x="3128" y="1400" type="line"/>
      <point x="2556" y="1400" type="line"/>
      <point x="2442" y="746" type="line"/>
      <point x="982" y="746" type="line"/>
      <point x="1096" y="1400" type="line"/>
      <point x="524" y="1400" type="line"/>
    </contour>
  </outline>
  <guideline x="1582" y="0" angle="260.102" color="1,0,0,1"/>
</glyph>
<glyph name="J" format="2">
  <advance width="2965.11" height="1448"/>
  <unicode hex="004A"/>
  <anchor x="2446" y="1550" name="top"/>
  <anchor x="1277" y="-150" name="bottom"/>
  <outline>
    <contour>
      <point x="2705" y="1400" type="line"/>
      <point x="2133" y="1400" type="line"/>
      <point x="1895" y="36" type="line"/>
      <point x="1895" y="36"/>
      <point x="1895" y="36"/>
      <point x="1895" y="36"/>
      <point x="1895" y="36"/>
      <point x="1895" y="36" type="qcurve"/>
      <point x="643" y="36" type="line"/>
      <point x="643" y="36"/>
      <point x="643" y="36"/>
      <point x="643" y="36"/>
      <point x="643" y="36"/>
      <point x="643" y="36" type="qcurve"/>
      <point x="766" y="740" type="line"/>
      <point x="176" y="634" type="line"/>
      <point x="123" y="334" type="line" smooth="yes"/>
      <point x="106" y="234"/>
      <point x="142" y="104"/>
      <point x="237" y="29"/>
      <point x="385" y="0"/>
      <point x="479" y="0" type="qcurve" smooth="yes"/>
      <point x="2049" y="0" type="line" smooth="yes"/>
      <point x="2144" y="0"/>
      <point x="2301" y="29"/>
      <point x="2421" y="104"/>
      <point x="2502" y="234"/>
      <point x="2519" y="334" type="qcurve" smooth="yes"/>
    </contour>
  </outline>
</glyph>
<glyph name="L" format="2">
  <advance width="2749.65"/>
  <unicode hex="004C"/>
  <anchor x="837" y="1550" name="top"/>
  <anchor x="1216" y="-150" name="bottom"/>
  <anchor x="302" y="700" name="left"/>
  <anchor x="2086" y="1400" name="right"/>
  <anchor x="2063" y="700" name="eldot"/>
  <outline>
    <contour>
      <point x="280" y="0" type="line"/>
      <point x="524" y="1400" type="line"/>
      <point x="1096" y="1400" type="line"/>
      <point x="858" y="36" type="line"/>
      <point x="2626" y="36" type="line"/>
      <point x="2620" y="0" type="line"/>
    </contour>
  </outline>
</glyph>
<glyph name="M" format="2">
  <advance width="3318"/>
  <unicode hex="004D"/>
  <anchor x="1811" y="1550" name="top"/>
  <anchor x="1514" y="-150" name="bottom"/>
  <outline>
    <contour>
      <point x="280" y="0" type="line"/>
      <point x="318" y="0" type="line"/>
      <point x="497" y="1027" type="line"/>
      <point x="1349" y="176" type="line"/>
      <point x="2405" y="1027" type="line"/>
      <point x="2226" y="0" type="line"/>
      <point x="2798" y="0" type="line"/>
      <point x="3042" y="1400" type="line"/>
      <point x="2815" y="1400" type="line"/>
      <point x="1753" y="545" type="line"/>
      <point x="896" y="1400" type="line"/>
      <point x="524" y="1400" type="line"/>
    </contour>
  </outline>
</glyph>
<glyph name="N" format="2">
  <advance width="3148"/>
  <unicode hex="004E"/>
  <anchor x="1725" y="1550" name="top"/>
  <anchor x="1428" y="-150" name="bottom"/>
  <outline>
    <contour>
      <point x="280" y="0" type="line"/>
      <point x="316" y="0" type="line"/>
      <point x="463" y="843" type="line"/>
      <point x="2452" y="0" type="line"/>
      <point x="2628" y="0" type="line"/>
      <point x="2872" y="1400" type="line"/>
      <point x="2836" y="1400" type="line"/>
      <point x="2689" y="557" type="line"/>
      <point x="700" y="1400" type="line"/>
      <point x="524" y="1400" type="line"/>
    </contour>
  </outline>
</glyph>
<glyph name="P" format="2">
  <advance width="3386"/>
  <unicode hex="0050"/>
  <outline>
    <contour>
      <point x="280" y="0" type="line"/>
      <point x="852" y="0" type="line"/>
      <point x="935" y="476" type="line"/>
      <point x="2667" y="476" type="line" smooth="yes"/>
      <point x="2762" y="476"/>
      <point x="2920" y="505"/>
      <point x="3041" y="580"/>
      <point x="3122" y="710"/>
      <point x="3139" y="810" type="qcurve" smooth="yes"/>
      <point x="3184" y="1066" type="line" smooth="yes"/>
      <point x="3202" y="1167"/>
      <point x="3166" y="1296"/>
      <point x="3071" y="1371"/>
      <point x="2923" y="1400"/>
      <point x="2828" y="1400" type="qcurve" smooth="yes"/>
      <point x="524" y="1400" type="line"/>
    </contour>
    <contour>
      <point x="941" y="512" type="line"/>
      <point x="1090" y="1364" type="line"/>
      <point x="2432" y="1364" type="line" smooth="yes"/>
      <point x="2489" y="1364"/>
      <point x="2571" y="1335"/>
      <point x="2620" y="1283"/>
      <point x="2637" y="1209"/>
      <point x="2629" y="1164" type="qcurve" smooth="yes"/>
      <point x="2550" y="712" type="line" smooth="yes"/>
      <point x="2542" y="667"/>
      <point x="2499" y="593"/>
      <point x="2432" y="541"/>
      <point x="2340" y="512"/>
      <point x="2283" y="512" type="qcurve" smooth="yes"/>
    </contour>
  </outline>
  <guideline x="1693" name="halfwidth" color="0.4,0.4,0.4,1"/>
</glyph>
<glyph name="R" format="2">
  <advance width="3418"/>
  <unicode hex="0052"/>
  <anchor x="1709" y="-150" name="bottom"/>
  <anchor x="1709" y="1550" name="top"/>
  <outline>
    <contour>
      <point x="280" y="0" type="line"/>
      <point x="852" y="0" type="line"/>
      <point x="939" y="498" type="line"/>
      <point x="1566" y="498" type="line"/>
      <point x="2224" y="0" type="line"/>
      <point x="3048" y="0" type="line"/>
      <point x="2303" y="498" type="line"/>
      <point x="2669" y="498" type="line" smooth="yes"/>
      <point x="2764" y="498"/>
      <point x="2921" y="527"/>
      <point x="3042" y="602"/>
      <point x="3123" y="732"/>
      <point x="3141" y="832" type="qcurve" smooth="yes"/>
      <point x="3182" y="1066" type="line" smooth="yes"/>
      <point x="3200" y="1167"/>
      <point x="3164" y="1296"/>
      <point x="3069" y="1371"/>
      <point x="2921" y="1400"/>
      <point x="2826" y="1400" type="qcurve" smooth="yes"/>
      <point x="524" y="1400" type="line"/>
    </contour>
    <contour>
      <point x="945" y="534" type="line"/>
      <point x="1090" y="1364" type="line"/>
      <point x="2430" y="1364" type="line" smooth="yes"/>
      <point x="2487" y="1364"/>
      <point x="2569" y="1335"/>
      <point x="2618" y="1283"/>
      <point x="2635" y="1209"/>
      <point x="2627" y="1164" type="qcurve" smooth="yes"/>
      <point x="2552" y="734" type="line" smooth="yes"/>
      <point x="2544" y="689"/>
      <point x="2501" y="615"/>
      <point x="2434" y="563"/>
      <point x="2342" y="534"/>
      <point x="2285" y="534" type="qcurve" smooth="yes"/>
    </contour>
  </outline>
</glyph>
<glyph name="S" format="2">
  <advance width="3090.79"/>
  <unicode hex="0053"/>
  <anchor x="1691" y="1550" name="top"/>
  <anchor x="1394" y="-150" name="bottom"/>
  <outline>
    <contour>
      <point x="259.446" y="410" type="line"/>
      <point x="814.446" y="462" type="line"/>
      <point x="739.446" y="36" type="line"/>
      <point x="739.446" y="36"/>
      <point x="739.446" y="36"/>
      <point x="739.446" y="36"/>
      <point x="739.446" y="36"/>
      <point x="739.446" y="36" type="qcurve"/>
      <point x="2111.45" y="36" type="line"/>
      <point x="2111.45" y="36"/>
      <point x="2111.45" y="36"/>
      <point x="2111.45" y="36"/>
      <point x="2111.45" y="36"/>
      <point x="2111.45" y="36" type="qcurve"/>
      <point x="2225.45" y="690" type="line"/>
      <point x="2225.45" y="690"/>
      <point x="2225.45" y="690"/>
      <point x="2225.45" y="690"/>
      <point x="2225.45" y="690"/>
      <point x="2225.45" y="690" type="qcurve"/>
      <point x="745.446" y="690" type="line" smooth="yes"/>
      <point x="650.446" y="690"/>
      <point x="503.446" y="718"/>
      <point x="411.446" y="794"/>
      <point x="379.446" y="928"/>
      <point x="397.446" y="1034" type="qcurve" smooth="yes"/>
      <point x="403.446" y="1068" type="line" smooth="yes"/>
      <point x="421.446" y="1172"/>
      <point x="505.446" y="1301"/>
      <point x="628.446" y="1374"/>
      <point x="786.446" y="1400"/>
      <point x="877.446" y="1400" type="qcurve" smooth="yes"/>
      <point x="2465.45" y="1400" type="line" smooth="yes"/>
      <point x="2557.45" y="1400"/>
      <point x="2703.45" y="1375"/>
      <point x="2799.45" y="1303"/>
      <point x="2836.45" y="1175"/>
      <point x="2818.45" y="1072" type="qcurve" smooth="yes"/>
      <point x="2807.45" y="1008" type="line"/>
      <point x="2252.45" y="958" type="line"/>
      <point x="2323.45" y="1364" type="line"/>
      <point x="2323.45" y="1364"/>
      <point x="2323.45" y="1364"/>
      <point x="2323.45" y="1364"/>
      <point x="2323.45" y="1364"/>
      <point x="2323.45" y="1364" type="qcurve"/>
      <point x="1001.45" y="1364" type="line"/>
      <point x="1001.45" y="1364"/>
      <point x="1001.45" y="1364"/>
      <point x="1001.45" y="1364"/>
      <point x="1001.45" y="1364"/>
      <point x="1001.45" y="1364" type="qcurve"/>
      <point x="890.446" y="726" type="line"/>
      <point x="890.446" y="726"/>
      <point x="890.446" y="726"/>
      <point x="890.446" y="726"/>
      <point x="890.446" y="726"/>
      <point x="890.446" y="726" type="qcurve"/>
      <point x="2366.45" y="726" type="line" smooth="yes"/>
      <point x="2458.45" y="726"/>
      <point x="2605.45" y="701"/>
      <point x="2701.45" y="630"/>
      <point x="2738.45" y="502"/>
      <point x="2720.45" y="398" type="qcurve" smooth="yes"/>
      <point x="2711.45" y="344" type="line" smooth="yes"/>
      <point x="2692.45" y="238"/>
      <point x="2612.45" y="103"/>
      <point x="2492.45" y="28"/>
      <point x="2335.45" y="0"/>
      <point x="2239.45" y="0" type="qcurve" smooth="yes"/>
      <point x="597.446" y="0" type="line" smooth="yes"/>
      <point x="502.446" y="0"/>
      <point x="355.446" y="28"/>
      <point x="262.446" y="103"/>
      <point x="228.446" y="236"/>
      <point x="247.446" y="342" type="qcurve" smooth="yes"/>
    </contour>
  </outline>
</glyph>
<glyph name="T" format="2">
  <advance width="2680"/>
  <unicode hex="0054"/>
  <anchor x="1494" y="1550" name="top"/>
  <anchor x="1197" y="-150" name="bottom"/>
  <outline>
    <contour>
      <point x="936.858" y="0" type="line"/>
      <point x="1508.86" y="0" type="line"/>
      <point x="1746.86" y="1364" type="line"/>
      <point x="2790.86" y="1364" type="line"/>
      <point x="2796.86" y="1400" type="line"/>
      <point x="136.858" y="1400" type="line"/>
      <point x="130.858" y="1364" type="line"/>
      <point x="1174.86" y="1364" type="line"/>
    </contour>
  </outline>
</glyph>
<glyph name="U" format="2">
  <advance width="3354.52"/>
  <unicode hex="0055"/>
  <anchor x="1829" y="1550" name="top"/>
  <anchor x="1532" y="-150" name="bottom"/>
  <anchor x="1578" y="0" name="ogonek"/>
  <anchor x="3094" y="1400" name="horn"/>
  <outline>
    <contour>
      <point x="509" y="1400" type="line"/>
      <point x="1081" y="1400" type="line"/>
      <point x="843" y="36" type="line"/>
      <point x="843" y="36"/>
      <point x="843" y="36"/>
      <point x="843" y="36"/>
      <point x="843" y="36"/>
      <point x="843" y="36" type="qcurve"/>
      <point x="2284" y="36" type="line"/>
      <point x="2284" y="36"/>
      <point x="2284" y="36"/>
      <point x="2284" y="36"/>
      <point x="2284" y="36"/>
      <point x="2284" y="36" type="qcurve"/>
      <point x="2522" y="1400" type="line"/>
      <point x="3094" y="1400" type="line"/>
      <point x="2910" y="343" type="line" smooth="yes"/>
      <point x="2891" y="237"/>
      <point x="2811" y="103"/>
      <point x="2692" y="28"/>
      <point x="2534" y="0"/>
      <point x="2438" y="0" type="qcurve" smooth="yes"/>
      <point x="675" y="0" type="line" smooth="yes"/>
      <point x="580" y="0"/>
      <point x="433" y="28"/>
      <point x="340" y="103"/>
      <point x="306" y="237"/>
      <point x="325" y="343" type="qcurve" smooth="yes"/>
    </contour>
  </outline>
</glyph>
<glyph name="V" format="2">
  <advance width="2636"/>
  <unicode hex="0056"/>
  <anchor x="1517" y="1550" name="top"/>
  <anchor x="1200" y="-150" name="bottom"/>
  <outline>
    <contour>
      <point x="133" y="1400" type="line"/>
      <point x="871" y="1400" type="line"/>
      <point x="1604" y="283" type="line"/>
      <point x="2709" y="1400" type="line"/>
      <point x="2757" y="1400" type="line"/>
      <point x="1369" y="0" type="line"/>
      <point x="1083" y="0" type="line"/>
    </contour>
  </outline>
</glyph>
<glyph name="W" format="2">
  <advance width="3414"/>
  <unicode hex="0057"/>
  <anchor x="1707" y="-150" name="bottom"/>
  <anchor x="2138" y="1550" name="top"/>
  <outline>
    <contour>
      <point x="132.858" y="1400" type="line"/>
      <point x="682.858" y="0" type="line"/>
      <point x="977.858" y="0" type="line"/>
      <point x="1788.86" y="1121" type="line"/>
      <point x="2186.86" y="0" type="line"/>
      <point x="2497.86" y="0" type="line"/>
      <point x="3534.86" y="1400" type="line"/>
      <point x="3493.86" y="1400" type="line"/>
      <point x="2705.86" y="336" type="line"/>
      <point x="2350.86" y="1400" type="line"/>
      <point x="1948.86" y="1400" type="line"/>
      <point x="1179.86" y="336" type="line"/>
      <point x="804.858" y="1400" type="line"/>
    </contour>
  </outline>
</glyph>
<glyph name="X" format="2">
  <advance width="2817"/>
  <unicode hex="0058"/>
  <anchor x="1561" y="1550" name="top"/>
  <anchor x="1264" y="-150" name="bottom"/>
  <outline>
    <contour>
      <point x="-25.1422" y="0" type="line"/>
      <point x="45.8578" y="0" type="line"/>
      <point x="1149.86" y="582" type="line"/>
      <point x="1829.86" y="0" type="line"/>
      <point x="2690.86" y="0" type="line"/>
      <point x="1653.86" y="841" type="line"/>
      <point x="2677.86" y="1400" type="line"/>
      <point x="2608.86" y="1400" type="line"/>
      <point x="1624.86" y="863" type="line"/>
      <point x="988.858" y="1400" type="line"/>
      <point x="132.858" y="1400" type="line"/>
      <point x="1119.86" y="604" type="line"/>
    </contour>
  </outline>
</glyph>
<glyph name="Y" format="2">
  <advance width="2706"/>
  <unicode hex="0059"/>
  <anchor x="1624" y="1550" name="top"/>
  <anchor x="1317" y="-150" name="bottom"/>
  <outline>
    <contour>
      <point x="1056.86" y="0" type="line"/>
      <point x="1628.86" y="0" type="line"/>
      <point x="1740.86" y="641" type="line"/>
      <point x="2826.86" y="1400" type="line"/>
      <point x="2768.86" y="1400" type="line"/>
      <point x="1731.86" y="674" type="line"/>
      <point x="961.858" y="1400" type="line"/>
      <point x="132.858" y="1400" type="line"/>
      <point x="1138.86" y="472" type="line"/>
    </contour>
  </outline>
  <guideline x="1236" y="0" angle="260.106" color="1,0,0,1"/>
</glyph>
<glyph name="Z" format="2">
  <advance width="2461"/>
  <unicode hex="005A"/>
  <anchor x="1231" y="1550" name="top"/>
  <anchor x="1231" y="-150" name="bottom"/>
  <outline>
    <contour>
      <point x="-109.826" y="0" type="line"/>
      <point x="2331.17" y="0" type="line"/>
      <point x="2337.17" y="36" type="line"/>
      <point x="766.174" y="36" type="line"/>
      <point x="2560.17" y="1382" type="line"/>
      <point x="2563.17" y="1400" type="line"/>
      <point x="228.174" y="1400" type="line"/>
      <point x="220.174" y="1364" type="line"/>
      <point x="1687.17" y="1364" type="line"/>
      <point x="-106.826" y="18" type="line"/>
    </contour>
  </outline>
</glyph>
<glyph name="bracketleft" format="2">
  <advance width="1492"/>
  <unicode hex="005B"/>
  <outline>
    <contour>
      <point x="234.464" y="-256" type="line"/>
      <point x="532.464" y="1448" type="line"/>
      <point x="1424.46" y="1448" type="line"/>
      <point x="1418.46" y="1416" type="line"/>
      <point x="966.464" y="1416" type="line"/>
      <point x="680.464" y="-224" type="line"/>
      <point x="1132.46" y="-224" type="line"/>
      <point x="1126.46" y="-256" type="line"/>
    </contour>
  </outline>
</glyph>
<glyph name="backslash" format="2">
  <advance width="1863"/>
  <unicode hex="005C"/>
  <outline>
    <contour>
      <point x="755.862" y="1430" type="line"/>
      <point x="310.862" y="1430" type="line"/>
      <point x="1100.86" y="-100" type="line"/>
      <point x="1545.86" y="-100" type="line"/>
    </contour>
  </outline>
</glyph>
<glyph name="asciicircum" format="2">
  <advance width="1771"/>
  <unicode hex="005E"/>
  <outline>
    <contour>
      <point x="46" y="850" type="line"/>
      <point x="713" y="1400" type="line"/>
      <point x="1258" y="1400" type="line"/>
      <point x="1785" y="850" type="line"/>
      <point x="1188" y="850" type="line"/>
      <point x="736" y="1380" type="line"/>
      <point x="98" y="850" type="line"/>
    </contour>
  </outline>
</glyph>
<glyph name="b" format="2">
  <advance width="2635" height="-1448"/>
  <unicode hex="0062"/>
  <anchor x="1489" y="1598" name="top"/>
  <anchor x="1184" y="-150" name="bottom"/>
  <outline>
    <contour>
      <point x="200" y="0" type="line"/>
      <point x="724" y="0" type="line"/>
      <point x="729" y="28" type="line"/>
      <point x="737" y="14"/>
      <point x="773" y="0"/>
      <point x="800" y="0" type="qcurve" smooth="yes"/>
      <point x="1914" y="0" type="line" smooth="yes"/>
      <point x="1994" y="0"/>
      <point x="2115" y="31"/>
      <point x="2202" y="95"/>
      <point x="2254" y="195"/>
      <point x="2266" y="264" type="qcurve" smooth="yes"/>
      <point x="2354" y="770" type="line"/>
      <point x="2366" y="835"/>
      <point x="2346" y="931"/>
      <point x="2282" y="994"/>
      <point x="2173" y="1024"/>
      <point x="2093" y="1024" type="qcurve" smooth="yes"/>
      <point x="979" y="1024" type="line" smooth="yes"/>
      <point x="947" y="1024"/>
      <point x="907" y="1012"/>
      <point x="899" y="1000" type="qcurve"/>
      <point x="981" y="1472" type="line"/>
      <point x="457" y="1472" type="line"/>
    </contour>
    <contour>
      <point x="730" y="32" type="line"/>
      <point x="897" y="992" type="line"/>
      <point x="1869" y="992" type="line"/>
      <point x="1869" y="992"/>
      <point x="1869" y="992"/>
      <point x="1869" y="992" type="qcurve"/>
      <point x="1702" y="32" type="line"/>
      <point x="1702" y="32"/>
      <point x="1702" y="32"/>
      <point x="1702" y="32" type="qcurve"/>
    </contour>
  </outline>
  <guideline y="988"/>
  <guideline y="36"/>
</glyph>
<glyph name="c" format="2">
  <advance width="2430"/>
  <unicode hex="0063"/>
  <anchor x="1336" y="1174" name="top"/>
  <anchor x="1105" y="-150" name="bottom"/>
  <outline>
    <contour>
      <point x="221.862" y="270" type="line"/>
      <point x="307.862" y="764" type="line" smooth="yes"/>
      <point x="319.862" y="834"/>
      <point x="373.862" y="932"/>
      <point x="463.862" y="995"/>
      <point x="592.862" y="1024"/>
      <point x="679.862" y="1024" type="qcurve" smooth="yes"/>
      <point x="1937.86" y="1024" type="line" smooth="yes"/>
      <point x="2024.86" y="1024"/>
      <point x="2141.86" y="996"/>
      <point x="2208.86" y="934"/>
      <point x="2226.86" y="837"/>
      <point x="2214.86" y="768" type="qcurve" smooth="yes"/>
      <point x="2193.86" y="650" type="line"/>
      <point x="1652.86" y="552" type="line"/>
      <point x="1729.86" y="992" type="line"/>
      <point x="1729.86" y="992"/>
      <point x="1729.86" y="992"/>
      <point x="1729.86" y="992" type="qcurve"/>
      <point x="871.862" y="992" type="line"/>
      <point x="871.862" y="992"/>
      <point x="871.862" y="992"/>
      <point x="871.862" y="992" type="qcurve"/>
      <point x="704.862" y="32" type="line"/>
      <point x="704.862" y="32"/>
      <point x="704.862" y="32"/>
      <point x="704.862" y="32" type="qcurve"/>
      <point x="1566.86" y="32" type="line"/>
      <point x="1566.86" y="32"/>
      <point x="1566.86" y="32"/>
      <point x="1566.86" y="32" type="qcurve"/>
      <point x="1643.86" y="474" type="line"/>
      <point x="2148.86" y="366" type="line"/>
      <point x="2131.86" y="270" type="line" smooth="yes"/>
      <point x="2118.86" y="197"/>
      <point x="2066.86" y="95"/>
      <point x="1977.86" y="30"/>
      <point x="1849.86" y="0"/>
      <point x="1760.86" y="0" type="qcurve" smooth="yes"/>
      <point x="498.862" y="0" type="line" smooth="yes"/>
      <point x="410.862" y="0"/>
      <point x="291.862" y="30"/>
      <point x="225.862" y="95"/>
      <point x="208.862" y="197"/>
      <point x="221.862" y="270" type="qcurve"/>
    </contour>
  </outline>
</glyph>
<glyph name="d" format="2">
  <advance width="2634.91" height="1448"/>
  <unicode hex="0064"/>
  <anchor x="1464" y="1598" name="top"/>
  <anchor x="1159" y="-150" name="bottom"/>
  <anchor x="2452" y="1472" name="right"/>
  <outline>
    <contour>
      <point x="220.914" y="264" type="line"/>
      <point x="308.914" y="770" type="line" smooth="yes"/>
      <point x="320.914" y="835"/>
      <point x="373.914" y="931"/>
      <point x="459.914" y="994"/>
      <point x="580.914" y="1024"/>
      <point x="659.914" y="1024" type="qcurve" smooth="yes"/>
      <point x="1773.91" y="1024" type="line" smooth="yes"/>
      <point x="1805.91" y="1024"/>
      <point x="1840.91" y="1012"/>
      <point x="1845.91" y="1000" type="qcurve"/>
      <point x="1927.91" y="1472" type="line"/>
      <point x="2451.91" y="1472" type="line"/>
      <point x="2194.91" y="0" type="line"/>
      <point x="1670.91" y="0" type="line"/>
      <point x="1675.91" y="28" type="line"/>
      <point x="1662.91" y="14"/>
      <point x="1621.91" y="0"/>
      <point x="1594.91" y="0" type="qcurve" smooth="yes"/>
      <point x="480.914" y="0" type="line" smooth="yes"/>
      <point x="400.914" y="0"/>
      <point x="289.914" y="31"/>
      <point x="226.914" y="95"/>
      <point x="208.914" y="195"/>
      <point x="220.914" y="264" type="qcurve"/>
    </contour>
    <contour>
      <point x="1843.91" y="992" type="line"/>
      <point x="871.914" y="992" type="line"/>
      <point x="871.914" y="992"/>
      <point x="871.914" y="992"/>
      <point x="871.914" y="992" type="qcurve"/>
      <point x="704.914" y="32" type="line"/>
      <point x="704.914" y="32"/>
      <point x="704.914" y="32"/>
      <point x="704.914" y="32" type="qcurve"/>
      <point x="1676.91" y="32" type="line"/>
    </contour>
  </outline>
</glyph>
<glyph name="h" format="2">
  <advance width="2519.7" height="1448"/>
  <unicode hex="0068"/>
  <anchor x="745" y="1622" name="top"/>
  <anchor x="1120" y="-150" name="bottom"/>
  <anchor x="189" y="512" name="left"/>
  <outline>
    <contour>
      <point x="199.695" y="0" type="line"/>
      <point x="456.695" y="1472" type="line"/>
      <point x="980.695" y="1472" type="line"/>
      <point x="897.695" y="996" type="line"/>
      <point x="910.695" y="1010"/>
      <point x="951.695" y="1024"/>
      <point x="978.695" y="1024" type="qcurve" smooth="yes"/>
      <point x="1904.7" y="1024" type="line" smooth="yes"/>
      <point x="2002.7" y="1024"/>
      <point x="2134.7" y="988"/>
      <point x="2209.7" y="914"/>
      <point x="2231.7" y="801"/>
      <point x="2217.7" y="724" type="qcurve" smooth="yes"/>
      <point x="2091.7" y="0" type="line"/>
      <point x="1567.7" y="0" type="line"/>
      <point x="1740.7" y="992" type="line"/>
      <point x="1740.7" y="992"/>
      <point x="1740.7" y="992"/>
      <point x="1740.7" y="992" type="qcurve"/>
      <point x="896.695" y="992" type="line"/>
      <point x="723.695" y="0" type="line"/>
    </contour>
  </outline>
  <guideline angle="0" x="0" y="988"/>
  <guideline angle="0" x="0" y="870"/>
</glyph>
<glyph name="k" format="2">
  <advance width="2797" height="1448"/>
  <unicode hex="006B"/>
  <anchor x="541" y="1598" name="top"/>
  <anchor x="1156" y="-150" name="bottom"/>
  <anchor x="228" y="736" name="left"/>
  <outline>
    <contour>
      <point x="199.696" y="0" type="line"/>
      <point x="723.696" y="0" type="line"/>
      <point x="819.696" y="549" type="line"/>
      <point x="1738.7" y="0" type="line"/>
      <point x="2660.7" y="0" type="line"/>
      <point x="1384.7" y="730" type="line"/>
      <point x="2567.7" y="1024" type="line"/>
      <point x="2437.7" y="1024" type="line"/>
      <point x="831.696" y="620" type="line"/>
      <point x="980.696" y="1472" type="line"/>
      <point x="456.696" y="1472" type="line"/>
    </contour>
  </outline>
</glyph>
<glyph name="l" format="2">
  <advance width="1164" height="1448"/>
  <unicode hex="006C"/>
  <anchor x="741" y="1598" name="top"/>
  <anchor x="436" y="-150" name="bottom"/>
  <anchor x="981" y="1472" name="right"/>
  <anchor x="1166" y="700" name="eldot"/>
  <outline>
    <contour>
      <point x="199.696" y="0" type="line"/>
      <point x="723.696" y="0" type="line"/>
      <point x="980.696" y="1472" type="line"/>
      <point x="456.696" y="1472" type="line"/>
    </contour>
  </outline>
</glyph>
<glyph name="m" format="2">
  <advance width="3407" height="1448"/>
  <unicode hex="006D"/>
  <anchor x="1704" y="1174" name="top"/>
  <anchor x="1704" y="-150" name="bottom"/>
  <anchor x="188" y="512" name="left"/>
  <outline>
    <contour>
      <point x="199" y="0" type="line"/>
      <point x="723" y="0" type="line"/>
      <point x="896" y="992" type="line"/>
      <point x="1500" y="992" type="line"/>
      <point x="1327" y="0" type="line"/>
      <point x="1851" y="0" type="line"/>
      <point x="2024" y="992" type="line"/>
      <point x="2628" y="992" type="line"/>
      <point x="2628" y="992"/>
      <point x="2628" y="992"/>
      <point x="2628" y="992" type="qcurve"/>
      <point x="2455" y="0" type="line"/>
      <point x="2979" y="0" type="line"/>
      <point x="3105" y="724" type="line" smooth="yes"/>
      <point x="3119" y="801"/>
      <point x="3097" y="914"/>
      <point x="3022" y="988"/>
      <point x="2890" y="1024"/>
      <point x="2792" y="1024" type="qcurve" smooth="yes"/>
      <point x="2022" y="1024" type="line" smooth="yes"/>
      <point x="2009" y="1024"/>
      <point x="1985" y="1020"/>
      <point x="1965" y="1013"/>
      <point x="1948" y="1003"/>
      <point x="1942" y="997" type="qcurve"/>
      <point x="1923" y="1004"/>
      <point x="1880" y="1014"/>
      <point x="1832" y="1021"/>
      <point x="1778" y="1024"/>
      <point x="1748" y="1024" type="qcurve" smooth="yes"/>
      <point x="978" y="1024" type="line" smooth="yes"/>
      <point x="951" y="1024"/>
      <point x="910" y="1010"/>
      <point x="897" y="996" type="qcurve"/>
      <point x="902" y="1024" type="line"/>
      <point x="378" y="1024" type="line"/>
    </contour>
  </outline>
</glyph>
<glyph name="n" format="2">
  <advance width="2519" height="1448"/>
  <unicode hex="006E"/>
  <anchor x="1350" y="1174" name="top"/>
  <anchor x="1119" y="-150" name="bottom"/>
  <anchor x="188" y="512" name="left"/>
  <outline>
    <contour>
      <point x="198.701" y="0" type="line"/>
      <point x="377.701" y="1024" type="line"/>
      <point x="901.701" y="1024" type="line"/>
      <point x="896.701" y="996" type="line"/>
      <point x="909.701" y="1010"/>
      <point x="950.701" y="1024"/>
      <point x="977.701" y="1024" type="qcurve" smooth="yes"/>
      <point x="1903.7" y="1024" type="line" smooth="yes"/>
      <point x="2001.7" y="1024"/>
      <point x="2133.7" y="988"/>
      <point x="2208.7" y="914"/>
      <point x="2230.7" y="801"/>
      <point x="2216.7" y="724" type="qcurve" smooth="yes"/>
      <point x="2090.7" y="0" type="line"/>
      <point x="1566.7" y="0" type="line"/>
      <point x="1739.7" y="992" type="line"/>
      <point x="1739.7" y="992"/>
      <point x="1739.7" y="992"/>
      <point x="1739.7" y="992" type="qcurve"/>
      <point x="895.701" y="992" type="line"/>
      <point x="722.701" y="0" type="line"/>
    </contour>
  </outline>
  <guideline y="988"/>
  <guideline y="870"/>
</glyph>
<glyph name="p" format="2">
  <advance width="2633.92" height="1448"/>
  <unicode hex="0070"/>
  <anchor x="1452" y="1598" name="top"/>
  <anchor x="1112" y="-554" name="bottom"/>
  <outline>
    <contour>
      <point x="123.701" y="-428" type="line"/>
      <point x="377.701" y="1024" type="line"/>
      <point x="901.701" y="1024" type="line"/>
      <point x="896.701" y="996" type="line"/>
      <point x="909.701" y="1010"/>
      <point x="950.701" y="1024"/>
      <point x="977.701" y="1024" type="qcurve" smooth="yes"/>
      <point x="2091.7" y="1024" type="line" smooth="yes"/>
      <point x="2171.7" y="1024"/>
      <point x="2282.7" y="993"/>
      <point x="2345.7" y="929"/>
      <point x="2363.7" y="829"/>
      <point x="2351.7" y="760" type="qcurve" smooth="yes"/>
      <point x="2262.7" y="254" type="line" smooth="yes"/>
      <point x="2251.7" y="189"/>
      <point x="2198.7" y="93"/>
      <point x="2112.7" y="30"/>
      <point x="1992.7" y="0"/>
      <point x="1912.7" y="0" type="qcurve" smooth="yes"/>
      <point x="798.701" y="0" type="line" smooth="yes"/>
      <point x="766.701" y="0"/>
      <point x="730.701" y="12"/>
      <point x="726.701" y="24" type="qcurve"/>
      <point x="647.701" y="-428" type="line"/>
    </contour>
    <contour>
      <point x="728.701" y="32" type="line"/>
      <point x="1700.7" y="32" type="line"/>
      <point x="1700.7" y="32"/>
      <point x="1700.7" y="32"/>
      <point x="1700.7" y="32" type="qcurve"/>
      <point x="1867.7" y="992" type="line"/>
      <point x="1867.7" y="992"/>
      <point x="1867.7" y="992"/>
      <point x="1867.7" y="992" type="qcurve"/>
      <point x="895.701" y="992" type="line"/>
    </contour>
  </outline>
</glyph>
<glyph name="q" format="2">
  <advance width="2635.38" height="1448"/>
  <unicode hex="0071"/>
  <anchor x="1464" y="1598" name="top"/>
  <anchor x="1159" y="-150" name="bottom"/>
  <outline>
    <contour>
      <point x="220.914" y="264" type="line"/>
      <point x="308.914" y="770" type="line" smooth="yes"/>
      <point x="320.914" y="835"/>
      <point x="373.914" y="931"/>
      <point x="459.914" y="994"/>
      <point x="580.914" y="1024"/>
      <point x="659.914" y="1024" type="qcurve" smooth="yes"/>
      <point x="1773.91" y="1024" type="line" smooth="yes"/>
      <point x="1805.91" y="1024"/>
      <point x="1840.91" y="1012"/>
      <point x="1845.91" y="1000" type="qcurve"/>
      <point x="1849.91" y="1024" type="line"/>
      <point x="2373.91" y="1024" type="line"/>
      <point x="2119.91" y="-428" type="line"/>
      <point x="1595.91" y="-428" type="line"/>
      <point x="1675.91" y="28" type="line"/>
      <point x="1662.91" y="14"/>
      <point x="1621.91" y="0"/>
      <point x="1594.91" y="0" type="qcurve" smooth="yes"/>
      <point x="480.914" y="0" type="line" smooth="yes"/>
      <point x="400.914" y="0"/>
      <point x="289.914" y="31"/>
      <point x="226.914" y="95"/>
      <point x="208.914" y="195"/>
      <point x="220.914" y="264" type="qcurve"/>
    </contour>
    <contour>
      <point x="704.914" y="32" type="line"/>
      <point x="704.914" y="32"/>
      <point x="704.914" y="32"/>
      <point x="704.914" y="32" type="qcurve"/>
      <point x="1676.91" y="32" type="line"/>
      <point x="1843.91" y="992" type="line"/>
      <point x="871.914" y="992" type="line"/>
      <point x="871.914" y="992"/>
      <point x="871.914" y="992"/>
      <point x="871.914" y="992" type="qcurve"/>
    </contour>
  </outline>
  <guideline angle="0" x="0" y="988"/>
  <guideline angle="0" x="0" y="36"/>
</glyph>
<glyph name="r" format="2">
  <advance width="2180" height="1448"/>
  <unicode hex="0072"/>
  <anchor x="1275" y="1174" name="top"/>
  <anchor x="435" y="-150" name="bottom"/>
  <anchor x="188" y="512" name="left"/>
  <outline>
    <contour>
      <point x="199" y="0" type="line"/>
      <point x="378" y="1024" type="line"/>
      <point x="902" y="1024" type="line"/>
      <point x="897" y="996" type="line"/>
      <point x="910" y="1010"/>
      <point x="951" y="1024"/>
      <point x="978" y="1024" type="qcurve" smooth="yes"/>
      <point x="1754" y="1024" type="line" smooth="yes"/>
      <point x="1852" y="1024"/>
      <point x="1984" y="988"/>
      <point x="2059" y="914"/>
      <point x="2081" y="801"/>
      <point x="2067" y="724" type="qcurve" smooth="yes"/>
      <point x="2054" y="650" type="line"/>
      <point x="1513" y="552" type="line"/>
      <point x="1590" y="992" type="line"/>
      <point x="1590" y="992"/>
      <point x="1590" y="992"/>
      <point x="1590" y="992" type="qcurve"/>
      <point x="896" y="992" type="line"/>
      <point x="723" y="0" type="line"/>
    </contour>
  </outline>
  <guideline angle="0" x="0" y="988"/>
  <guideline angle="0" x="0" y="870"/>
</glyph>
<glyph name="s" format="2">
  <advance width="2408"/>
  <unicode hex="0073"/>
  <anchor x="1286" y="1174" name="top"/>
  <anchor x="1051" y="-150" name="bottom"/>
  <outline>
    <contour>
      <point x="209.05" y="258" type="line"/>
      <point x="757.05" y="339" type="line"/>
      <point x="702.05" y="22" type="line"/>
      <point x="702.05" y="22"/>
      <point x="702.05" y="22"/>
      <point x="702.05" y="22" type="qcurve"/>
      <point x="1462.05" y="22" type="line"/>
      <point x="1462.05" y="22"/>
      <point x="1462.05" y="22"/>
      <point x="1462.05" y="22" type="qcurve"/>
      <point x="1545.05" y="500" type="line"/>
      <point x="1545.05" y="500"/>
      <point x="1545.05" y="500"/>
      <point x="1545.05" y="500" type="qcurve"/>
      <point x="569.05" y="500" type="line" smooth="yes"/>
      <point x="497.05" y="500"/>
      <point x="389.05" y="530"/>
      <point x="321.05" y="595"/>
      <point x="298.05" y="696"/>
      <point x="310.05" y="766" type="qcurve"/>
      <point x="310.05" y="768" type="line"/>
      <point x="324.05" y="845"/>
      <point x="399.05" y="948"/>
      <point x="507.05" y="1009"/>
      <point x="638.05" y="1034"/>
      <point x="708.05" y="1034" type="qcurve" smooth="yes"/>
      <point x="1886.05" y="1034" type="line" smooth="yes"/>
      <point x="1952.05" y="1034"/>
      <point x="2053.05" y="1005"/>
      <point x="2116.05" y="947"/>
      <point x="2138.05" y="860"/>
      <point x="2124.05" y="802" type="qcurve"/>
      <point x="2119.05" y="772" type="line"/>
      <point x="1571.05" y="691" type="line"/>
      <point x="1625.05" y="1002" type="line"/>
      <point x="1625.05" y="1002"/>
      <point x="1625.05" y="1002"/>
      <point x="1625.05" y="1002" type="qcurve"/>
      <point x="895.05" y="1002" type="line"/>
      <point x="895.05" y="1002"/>
      <point x="895.05" y="1002"/>
      <point x="895.05" y="1002" type="qcurve"/>
      <point x="813.05" y="532" type="line"/>
      <point x="813.05" y="532"/>
      <point x="813.05" y="532"/>
      <point x="813.05" y="532" type="qcurve"/>
      <point x="1788.05" y="536" type="line"/>
      <point x="1858.05" y="536"/>
      <point x="1968.05" y="515"/>
      <point x="2038.05" y="458"/>
      <point x="2065.05" y="358"/>
      <point x="2051.05" y="280" type="qcurve" smooth="yes"/>
      <point x="2046.05" y="252" type="line" smooth="yes"/>
      <point x="2032.05" y="173"/>
      <point x="1973.05" y="71"/>
      <point x="1883.05" y="12"/>
      <point x="1765.05" y="-10"/>
      <point x="1692.05" y="-10" type="qcurve" smooth="yes"/>
      <point x="468.05" y="-10" type="line" smooth="yes"/>
      <point x="396.05" y="-10"/>
      <point x="287.05" y="14"/>
      <point x="218.05" y="71"/>
      <point x="192.05" y="164"/>
      <point x="204.05" y="232" type="qcurve" smooth="yes"/>
    </contour>
  </outline>
</glyph>
<glyph name="t" format="2">
  <advance width="1539"/>
  <unicode hex="0074"/>
  <anchor x="891" y="1394" name="top"/>
  <anchor x="622" y="-150" name="bottom"/>
  <anchor x="1050" y="1400" name="right"/>
  <outline>
    <contour>
      <point x="587" y="0" type="line" smooth="yes"/>
      <point x="505" y="0"/>
      <point x="393" y="28"/>
      <point x="331" y="90"/>
      <point x="314" y="187"/>
      <point x="326" y="256" type="qcurve" smooth="yes"/>
      <point x="454" y="992" type="line"/>
      <point x="182" y="992" type="line"/>
      <point x="188" y="1024" type="line"/>
      <point x="460" y="1024" type="line"/>
      <point x="498" y="1244" type="line"/>
      <point x="1022" y="1244" type="line"/>
      <point x="984" y="1024" type="line"/>
      <point x="1464" y="1024" type="line"/>
      <point x="1458" y="992" type="line"/>
      <point x="978" y="992" type="line"/>
      <point x="811" y="32" type="line"/>
      <point x="811" y="32"/>
      <point x="811" y="32"/>
      <point x="811" y="32" type="qcurve"/>
      <point x="1261" y="32" type="line"/>
      <point x="1245" y="0" type="line"/>
    </contour>
  </outline>
</glyph>
<glyph name="u" format="2">
  <advance width="2457.73"/>
  <unicode hex="0075"/>
  <anchor x="1314" y="1174" name="top"/>
  <anchor x="1083" y="-150" name="bottom"/>
  <anchor x="1128" y="0" name="ogonek"/>
  <anchor x="2209" y="1024" name="horn"/>
  <outline>
    <contour>
      <point x="222.701" y="204" type="line"/>
      <point x="365.701" y="1024" type="line"/>
      <point x="889.701" y="1024" type="line"/>
      <point x="716.701" y="32" type="line"/>
      <point x="716.701" y="32"/>
      <point x="716.701" y="32"/>
      <point x="716.701" y="32" type="qcurve"/>
      <point x="1511.7" y="32" type="line"/>
      <point x="1511.7" y="32"/>
      <point x="1511.7" y="32"/>
      <point x="1511.7" y="32" type="qcurve"/>
      <point x="1684.7" y="1024" type="line"/>
      <point x="2208.7" y="1024" type="line"/>
      <point x="2065.7" y="204" type="line" smooth="yes"/>
      <point x="2054.7" y="141"/>
      <point x="2006.7" y="62"/>
      <point x="1934.7" y="17"/>
      <point x="1840.7" y="0"/>
      <point x="1783.7" y="0" type="qcurve" smooth="yes"/>
      <point x="430.701" y="0" type="line" smooth="yes"/>
      <point x="373.701" y="0"/>
      <point x="285.701" y="17"/>
      <point x="230.701" y="62"/>
      <point x="211.701" y="141"/>
      <point x="222.701" y="204" type="qcurve"/>
    </contour>
  </outline>
</glyph>
<glyph name="v" format="2">
  <advance width="1901.71"/>
  <unicode hex="0076"/>
  <anchor x="1037.42" y="1174" name="top"/>
  <anchor x="806.416" y="-150" name="bottom"/>
  <outline>
    <contour>
      <point x="727" y="0" type="line"/>
      <point x="957" y="0" type="line"/>
      <point x="1946" y="1024" type="line"/>
      <point x="1905" y="1024" type="line"/>
      <point x="1167" y="258" type="line"/>
      <point x="695" y="1024" type="line"/>
      <point x="76" y="1024" type="line"/>
    </contour>
  </outline>
</glyph>
<glyph name="w" format="2">
  <advance width="2881"/>
  <unicode hex="0077"/>
  <anchor x="1813" y="1174" name="top"/>
  <anchor x="1303" y="-150" name="bottom"/>
  <outline>
    <contour>
      <point x="508.416" y="0" type="line"/>
      <point x="76.4159" y="1024" type="line"/>
      <point x="690.416" y="1024" type="line"/>
      <point x="1000.42" y="201" type="line"/>
      <point x="846.416" y="0" type="line"/>
    </contour>
    <contour>
      <point x="820.416" y="0" type="line"/>
      <point x="943.416" y="149" type="line"/>
      <point x="1601.42" y="1024" type="line"/>
      <point x="1663.42" y="1024" type="line"/>
      <point x="1507.42" y="852" type="line"/>
      <point x="868.416" y="0" type="line"/>
    </contour>
    <contour>
      <point x="1789.42" y="0" type="line"/>
      <point x="1474.42" y="839" type="line"/>
      <point x="1645.42" y="1024" type="line"/>
      <point x="1974.42" y="1024" type="line"/>
      <point x="2287.42" y="193" type="line"/>
      <point x="2122.42" y="0" type="line"/>
    </contour>
    <contour>
      <point x="2101.42" y="0" type="line"/>
      <point x="2224.42" y="147" type="line"/>
      <point x="2885.42" y="1024" type="line"/>
      <point x="2925.42" y="1024" type="line"/>
      <point x="2149.42" y="0" type="line"/>
    </contour>
  </outline>
</glyph>
<glyph name="x" format="2">
  <advance width="2183"/>
  <unicode hex="0078"/>
  <anchor x="1177" y="1174" name="top"/>
  <anchor x="946" y="-150" name="bottom"/>
  <outline>
    <contour>
      <point x="-63.5841" y="0" type="line"/>
      <point x="2.41594" y="0" type="line"/>
      <point x="798.416" y="405" type="line"/>
      <point x="1265.42" y="0" type="line"/>
      <point x="2047.42" y="0" type="line"/>
      <point x="1283.42" y="652" type="line"/>
      <point x="2001.42" y="1024" type="line"/>
      <point x="1936.42" y="1024" type="line"/>
      <point x="1257.42" y="673" type="line"/>
      <point x="863.416" y="1024" type="line"/>
      <point x="76.4159" y="1024" type="line"/>
      <point x="773.416" y="426" type="line"/>
    </contour>
  </outline>
</glyph>
<glyph name="y" format="2">
  <advance width="1896.71"/>
  <unicode hex="0079"/>
  <anchor x="1036" y="1174" name="top"/>
  <anchor x="1394" y="-110" name="bottom"/>
  <outline>
    <contour>
      <point x="-163.584" y="-428" type="line"/>
      <point x="366.416" y="-428" type="line" smooth="yes"/>
      <point x="416.416" y="-428"/>
      <point x="492.416" y="-418"/>
      <point x="556.416" y="-391"/>
      <point x="617.416" y="-344"/>
      <point x="653.416" y="-306" type="qcurve" smooth="yes"/>
      <point x="1941.42" y="1024" type="line"/>
      <point x="1897.42" y="1024" type="line"/>
      <point x="1156.42" y="258" type="line"/>
      <point x="673.416" y="1024" type="line"/>
      <point x="76.4159" y="1024" type="line"/>
      <point x="797.416" y="-112" type="line"/>
      <point x="626.416" y="-289" type="line" smooth="yes"/>
      <point x="594.416" y="-322"/>
      <point x="540.416" y="-364"/>
      <point x="484.416" y="-388"/>
      <point x="418.416" y="-396"/>
      <point x="373.416" y="-396" type="qcurve" smooth="yes"/>
      <point x="-165.584" y="-396" type="line"/>
    </contour>
  </outline>
</glyph>
<glyph name="z" format="2">
  <advance width="2066"/>
  <unicode hex="007A"/>
  <anchor x="1117" y="1174" name="top"/>
  <anchor x="886" y="-150" name="bottom"/>
  <outline>
    <contour>
      <point x="34" y="0" type="line"/>
      <point x="1789" y="0" type="line"/>
      <point x="1795" y="32" type="line"/>
      <point x="749" y="32" type="line"/>
      <point x="1939" y="1008" type="line"/>
      <point x="1942" y="1024" type="line"/>
      <point x="274" y="1024" type="line"/>
      <point x="268" y="992" type="line"/>
      <point x="1227" y="992" type="line"/>
      <point x="37" y="16" type="line"/>
    </contour>
  </outline>
</glyph>
<glyph name="braceleft" format="2">
  <advance width="1251"/>
  <unicode hex="007B"/>
  <outline>
    <contour>
      <point x="292.446" y="18" type="line"/>
      <point x="359.446" y="403" type="line" smooth="yes"/>
      <point x="366.446" y="444"/>
      <point x="354.446" y="510"/>
      <point x="308.446" y="556"/>
      <point x="225.446" y="581"/>
      <point x="160.446" y="581" type="qcurve"/>
      <point x="166.446" y="613" type="line"/>
      <point x="231.446" y="613"/>
      <point x="323.446" y="638"/>
      <point x="385.446" y="685"/>
      <point x="420.446" y="751"/>
      <point x="427.446" y="791" type="qcurve" smooth="yes"/>
      <point x="492.446" y="1164" type="line" smooth="yes"/>
      <point x="504.446" y="1232"/>
      <point x="565.446" y="1337"/>
      <point x="656.446" y="1410"/>
      <point x="773.446" y="1448"/>
      <point x="840.446" y="1448" type="qcurve" smooth="yes"/>
      <point x="1373.45" y="1448" type="line"/>
      <point x="1367.45" y="1416" type="line"/>
      <point x="1098.45" y="1416" type="line" smooth="yes"/>
      <point x="1065.45" y="1416"/>
      <point x="1017.45" y="1403"/>
      <point x="983.446" y="1375"/>
      <point x="962.446" y="1333"/>
      <point x="957.446" y="1304" type="qcurve" smooth="yes"/>
      <point x="882.446" y="877" type="line" smooth="yes"/>
      <point x="863.446" y="766"/>
      <point x="734.446" y="624"/>
      <point x="633.446" y="597" type="qcurve"/>
      <point x="679.446" y="584"/>
      <point x="745.446" y="534"/>
      <point x="783.446" y="464"/>
      <point x="794.446" y="373"/>
      <point x="784.446" y="317" type="qcurve" smooth="yes"/>
      <point x="709.446" y="-112" type="line" smooth="yes"/>
      <point x="704.446" y="-141"/>
      <point x="711.446" y="-183"/>
      <point x="735.446" y="-211"/>
      <point x="779.446" y="-224"/>
      <point x="812.446" y="-224" type="qcurve" smooth="yes"/>
      <point x="1081.45" y="-224" type="line"/>
      <point x="1075.45" y="-256" type="line"/>
      <point x="542.446" y="-256" type="line" smooth="yes"/>
      <point x="475.446" y="-256"/>
      <point x="371.446" y="-218"/>
      <point x="305.446" y="-147"/>
      <point x="281.446" y="-46"/>
      <point x="292.446" y="18" type="qcurve"/>
    </contour>
  </outline>
</glyph>
<glyph name="bar" format="2">
  <advance width="1201"/>
  <unicode hex="007C"/>
  <outline>
    <contour>
      <point x="545" y="1520" type="line"/>
      <point x="945" y="1520" type="line"/>
      <point x="596" y="-480" type="line"/>
      <point x="196" y="-480" type="line"/>
    </contour>
  </outline>
</glyph>
<glyph name="asciitilde" format="2">
  <advance width="1393"/>
  <unicode hex="007E"/>
  <outline>
    <contour>
      <point x="-44" y="373" type="line"/>
      <point x="-26" y="423"/>
      <point x="12" y="529"/>
      <point x="62" y="631"/>
      <point x="127" y="722"/>
      <point x="218" y="790"/>
      <point x="339" y="830"/>
      <point x="418" y="830" type="qcurve" smooth="yes"/>
      <point x="481" y="830"/>
      <point x="608" y="794"/>
      <point x="733" y="739"/>
      <point x="854" y="676"/>
      <point x="970" y="621"/>
      <point x="1079" y="585"/>
      <point x="1129" y="585" type="qcurve" smooth="yes"/>
      <point x="1184" y="585"/>
      <point x="1264" y="628"/>
      <point x="1321" y="693"/>
      <point x="1358" y="772"/>
      <point x="1371" y="808" type="qcurve"/>
      <point x="1405" y="802" type="line"/>
      <point x="1387" y="752"/>
      <point x="1349" y="646"/>
      <point x="1300" y="544"/>
      <point x="1234" y="453"/>
      <point x="1143" y="385"/>
      <point x="1023" y="345"/>
      <point x="943" y="345" type="qcurve" smooth="yes"/>
      <point x="880" y="345"/>
      <point x="753" y="381"/>
      <point x="628" y="436"/>
      <point x="506" y="499"/>
      <point x="390" y="554"/>
      <point x="281" y="590"/>
      <point x="231" y="590" type="qcurve" smooth="yes"/>
      <point x="176" y="590"/>
      <point x="97" y="547"/>
      <point x="40" y="482"/>
      <point x="3" y="403"/>
      <point x="-10" y="367" type="qcurve"/>
    </contour>
  </outline>
</glyph>
<glyph name="currency" format="2">
  <advance width="2893" height="1448"/>
  <unicode hex="00A4"/>
  <outline>
    <contour>
      <point x="290" y="452" type="line"/>
      <point x="378" y="958" type="line"/>
      <point x="390" y="1023"/>
      <point x="443" y="1119"/>
      <point x="529" y="1182"/>
      <point x="650" y="1212"/>
      <point x="729" y="1212" type="qcurve" smooth="yes"/>
      <point x="2353" y="1212" type="line" smooth="yes"/>
      <point x="2512" y="1212"/>
      <point x="2637" y="1089"/>
      <point x="2614" y="958" type="qcurve" smooth="yes"/>
      <point x="2526" y="452" type="line" smooth="yes"/>
      <point x="2514" y="383"/>
      <point x="2462" y="283"/>
      <point x="2376" y="219"/>
      <point x="2255" y="188"/>
      <point x="2174" y="188" type="qcurve" smooth="yes"/>
      <point x="550" y="188" type="line" smooth="yes"/>
      <point x="470" y="188"/>
      <point x="359" y="219"/>
      <point x="296" y="283"/>
      <point x="278" y="383"/>
      <point x="290" y="452" type="qcurve"/>
    </contour>
    <contour>
      <point x="773" y="220" type="line"/>
      <point x="773" y="220"/>
      <point x="773" y="220"/>
      <point x="773" y="220" type="qcurve"/>
      <point x="1961" y="220" type="line"/>
      <point x="1961" y="220"/>
      <point x="1961" y="220"/>
      <point x="1961" y="220" type="qcurve"/>
      <point x="2129" y="1180" type="line"/>
      <point x="2129" y="1180"/>
      <point x="2129" y="1180"/>
      <point x="2129" y="1180" type="qcurve"/>
      <point x="941" y="1180" type="line"/>
      <point x="941" y="1180"/>
      <point x="941" y="1180"/>
      <point x="941" y="1180" type="qcurve"/>
    </contour>
    <contour>
      <point x="109" y="67" type="line"/>
      <point x="91" y="94" type="line"/>
      <point x="345" y="263" type="line"/>
      <point x="365" y="238" type="line"/>
    </contour>
    <contour>
      <point x="303" y="1305" type="line"/>
      <point x="330" y="1333" type="line"/>
      <point x="526" y="1163" type="line"/>
      <point x="497" y="1137" type="line"/>
    </contour>
    <contour>
      <point x="2788" y="1333" type="line"/>
      <point x="2805" y="1305" type="line"/>
      <point x="2551" y="1137" type="line"/>
      <point x="2532" y="1163" type="line"/>
    </contour>
    <contour>
      <point x="2593" y="94" type="line"/>
      <point x="2567" y="67" type="line"/>
      <point x="2371" y="238" type="line"/>
      <point x="2399" y="263" type="line"/>
    </contour>
  </outline>
</glyph>
<glyph name="yen" format="2">
  <advance width="2679"/>
  <unicode hex="00A5"/>
  <outline>
    <component base="Y" yxScale="0.1745" xOffset="-120"/>
    <contour>
      <point x="524" y="647" type="line"/>
      <point x="2333" y="647" type="line"/>
      <point x="2339" y="683" type="line"/>
      <point x="530" y="683" type="line"/>
    </contour>
    <contour>
      <point x="487" y="437" type="line"/>
      <point x="2296" y="437" type="line"/>
      <point x="2303" y="473" type="line"/>
      <point x="494" y="473" type="line"/>
    </contour>
  </outline>
</glyph>
<glyph name="brokenbar" format="2">
  <advance width="1200.8"/>
  <unicode hex="00A6"/>
  <outline>
    <contour>
      <point x="545" y="1520" type="line"/>
      <point x="945" y="1520" type="line"/>
      <point x="806" y="720" type="line"/>
      <point x="406" y="720" type="line"/>
    </contour>
    <contour>
      <point x="336" y="320" type="line"/>
      <point x="736" y="320" type="line"/>
      <point x="596" y="-480" type="line"/>
      <point x="196" y="-480" type="line"/>
    </contour>
  </outline>
</glyph>
<glyph name="section" format="2">
  <advance width="2699.6"/>
  <unicode hex="00A7"/>
  <outline>
    <contour>
      <point x="580" y="-150" type="line"/>
      <point x="1814" y="-150" type="line" smooth="yes"/>
      <point x="1879" y="-150"/>
      <point x="1986" y="-131"/>
      <point x="2066" y="-80"/>
      <point x="2120" y="11"/>
      <point x="2132" y="83" type="qcurve" smooth="yes"/>
      <point x="2146" y="159" type="line" smooth="yes"/>
      <point x="2160" y="237"/>
      <point x="2127" y="326"/>
      <point x="2088" y="349" type="qcurve"/>
      <point x="2142" y="349"/>
      <point x="2241" y="368"/>
      <point x="2320" y="419"/>
      <point x="2377" y="510"/>
      <point x="2390" y="582" type="qcurve" smooth="yes"/>
      <point x="2408" y="685" type="line" smooth="yes"/>
      <point x="2420" y="756"/>
      <point x="2395" y="843"/>
      <point x="2330" y="891"/>
      <point x="2230" y="907"/>
      <point x="2168" y="907" type="qcurve" smooth="yes"/>
      <point x="974" y="907" type="line"/>
      <point x="974" y="907"/>
      <point x="974" y="907"/>
      <point x="974" y="907" type="qcurve"/>
      <point x="1055" y="1368" type="line"/>
      <point x="1055" y="1368"/>
      <point x="1055" y="1368"/>
      <point x="1055" y="1368" type="qcurve"/>
      <point x="1879" y="1368" type="line"/>
      <point x="1879" y="1368"/>
      <point x="1879" y="1368"/>
      <point x="1879" y="1368" type="qcurve"/>
      <point x="1825" y="1060" type="line"/>
      <point x="2302" y="1132" type="line"/>
      <point x="2308" y="1168" type="line" smooth="yes"/>
      <point x="2320" y="1237"/>
      <point x="2296" y="1327"/>
      <point x="2231" y="1379"/>
      <point x="2132" y="1400"/>
      <point x="2070" y="1400" type="qcurve" smooth="yes"/>
      <point x="878" y="1400" type="line" smooth="yes"/>
      <point x="816" y="1400"/>
      <point x="709" y="1382"/>
      <point x="626" y="1332"/>
      <point x="569" y="1244"/>
      <point x="557" y="1174" type="qcurve" smooth="yes"/>
      <point x="550" y="1133" type="line" smooth="yes"/>
      <point x="534" y="1044"/>
      <point x="573" y="935"/>
      <point x="622" y="907" type="qcurve"/>
      <point x="570" y="907"/>
      <point x="467" y="895"/>
      <point x="379" y="850"/>
      <point x="315" y="759"/>
      <point x="301" y="681" type="qcurve" smooth="yes"/>
      <point x="288" y="607" type="line" smooth="yes"/>
      <point x="276" y="536"/>
      <point x="297" y="437"/>
      <point x="357" y="376"/>
      <point x="455" y="349"/>
      <point x="519" y="349" type="qcurve" smooth="yes"/>
      <point x="1715" y="349" type="line"/>
      <point x="1715" y="349"/>
      <point x="1715" y="349"/>
      <point x="1715" y="349" type="qcurve"/>
      <point x="1633" y="-118" type="line"/>
      <point x="1633" y="-118"/>
      <point x="1633" y="-118"/>
      <point x="1633" y="-118" type="qcurve"/>
      <point x="773" y="-118" type="line"/>
      <point x="773" y="-118"/>
      <point x="773" y="-118"/>
      <point x="773" y="-118" type="qcurve"/>
      <point x="828" y="196" type="line"/>
      <point x="352" y="124" type="line"/>
      <point x="346" y="92" type="line" smooth="yes"/>
      <point x="334" y="20"/>
      <point x="356" y="-74"/>
      <point x="417" y="-128"/>
      <point x="516" y="-150"/>
      <point x="580" y="-150" type="qcurve"/>
    </contour>
    <contour>
      <point x="712" y="381" type="line"/>
      <point x="712" y="381"/>
      <point x="712" y="381"/>
      <point x="712" y="381" type="qcurve"/>
      <point x="799" y="875" type="line"/>
      <point x="799" y="875"/>
      <point x="799" y="875"/>
      <point x="799" y="875" type="qcurve"/>
      <point x="1977" y="875" type="line"/>
      <point x="1977" y="875"/>
      <point x="1977" y="875"/>
      <point x="1977" y="875" type="qcurve"/>
      <point x="1890" y="381" type="line"/>
      <point x="1890" y="381"/>
      <point x="1890" y="381"/>
      <point x="1890" y="381" type="qcurve"/>
    </contour>
  </outline>
</glyph>
<glyph name="ordfeminine" format="2">
  <advance width="1685.09"/>
  <unicode hex="00AA"/>
  <outline>
    <contour>
      <point x="425" y="788" type="line" smooth="yes"/>
      <point x="385" y="788"/>
      <point x="317" y="804"/>
      <point x="271" y="842"/>
      <point x="253" y="906"/>
      <point x="261" y="954" type="qcurve" smooth="yes"/>
      <point x="267" y="992" type="line"/>
      <point x="276" y="1040"/>
      <point x="317" y="1101"/>
      <point x="375" y="1137"/>
      <point x="448" y="1151"/>
      <point x="488" y="1151" type="qcurve" smooth="yes"/>
      <point x="1196" y="1151" type="line"/>
      <point x="1246" y="1440" type="line"/>
      <point x="1246" y="1440"/>
      <point x="1246" y="1440"/>
      <point x="1246" y="1440" type="qcurve"/>
      <point x="700" y="1440" type="line"/>
      <point x="700" y="1440"/>
      <point x="700" y="1440"/>
      <point x="700" y="1440" type="qcurve"/>
      <point x="663" y="1228" type="line"/>
      <point x="334" y="1290" type="line"/>
      <point x="336" y="1303" type="line"/>
      <point x="345" y="1351"/>
      <point x="384" y="1416"/>
      <point x="442" y="1455"/>
      <point x="517" y="1472"/>
      <point x="560" y="1472" type="qcurve" smooth="yes"/>
      <point x="1399" y="1472" type="line" smooth="yes"/>
      <point x="1442" y="1472"/>
      <point x="1510" y="1457"/>
      <point x="1554" y="1417"/>
      <point x="1571" y="1347"/>
      <point x="1561" y="1292" type="qcurve" smooth="yes"/>
      <point x="1474" y="795" type="line"/>
      <point x="1134" y="795" type="line"/>
      <point x="1137" y="816" type="line"/>
      <point x="1129" y="809"/>
      <point x="1108" y="798"/>
      <point x="1083" y="791"/>
      <point x="1052" y="788"/>
      <point x="1033" y="788" type="qcurve" smooth="yes"/>
    </contour>
    <contour>
      <point x="577" y="820" type="line"/>
      <point x="577" y="820"/>
      <point x="577" y="820"/>
      <point x="577" y="820" type="qcurve"/>
      <point x="1138" y="820" type="line"/>
      <point x="1190" y="1119" type="line"/>
      <point x="629" y="1119" type="line"/>
      <point x="629" y="1119"/>
      <point x="629" y="1119"/>
      <point x="629" y="1119" type="qcurve"/>
    </contour>
  </outline>
  <guideline angle="0" x="0" y="36"/>
  <guideline angle="0" x="0" y="36"/>
</glyph>
<glyph name="logicalnot" format="2">
  <advance width="2085"/>
  <unicode hex="00AC"/>
  <outline>
    <contour>
      <point x="1767" y="349" type="line"/>
      <point x="1727" y="349" type="line"/>
      <point x="1804" y="789" type="line"/>
      <point x="278" y="789" type="line"/>
      <point x="284" y="825" type="line"/>
      <point x="1850" y="825" type="line"/>
    </contour>
  </outline>
</glyph>
<glyph name="registered" format="2">
  <advance width="1581"/>
  <unicode hex="00AE"/>
  <outline>
    <contour>
      <point x="625" y="1189" type="line"/>
      <point x="938" y="1189" type="line"/>
      <point x="938" y="1189" type="line"/>
      <point x="1105" y="1189" type="line" smooth="yes"/>
      <point x="1127" y="1189"/>
      <point x="1164" y="1196"/>
      <point x="1193" y="1214"/>
      <point x="1212" y="1245"/>
      <point x="1216" y="1269" type="qcurve" smooth="yes"/>
      <point x="1226" y="1322" type="line" smooth="yes"/>
      <point x="1234" y="1370"/>
      <point x="1185" y="1400"/>
      <point x="1141" y="1400" type="qcurve" smooth="yes"/>
      <point x="661" y="1400" type="line"/>
      <point x="656" y="1368" type="line"/>
      <point x="1090" y="1368" type="line" smooth="yes"/>
      <point x="1099" y="1368"/>
      <point x="1105" y="1360"/>
      <point x="1103" y="1352" type="qcurve" smooth="yes"/>
      <point x="1083" y="1237" type="line" smooth="yes"/>
      <point x="1081" y="1229"/>
      <point x="1073" y="1221"/>
      <point x="1064" y="1221" type="qcurve" smooth="yes"/>
      <point x="630" y="1221" type="line"/>
    </contour>
    <contour>
      <point x="538" y="1060" type="line"/>
      <point x="665" y="1060" type="line"/>
      <point x="724" y="1400" type="line"/>
      <point x="661" y="1400" type="line"/>
      <point x="597" y="1400" type="line"/>
    </contour>
    <contour>
      <point x="1006" y="1060" type="line"/>
      <point x="1197" y="1060" type="line"/>
      <point x="979" y="1192" type="line"/>
      <point x="809" y="1192" type="line"/>
    </contour>
    <contour>
      <point x="370" y="1057" type="line"/>
      <point x="432" y="1410" type="line" smooth="yes"/>
      <point x="444" y="1479"/>
      <point x="532" y="1552"/>
      <point x="601" y="1552" type="qcurve" smooth="yes"/>
      <point x="1281" y="1552" type="line" smooth="yes"/>
      <point x="1350" y="1552"/>
      <point x="1413" y="1479"/>
      <point x="1401" y="1410" type="qcurve" smooth="yes"/>
      <point x="1339" y="1057" type="line" smooth="yes"/>
      <point x="1327" y="988"/>
      <point x="1239" y="914"/>
      <point x="1170" y="914" type="qcurve" smooth="yes"/>
      <point x="490" y="914" type="line" smooth="yes"/>
      <point x="421" y="914"/>
      <point x="358" y="988"/>
      <point x="370" y="1057" type="qcurve"/>
    </contour>
    <contour>
      <point x="460" y="1072" type="line" smooth="yes"/>
      <point x="453" y="1032"/>
      <point x="484" y="990"/>
      <point x="523" y="990" type="qcurve" smooth="yes"/>
      <point x="1177" y="990" type="line" smooth="yes"/>
      <point x="1217" y="990"/>
      <point x="1248" y="1032"/>
      <point x="1255" y="1072" type="qcurve" smooth="yes"/>
      <point x="1311" y="1395" type="line"/>
      <point x="1319" y="1435"/>
      <point x="1288" y="1476"/>
      <point x="1248" y="1476" type="qcurve" smooth="yes"/>
      <point x="608" y="1476" type="line" smooth="yes"/>
      <point x="569" y="1476"/>
      <point x="524" y="1435"/>
      <point x="516" y="1395" type="qcurve"/>
    </contour>
  </outline>
</glyph>
<glyph name="degree" format="2">
  <advance width="1067"/>
  <unicode hex="00B0"/>
  <outline>
    <contour>
      <point x="231" y="1159" type="line"/>
      <point x="267" y="1364" type="line" smooth="yes"/>
      <point x="282" y="1450"/>
      <point x="391" y="1530"/>
      <point x="495" y="1530" type="qcurve" smooth="yes"/>
      <point x="868" y="1530" type="line" smooth="yes"/>
      <point x="973" y="1530"/>
      <point x="1054" y="1450"/>
      <point x="1039" y="1364" type="qcurve" smooth="yes"/>
      <point x="1003" y="1159" type="line" smooth="yes"/>
      <point x="987" y="1069"/>
      <point x="880" y="986"/>
      <point x="773" y="986" type="qcurve" smooth="yes"/>
      <point x="400" y="986" type="line" smooth="yes"/>
      <point x="294" y="986"/>
      <point x="215" y="1068"/>
      <point x="231" y="1159" type="qcurve"/>
    </contour>
    <contour>
      <point x="432" y="1018" type="line"/>
      <point x="432" y="1018"/>
      <point x="432" y="1018"/>
      <point x="432" y="1018" type="qcurve"/>
      <point x="754" y="1018" type="line"/>
      <point x="754" y="1018"/>
      <point x="754" y="1018"/>
      <point x="754" y="1018" type="qcurve"/>
      <point x="837" y="1498" type="line"/>
      <point x="837" y="1498"/>
      <point x="837" y="1498"/>
      <point x="837" y="1498" type="qcurve"/>
      <point x="515" y="1498" type="line"/>
      <point x="515" y="1498"/>
      <point x="515" y="1498"/>
      <point x="515" y="1498" type="qcurve"/>
    </contour>
  </outline>
</glyph>
<glyph name="uni00B5" format="2">
  <advance width="2479"/>
  <unicode hex="00B5"/>
  <outline>
    <contour>
      <point x="124" y="-428" type="line"/>
      <point x="657" y="-368" type="line"/>
      <point x="733" y="55" type="line"/>
      <point x="746" y="28"/>
      <point x="806" y="0"/>
      <point x="839" y="0" type="qcurve" smooth="yes"/>
      <point x="1402" y="0" type="line" smooth="yes"/>
      <point x="1418" y="0"/>
      <point x="1453" y="7"/>
      <point x="1486" y="21"/>
      <point x="1516" y="42"/>
      <point x="1528" y="55" type="qcurve"/>
      <point x="1518" y="0" type="line"/>
      <point x="2042" y="0" type="line"/>
      <point x="2221" y="1024" type="line"/>
      <point x="1697" y="1024" type="line"/>
      <point x="1546" y="160" type="line" smooth="yes"/>
      <point x="1540" y="128"/>
      <point x="1513" y="80"/>
      <point x="1476" y="48"/>
      <point x="1431" y="32"/>
      <point x="1408" y="32" type="qcurve" smooth="yes"/>
      <point x="845" y="32" type="line" smooth="yes"/>
      <point x="821" y="32"/>
      <point x="782" y="48"/>
      <point x="756" y="80"/>
      <point x="745" y="128"/>
      <point x="751" y="160" type="qcurve" smooth="yes"/>
      <point x="902" y="1024" type="line"/>
      <point x="378" y="1024" type="line"/>
    </contour>
  </outline>
</glyph>
<glyph name="paragraph" format="2">
  <advance width="2690"/>
  <unicode hex="00B6"/>
  <outline>
    <contour>
      <point x="2170" y="0" type="line"/>
      <point x="1978" y="0" type="line"/>
      <point x="2216" y="1364" type="line"/>
      <point x="1928" y="1364" type="line"/>
      <point x="1690" y="0" type="line"/>
      <point x="1498" y="0" type="line"/>
      <point x="1559" y="350" type="line"/>
      <point x="627" y="350" type="line" smooth="yes"/>
      <point x="533" y="350"/>
      <point x="384" y="377"/>
      <point x="289" y="449"/>
      <point x="252" y="576"/>
      <point x="270" y="676" type="qcurve" smooth="yes"/>
      <point x="338" y="1066" type="line" smooth="yes"/>
      <point x="356" y="1167"/>
      <point x="437" y="1296"/>
      <point x="558" y="1371"/>
      <point x="716" y="1400"/>
      <point x="810" y="1400" type="qcurve" smooth="yes"/>
      <point x="2414" y="1400" type="line"/>
    </contour>
  </outline>
  <guideline x="1345" name="halfwidth" color="0.4,0.4,0.4,1"/>
</glyph>
<glyph name="periodcentered" format="2">
  <advance width="1250"/>
  <unicode hex="00B7"/>
  <outline>
    <contour>
      <point x="328" y="504" type="line"/>
      <point x="365" y="715" type="line" smooth="yes"/>
      <point x="373" y="759"/>
      <point x="392" y="813"/>
      <point x="428" y="843"/>
      <point x="485" y="853"/>
      <point x="530" y="853" type="qcurve" smooth="yes"/>
      <point x="777" y="853" type="line" smooth="yes"/>
      <point x="822" y="853"/>
      <point x="876" y="843"/>
      <point x="901" y="813"/>
      <point x="902" y="758"/>
      <point x="894" y="713" type="qcurve" smooth="yes"/>
      <point x="858" y="504" type="line" smooth="yes"/>
      <point x="850" y="459"/>
      <point x="830" y="404"/>
      <point x="794" y="373"/>
      <point x="737" y="363"/>
      <point x="692" y="363" type="qcurve" smooth="yes"/>
      <point x="444" y="363" type="line" smooth="yes"/>
      <point x="399" y="363"/>
      <point x="346" y="373"/>
      <point x="321" y="404"/>
      <point x="320" y="459"/>
      <point x="328" y="504" type="qcurve"/>
    </contour>
  </outline>
</glyph>
<glyph name="ordmasculine" format="2">
  <advance width="1706"/>
  <unicode hex="00BA"/>
  <outline>
    <contour>
      <point x="237" y="772" type="line"/>
      <point x="297" y="1117" type="line" smooth="yes"/>
      <point x="312" y="1203"/>
      <point x="421" y="1283"/>
      <point x="526" y="1283" type="qcurve" smooth="yes"/>
      <point x="1391" y="1283" type="line" smooth="yes"/>
      <point x="1496" y="1283"/>
      <point x="1577" y="1203"/>
      <point x="1562" y="1117" type="qcurve" smooth="yes"/>
      <point x="1502" y="772" type="line" smooth="yes"/>
      <point x="1486" y="682"/>
      <point x="1378" y="599"/>
      <point x="1272" y="599" type="qcurve" smooth="yes"/>
      <point x="407" y="599" type="line" smooth="yes"/>
      <point x="301" y="599"/>
      <point x="221" y="681"/>
      <point x="237" y="772" type="qcurve"/>
    </contour>
    <contour>
      <point x="552" y="631" type="line"/>
      <point x="552" y="631"/>
      <point x="552" y="631"/>
      <point x="552" y="631" type="qcurve"/>
      <point x="1137" y="631" type="line"/>
      <point x="1137" y="631"/>
      <point x="1137" y="631"/>
      <point x="1137" y="631" type="qcurve"/>
      <point x="1245" y="1251" type="line"/>
      <point x="1245" y="1251"/>
      <point x="1245" y="1251"/>
      <point x="1245" y="1251" type="qcurve"/>
      <point x="660" y="1251" type="line"/>
      <point x="660" y="1251"/>
      <point x="660" y="1251"/>
      <point x="660" y="1251" type="qcurve"/>
    </contour>
  </outline>
</glyph>
<glyph name="AE" format="2">
  <advance width="4569"/>
  <unicode hex="00C6"/>
  <anchor x="2894" y="1550" name="top"/>
  <anchor x="1956" y="-150" name="bottom"/>
  <outline>
    <contour>
      <point x="-114" y="0" type="line"/>
      <point x="1748" y="1400" type="line"/>
      <point x="4649" y="1400" type="line"/>
      <point x="4643" y="1364" type="line"/>
      <point x="2909" y="1364" type="line"/>
      <point x="2799" y="736" type="line"/>
      <point x="3881" y="736" type="line"/>
      <point x="3875" y="700" type="line"/>
      <point x="2793" y="700" type="line"/>
      <point x="2677" y="36" type="line"/>
      <point x="4445" y="36" type="line"/>
      <point x="4439" y="0" type="line"/>
      <point x="2099" y="0" type="line"/>
      <point x="2158" y="338" type="line"/>
      <point x="392" y="338" type="line"/>
      <point x="-60" y="0" type="line"/>
    </contour>
    <contour>
      <point x="439" y="374" type="line"/>
      <point x="2164" y="374" type="line"/>
      <point x="2337" y="1364" type="line"/>
      <point x="1762" y="1364" type="line"/>
    </contour>
  </outline>
</glyph>
<glyph name="Eth" format="2">
  <advance width="3202"/>
  <unicode hex="00D0"/>
  <anchor x="1440" y="1550" name="top"/>
  <anchor x="1440" y="-150" name="bottom"/>
  <outline>
    <contour>
      <point x="234.819" y="716" type="line"/>
      <point x="1503.82" y="716" type="line"/>
      <point x="1497.82" y="684" type="line"/>
      <point x="228.819" y="684" type="line"/>
    </contour>
    <contour>
      <point x="847.101" y="36" type="line"/>
      <point x="1638.1" y="36" type="line" smooth="yes"/>
      <point x="1744.1" y="36"/>
      <point x="1920.86" y="69"/>
      <point x="2065.25" y="140"/>
      <point x="2179.27" y="249"/>
      <point x="2267.62" y="400"/>
      <point x="2330.65" y="595"/>
      <point x="2351.76" y="716" type="qcurve" smooth="yes"/>
      <point x="2372.53" y="835"/>
      <point x="2375.51" y="1024"/>
      <point x="2338.63" y="1168"/>
      <point x="2260.43" y="1270"/>
      <point x="2138.6" y="1334"/>
      <point x="1974.84" y="1364"/>
      <point x="1869.84" y="1364" type="qcurve" smooth="yes"/>
      <point x="1078.84" y="1364" type="line"/>
    </contour>
    <contour>
      <point x="268.819" y="0" type="line"/>
      <point x="513.119" y="1400" type="line"/>
      <point x="2109.12" y="1400" type="line" smooth="yes"/>
      <point x="2274.12" y="1400"/>
      <point x="2534.49" y="1362"/>
      <point x="2730.05" y="1285"/>
      <point x="2860.81" y="1169"/>
      <point x="2932.59" y="1013"/>
      <point x="2945.56" y="818"/>
      <point x="2924.97" y="700" type="qcurve" smooth="yes"/>
      <point x="2903.16" y="575"/>
      <point x="2812.91" y="373"/>
      <point x="2678.86" y="218"/>
      <point x="2501.32" y="106"/>
      <point x="2279.75" y="34"/>
      <point x="2016.82" y="0"/>
      <point x="1864.82" y="0" type="qcurve" smooth="yes"/>
    </contour>
  </outline>
  <guideline x="945159"/>
  <guideline y="1549"/>
  <guideline y="700"/>
  <guideline y="700"/>
</glyph>
<glyph name="multiply" format="2">
  <advance width="1804.37"/>
  <unicode hex="00D7"/>
  <outline>
    <contour>
      <point x="188" y="140" type="line"/>
      <point x="171" y="173" type="line"/>
      <point x="852" y="589" type="line"/>
      <point x="315" y="1005" type="line"/>
      <point x="339" y="1034" type="line"/>
      <point x="887" y="610" type="line"/>
      <point x="1579" y="1033" type="line"/>
      <point x="1597" y="1001" type="line"/>
      <point x="918" y="585" type="line"/>
      <point x="1454" y="170" type="line"/>
      <point x="1430" y="141" type="line"/>
      <point x="883" y="565" type="line"/>
      <point x="188" y="140" type="line"/>
    </contour>
  </outline>
  <guideline angle="31.4328" color="1,0,0,1" x="253.351" y="140"/>
  <guideline angle="322.193" color="1,0,0,1" x="383.351" y="1003"/>
</glyph>
<glyph name="Oslash" format="2">
  <advance width="3507"/>
  <unicode hex="00D8"/>
  <anchor x="1909" y="1576" name="top"/>
  <outline>
    <contour>
      <point x="487.553" y="1066" type="line"/>
      <point x="361.553" y="346" type="line" smooth="yes"/>
      <point x="343.553" y="243"/>
      <point x="375.553" y="109"/>
      <point x="466.553" y="31"/>
      <point x="614.553" y="0"/>
      <point x="713.553" y="0" type="qcurve" smooth="yes"/>
      <point x="2551.55" y="0" type="line" smooth="yes"/>
      <point x="2650.55" y="0"/>
      <point x="2809.55" y="31"/>
      <point x="2929.55" y="109"/>
      <point x="3007.55" y="243"/>
      <point x="3025.55" y="346" type="qcurve" smooth="yes"/>
      <point x="3151.55" y="1066" type="line" smooth="yes"/>
      <point x="3169.55" y="1167"/>
      <point x="3133.55" y="1296"/>
      <point x="3038.55" y="1371"/>
      <point x="2890.55" y="1400"/>
      <point x="2795.55" y="1400" type="qcurve" smooth="yes"/>
      <point x="957.553" y="1400" type="line" smooth="yes"/>
      <point x="863.553" y="1400"/>
      <point x="705.553" y="1371"/>
      <point x="585.553" y="1296"/>
      <point x="505.553" y="1167"/>
      <point x="487.553" y="1066" type="qcurve"/>
    </contour>
    <contour>
      <point x="1111.55" y="1364" type="line"/>
      <point x="1111.55" y="1364"/>
      <point x="1111.55" y="1364"/>
      <point x="1111.55" y="1364"/>
      <point x="1111.55" y="1364"/>
      <point x="1111.55" y="1364" type="qcurve"/>
      <point x="2631.55" y="1364" type="line"/>
      <point x="2631.55" y="1364"/>
      <point x="2631.55" y="1364"/>
      <point x="2631.55" y="1364"/>
      <point x="2631.55" y="1364"/>
      <point x="2631.55" y="1364" type="qcurve"/>
      <point x="2399.55" y="36" type="line"/>
      <point x="2399.55" y="36"/>
      <point x="2399.55" y="36"/>
      <point x="2399.55" y="36"/>
      <point x="2399.55" y="36"/>
      <point x="2399.55" y="36" type="qcurve"/>
      <point x="879.553" y="36" type="line"/>
      <point x="879.553" y="36"/>
      <point x="879.553" y="36"/>
      <point x="879.553" y="36"/>
      <point x="879.553" y="36"/>
      <point x="879.553" y="36" type="qcurve"/>
    </contour>
    <contour>
      <point x="259.553" y="-24" type="line"/>
      <point x="599.553" y="137" type="line"/>
      <point x="887.553" y="273" type="line"/>
      <point x="2649.55" y="1105" type="line"/>
      <point x="2871.55" y="1210" type="line"/>
      <point x="3262.55" y="1395" type="line"/>
      <point x="3250.55" y="1426" type="line"/>
      <point x="2866.55" y="1244" type="line"/>
      <point x="2643.55" y="1139" type="line"/>
      <point x="884.553" y="309" type="line"/>
      <point x="600.553" y="175" type="line"/>
      <point x="248.553" y="8" type="line"/>
    </contour>
  </outline>
  <guideline y="-26"/>
  <guideline y="-26"/>
</glyph>
<glyph name="Thorn" format="2">
  <advance width="3317"/>
  <unicode hex="00DE"/>
  <outline>
    <contour>
      <point x="200" y="0" type="line"/>
      <point x="772" y="0" type="line"/>
      <point x="821" y="281" type="line"/>
      <point x="2537" y="281" type="line" smooth="yes"/>
      <point x="2632" y="281"/>
      <point x="2790" y="310"/>
      <point x="2911" y="385"/>
      <point x="2992" y="515"/>
      <point x="3009" y="615" type="qcurve" smooth="yes"/>
      <point x="3046" y="827" type="line" smooth="yes"/>
      <point x="3064" y="928"/>
      <point x="3028" y="1057"/>
      <point x="2933" y="1132"/>
      <point x="2786" y="1161"/>
      <point x="2691" y="1161" type="qcurve" smooth="yes"/>
      <point x="975" y="1161" type="line"/>
      <point x="1016" y="1400" type="line"/>
      <point x="444" y="1400" type="line"/>
    </contour>
    <contour>
      <point x="827" y="317" type="line"/>
      <point x="968" y="1125" type="line"/>
      <point x="2310" y="1125" type="line" smooth="yes"/>
      <point x="2367" y="1125"/>
      <point x="2449" y="1096"/>
      <point x="2498" y="1044"/>
      <point x="2515" y="970"/>
      <point x="2507" y="925" type="qcurve" smooth="yes"/>
      <point x="2436" y="517" type="line" smooth="yes"/>
      <point x="2428" y="472"/>
      <point x="2385" y="398"/>
      <point x="2318" y="346"/>
      <point x="2226" y="317"/>
      <point x="2169" y="317" type="qcurve" smooth="yes"/>
    </contour>
  </outline>
  <guideline x="1658.5" name="halfwidth" color="0.4,0.4,0.4,1"/>
</glyph>
<glyph name="germandbls" format="2">
  <advance width="2461"/>
  <unicode hex="00DF"/>
  <outline>
    <contour>
      <point x="187" y="0" type="line"/>
      <point x="711" y="0" type="line"/>
      <point x="962" y="1440" type="line"/>
      <point x="962" y="1440"/>
      <point x="962" y="1440"/>
      <point x="962" y="1440" type="qcurve"/>
      <point x="1782" y="1440" type="line"/>
      <point x="1782" y="1440"/>
      <point x="1782" y="1440"/>
      <point x="1782" y="1440" type="qcurve"/>
      <point x="1701" y="974" type="line"/>
      <point x="1701" y="974"/>
      <point x="1701" y="974"/>
      <point x="1701" y="974" type="qcurve"/>
      <point x="1205" y="974" type="line"/>
      <point x="1199" y="942" type="line"/>
      <point x="1695" y="942" type="line"/>
      <point x="1695" y="942"/>
      <point x="1695" y="942"/>
      <point x="1695" y="942"/>
      <point x="1695" y="942"/>
      <point x="1695" y="942" type="qcurve"/>
      <point x="1535" y="22" type="line"/>
      <point x="1535" y="22"/>
      <point x="1535" y="22"/>
      <point x="1535" y="22"/>
      <point x="1535" y="22"/>
      <point x="1535" y="22" type="qcurve"/>
      <point x="949" y="22" type="line"/>
      <point x="943" y="-10" type="line"/>
      <point x="1773" y="-10" type="line" smooth="yes"/>
      <point x="1838" y="-10"/>
      <point x="1945" y="9"/>
      <point x="2027" y="60"/>
      <point x="2082" y="150"/>
      <point x="2094" y="222" type="qcurve" smooth="yes"/>
      <point x="2186" y="752" type="line" smooth="yes"/>
      <point x="2195" y="802"/>
      <point x="2187" y="875"/>
      <point x="2157" y="925"/>
      <point x="2106" y="955"/>
      <point x="2073" y="963" type="qcurve"/>
      <point x="2156" y="989"/>
      <point x="2248" y="1107"/>
      <point x="2265" y="1206" type="qcurve"/>
      <point x="2268" y="1218" type="line"/>
      <point x="2291" y="1349"/>
      <point x="2165" y="1472"/>
      <point x="2006" y="1472" type="qcurve" smooth="yes"/>
      <point x="750" y="1472" type="line" smooth="yes"/>
      <point x="671" y="1472"/>
      <point x="550" y="1442"/>
      <point x="464" y="1379"/>
      <point x="411" y="1283"/>
      <point x="400" y="1218" type="qcurve" smooth="yes"/>
    </contour>
  </outline>
</glyph>
<glyph name="ae" format="2">
  <advance width="3667"/>
  <unicode hex="00E6"/>
  <anchor x="2023" y="1174" name="top"/>
  <anchor x="1772" y="-150" name="bottom"/>
  <outline>
    <contour>
      <point x="501.627" y="0" type="line"/>
      <point x="1463.63" y="0" type="line" smooth="yes"/>
      <point x="1539.63" y="0"/>
      <point x="1688.63" y="57"/>
      <point x="1739.63" y="109" type="qcurve"/>
      <point x="1774.63" y="57"/>
      <point x="1909.63" y="0"/>
      <point x="1987.63" y="0" type="qcurve" smooth="yes"/>
      <point x="2910.63" y="0" type="line" smooth="yes"/>
      <point x="2975.63" y="0"/>
      <point x="3099.63" y="22"/>
      <point x="3203.63" y="76"/>
      <point x="3276.63" y="170"/>
      <point x="3288.63" y="242" type="qcurve" smooth="yes"/>
      <point x="3294.63" y="274" type="line"/>
      <point x="2782.63" y="346" type="line"/>
      <point x="2728.63" y="32" type="line"/>
      <point x="2728.63" y="32"/>
      <point x="2728.63" y="32"/>
      <point x="2728.63" y="32" type="qcurve"/>
      <point x="1993.63" y="32" type="line"/>
      <point x="1993.63" y="32"/>
      <point x="1993.63" y="32"/>
      <point x="1993.63" y="32" type="qcurve"/>
      <point x="2074.63" y="499" type="line"/>
      <point x="3338.63" y="499" type="line"/>
      <point x="3377.63" y="724" type="line" smooth="yes"/>
      <point x="3389.63" y="794"/>
      <point x="3340.63" y="905"/>
      <point x="3232.63" y="983"/>
      <point x="3074.63" y="1024"/>
      <point x="2978.63" y="1024" type="qcurve" smooth="yes"/>
      <point x="2166.63" y="1024" type="line" smooth="yes"/>
      <point x="2088.63" y="1024"/>
      <point x="1934.63" y="970"/>
      <point x="1880.63" y="919" type="qcurve"/>
      <point x="1847.63" y="970"/>
      <point x="1717.63" y="1024"/>
      <point x="1642.63" y="1024" type="qcurve" smooth="yes"/>
      <point x="716.627" y="1024" type="line" smooth="yes"/>
      <point x="654.627" y="1024"/>
      <point x="529.627" y="1003"/>
      <point x="424.627" y="951"/>
      <point x="349.627" y="861"/>
      <point x="337.627" y="792" type="qcurve" smooth="yes"/>
      <point x="331.627" y="756" type="line"/>
      <point x="842.627" y="684" type="line"/>
      <point x="896.627" y="992" type="line"/>
      <point x="896.627" y="992"/>
      <point x="896.627" y="992"/>
      <point x="896.627" y="992" type="qcurve"/>
      <point x="1636.63" y="992" type="line"/>
      <point x="1636.63" y="992"/>
      <point x="1636.63" y="992"/>
      <point x="1636.63" y="992" type="qcurve"/>
      <point x="1556.63" y="531" type="line"/>
      <point x="594.627" y="531" type="line" smooth="yes"/>
      <point x="532.627" y="531"/>
      <point x="408.627" y="515"/>
      <point x="304.627" y="467"/>
      <point x="229.627" y="380"/>
      <point x="217.627" y="309" type="qcurve" smooth="yes"/>
      <point x="204.627" y="233" type="line" smooth="yes"/>
      <point x="191.627" y="161"/>
      <point x="232.627" y="70"/>
      <point x="317.627" y="19"/>
      <point x="436.627" y="0"/>
      <point x="501.627" y="0" type="qcurve"/>
    </contour>
    <contour>
      <point x="693.627" y="32" type="line"/>
      <point x="693.627" y="32"/>
      <point x="693.627" y="32"/>
      <point x="693.627" y="32" type="qcurve"/>
      <point x="774.627" y="499" type="line"/>
      <point x="774.627" y="499"/>
      <point x="774.627" y="499"/>
      <point x="774.627" y="499" type="qcurve"/>
      <point x="1550.63" y="499" type="line"/>
      <point x="1469.63" y="32" type="line"/>
      <point x="1469.63" y="32"/>
      <point x="1469.63" y="32"/>
      <point x="1469.63" y="32" type="qcurve"/>
    </contour>
    <contour>
      <point x="2080.63" y="531" type="line"/>
      <point x="2160.63" y="992" type="line"/>
      <point x="2160.63" y="992"/>
      <point x="2160.63" y="992"/>
      <point x="2160.63" y="992" type="qcurve"/>
      <point x="2900.63" y="992" type="line"/>
      <point x="2900.63" y="992"/>
      <point x="2900.63" y="992"/>
      <point x="2900.63" y="992" type="qcurve"/>
      <point x="2820.63" y="531" type="line"/>
    </contour>
  </outline>
</glyph>
<glyph name="eth" format="2">
  <advance width="2581"/>
  <unicode hex="00F0"/>
  <outline>
    <contour>
      <point x="899" y="1310" type="line"/>
      <point x="1037" y="1282"/>
      <point x="1272" y="1211"/>
      <point x="1460" y="1118"/>
      <point x="1597" y="1002"/>
      <point x="1680" y="856"/>
      <point x="1706" y="679"/>
      <point x="1687" y="571" type="qcurve"/>
      <point x="2203" y="526" type="line"/>
      <point x="2230" y="682"/>
      <point x="2209" y="934"/>
      <point x="2121" y="1133"/>
      <point x="1967" y="1282"/>
      <point x="1756" y="1385"/>
      <point x="1489" y="1446"/>
      <point x="1331" y="1458" type="qcurve"/>
    </contour>
    <contour>
      <point x="309" y="770" type="line"/>
      <point x="221" y="264" type="line" smooth="yes"/>
      <point x="209" y="195"/>
      <point x="227" y="95"/>
      <point x="290" y="31"/>
      <point x="401" y="0"/>
      <point x="481" y="0" type="qcurve" smooth="yes"/>
      <point x="1805" y="0" type="line" smooth="yes"/>
      <point x="1886" y="0"/>
      <point x="2007" y="31"/>
      <point x="2093" y="95"/>
      <point x="2145" y="195"/>
      <point x="2157" y="264" type="qcurve" smooth="yes"/>
      <point x="2203" y="526" type="line"/>
      <point x="1766" y="1024" type="line"/>
      <point x="660" y="1024" type="line" smooth="yes"/>
      <point x="581" y="1024"/>
      <point x="460" y="994"/>
      <point x="374" y="931"/>
      <point x="321" y="835"/>
      <point x="309" y="770" type="qcurve"/>
    </contour>
    <contour>
      <point x="872" y="992" type="line"/>
      <point x="872" y="992"/>
      <point x="872" y="992"/>
      <point x="872" y="992" type="qcurve"/>
      <point x="1760" y="992" type="line"/>
      <point x="1733" y="835" type="line"/>
      <point x="1593" y="32" type="line"/>
      <point x="1593" y="32"/>
      <point x="1593" y="32"/>
      <point x="1593" y="32" type="qcurve"/>
      <point x="705" y="32" type="line"/>
      <point x="705" y="32"/>
      <point x="705" y="32"/>
      <point x="705" y="32" type="qcurve"/>
    </contour>
    <contour>
      <point x="749" y="1147" type="line"/>
      <point x="749" y="1117" type="line"/>
      <point x="2403" y="1351" type="line"/>
      <point x="2403" y="1381" type="line"/>
    </contour>
  </outline>
</glyph>
<glyph name="oslash" format="2">
  <advance width="2622" height="1448"/>
  <unicode hex="00F8"/>
  <anchor x="1396" y="1174" name="top"/>
  <outline>
    <contour>
      <point x="270" y="264" type="line"/>
      <point x="358" y="770" type="line" smooth="yes"/>
      <point x="370" y="835"/>
      <point x="423" y="931"/>
      <point x="509" y="994"/>
      <point x="630" y="1024"/>
      <point x="709" y="1024" type="qcurve" smooth="yes"/>
      <point x="2033" y="1024" type="line" smooth="yes"/>
      <point x="2192" y="1024"/>
      <point x="2317" y="901"/>
      <point x="2294" y="770" type="qcurve" smooth="yes"/>
      <point x="2206" y="264" type="line" smooth="yes"/>
      <point x="2194" y="195"/>
      <point x="2142" y="95"/>
      <point x="2056" y="31"/>
      <point x="1935" y="0"/>
      <point x="1854" y="0" type="qcurve" smooth="yes"/>
      <point x="530" y="0" type="line" smooth="yes"/>
      <point x="450" y="0"/>
      <point x="339" y="31"/>
      <point x="276" y="95"/>
      <point x="258" y="195"/>
      <point x="270" y="264" type="qcurve"/>
    </contour>
    <contour>
      <point x="754" y="32" type="line"/>
      <point x="754" y="32"/>
      <point x="754" y="32"/>
      <point x="754" y="32" type="qcurve"/>
      <point x="1642" y="32" type="line"/>
      <point x="1642" y="32"/>
      <point x="1642" y="32"/>
      <point x="1642" y="32" type="qcurve"/>
      <point x="1809" y="992" type="line"/>
      <point x="1809" y="992"/>
      <point x="1809" y="992"/>
      <point x="1809" y="992" type="qcurve"/>
      <point x="921" y="992" type="line"/>
      <point x="921" y="992"/>
      <point x="921" y="992"/>
      <point x="921" y="992" type="qcurve"/>
    </contour>
    <contour>
      <point x="186" y="-24" type="line"/>
      <point x="174" y="4" type="line"/>
      <point x="448" y="133" type="line"/>
      <point x="741" y="247" type="line"/>
      <point x="1839" y="807" type="line"/>
      <point x="2072" y="904" type="line"/>
      <point x="2375" y="1048" type="line"/>
      <point x="2386" y="1020" type="line"/>
      <point x="2076" y="873" type="line"/>
      <point x="1846" y="777" type="line"/>
      <point x="745" y="215" type="line"/>
      <point x="448" y="100" type="line"/>
    </contour>
  </outline>
  <guideline angle="0" x="0" y="1048"/>
  <guideline angle="0" x="0" y="-26"/>
</glyph>
<glyph name="thorn" format="2">
  <advance width="2628"/>
  <unicode hex="00FE"/>
  <outline>
    <contour>
      <point x="125" y="-428" type="line"/>
      <point x="457" y="1472" type="line"/>
      <point x="981" y="1472" type="line"/>
      <point x="898" y="996" type="line"/>
      <point x="911" y="1010"/>
      <point x="952" y="1024"/>
      <point x="979" y="1024" type="qcurve" smooth="yes"/>
      <point x="2093" y="1024" type="line" smooth="yes"/>
      <point x="2173" y="1024"/>
      <point x="2284" y="993"/>
      <point x="2347" y="929"/>
      <point x="2365" y="829"/>
      <point x="2353" y="760" type="qcurve" smooth="yes"/>
      <point x="2264" y="254" type="line" smooth="yes"/>
      <point x="2253" y="189"/>
      <point x="2200" y="93"/>
      <point x="2114" y="30"/>
      <point x="1994" y="0"/>
      <point x="1914" y="0" type="qcurve" smooth="yes"/>
      <point x="800" y="0" type="line" smooth="yes"/>
      <point x="768" y="0"/>
      <point x="732" y="12"/>
      <point x="728" y="24" type="qcurve"/>
      <point x="649" y="-428" type="line"/>
    </contour>
    <contour>
      <point x="730" y="32" type="line"/>
      <point x="1702" y="32" type="line"/>
      <point x="1702" y="32"/>
      <point x="1702" y="32"/>
      <point x="1702" y="32" type="qcurve"/>
      <point x="1869" y="992" type="line"/>
      <point x="1869" y="992"/>
      <point x="1869" y="992"/>
      <point x="1869" y="992" type="qcurve"/>
      <point x="897" y="992" type="line"/>
    </contour>
  </outline>
</glyph>
<glyph name="Hbar" format="2">
  <advance width="3501"/>
  <unicode hex="0126"/>
  <anchor x="1902" y="1550" name="top"/>
  <anchor x="1605" y="-150" name="bottom"/>
  <anchor x="351" y="700" name="left"/>
  <outline>
    <contour>
      <point x="329" y="0" type="line"/>
      <point x="901" y="0" type="line"/>
      <point x="1145" y="1400" type="line"/>
      <point x="573" y="1400" type="line"/>
    </contour>
    <contour>
      <point x="2361" y="0" type="line"/>
      <point x="2933" y="0" type="line"/>
      <point x="3177" y="1400" type="line"/>
      <point x="2605" y="1400" type="line"/>
    </contour>
    <contour>
      <point x="995" y="710" type="line"/>
      <point x="2515" y="710" type="line"/>
      <point x="2521" y="746" type="line"/>
      <point x="1001" y="746" type="line"/>
    </contour>
    <contour>
      <point x="409" y="1034" type="line"/>
      <point x="3213" y="1034" type="line"/>
      <point x="3219" y="1066" type="line"/>
      <point x="415" y="1066" type="line"/>
    </contour>
  </outline>
  <guideline y="1050" color="1,0,0,1"/>
</glyph>
<glyph name="hbar" format="2">
  <advance width="2620"/>
  <unicode hex="0127"/>
  <anchor x="795" y="1622" name="top"/>
  <anchor x="1170" y="-150" name="bottom"/>
  <anchor x="239" y="512" name="left"/>
  <outline>
    <contour>
      <point x="249.549" y="0" type="line"/>
      <point x="465.549" y="1235" type="line"/>
      <point x="365.549" y="1235" type="line"/>
      <point x="370.549" y="1267" type="line"/>
      <point x="470.549" y="1267" type="line"/>
      <point x="506.549" y="1472" type="line"/>
      <point x="1030.55" y="1472" type="line"/>
      <point x="994.549" y="1267" type="line"/>
      <point x="1412.55" y="1267" type="line"/>
      <point x="1407.55" y="1235" type="line"/>
      <point x="989.549" y="1235" type="line"/>
      <point x="947.549" y="996" type="line"/>
      <point x="960.549" y="1010"/>
      <point x="1001.55" y="1024"/>
      <point x="1028.55" y="1024" type="qcurve" smooth="yes"/>
      <point x="2004.55" y="1024" type="line" smooth="yes"/>
      <point x="2102.55" y="1024"/>
      <point x="2234.55" y="988"/>
      <point x="2309.55" y="914"/>
      <point x="2330.55" y="801"/>
      <point x="2317.55" y="724" type="qcurve" smooth="yes"/>
      <point x="2191.55" y="0" type="line"/>
      <point x="1667.55" y="0" type="line"/>
      <point x="1840.55" y="992" type="line"/>
      <point x="1840.55" y="992"/>
      <point x="1840.55" y="992"/>
      <point x="1840.55" y="992" type="qcurve"/>
      <point x="946.549" y="992" type="line"/>
      <point x="773.549" y="0" type="line"/>
    </contour>
  </outline>
  <guideline y="1251" color="1,0,0,1"/>
  <guideline x="1369" y="992" angle="260.108" color="1,0,0,1"/>
</glyph>
<glyph name="dotlessi" format="2">
  <advance width="1163"/>
  <unicode hex="0131"/>
  <anchor x="435" y="-150" name="bottom"/>
  <anchor x="666" y="1174" name="top"/>
  <anchor x="237" y="0" name="ogonek"/>
  <outline>
    <contour>
      <point x="198.701" y="0" type="line"/>
      <point x="722.701" y="0" type="line"/>
      <point x="901.701" y="1024" type="line"/>
      <point x="377.701" y="1024" type="line"/>
    </contour>
  </outline>
</glyph>
<glyph name="Lslash" format="2">
  <advance width="2750"/>
  <unicode hex="0141"/>
  <outline>
    <contour>
      <point x="280" y="0" type="line"/>
      <point x="524" y="1400" type="line"/>
      <point x="1096" y="1400" type="line"/>
      <point x="858" y="36" type="line"/>
      <point x="2626" y="36" type="line"/>
      <point x="2620" y="0" type="line"/>
    </contour>
    <contour>
      <point x="1582" y="920" type="line"/>
      <point x="1575" y="884" type="line"/>
      <point x="87" y="374" type="line"/>
      <point x="94" y="410" type="line"/>
    </contour>
  </outline>
  <guideline x="945359"/>
  <guideline y="1549"/>
  <guideline x="944178"/>
</glyph>
<glyph name="lslash" format="2">
  <advance width="1244"/>
  <unicode hex="0142"/>
  <outline>
    <contour>
      <point x="240" y="0" type="line"/>
      <point x="764" y="0" type="line"/>
      <point x="1021" y="1472" type="line"/>
      <point x="497" y="1472" type="line"/>
    </contour>
    <contour>
      <point x="1207" y="933" type="line"/>
      <point x="54" y="539" type="line"/>
      <point x="48" y="503" type="line"/>
      <point x="1201" y="897" type="line"/>
    </contour>
  </outline>
  <guideline x="945359"/>
  <guideline y="1549"/>
  <guideline x="944178"/>
  <guideline y="736"/>
</glyph>
<glyph name="Eng" format="2">
  <advance width="3148"/>
  <unicode hex="014A"/>
  <outline>
    <contour>
      <point x="280" y="0" type="line"/>
      <point x="316" y="0" type="line"/>
      <point x="463" y="843" type="line"/>
      <point x="2582" y="-57" type="line"/>
      <point x="2546" y="-260" type="line" smooth="yes"/>
      <point x="2534" y="-326"/>
      <point x="2463" y="-396"/>
      <point x="2396" y="-396" type="qcurve" smooth="yes"/>
      <point x="1396" y="-396" type="line"/>
      <point x="1400" y="-428" type="line"/>
      <point x="2390" y="-428" type="line" smooth="yes"/>
      <point x="2429" y="-428"/>
      <point x="2494" y="-407"/>
      <point x="2542" y="-366"/>
      <point x="2574" y="-305"/>
      <point x="2581" y="-266" type="qcurve" smooth="yes"/>
      <point x="2872" y="1400" type="line"/>
      <point x="2836" y="1400" type="line"/>
      <point x="2689" y="557" type="line"/>
      <point x="700" y="1400" type="line"/>
      <point x="524" y="1400" type="line"/>
    </contour>
  </outline>
</glyph>
<glyph name="eng" format="2">
  <advance width="2519"/>
  <unicode hex="014B"/>
  <anchor x="1841" y="1174" name="top"/>
  <anchor x="1119" y="-150" name="bottom"/>
  <anchor x="188" y="512" name="left"/>
  <outline>
    <contour>
      <point x="199" y="0" type="line"/>
      <point x="723" y="0" type="line"/>
      <point x="896" y="992" type="line"/>
      <point x="1740" y="992" type="line"/>
      <point x="1740" y="992"/>
      <point x="1740" y="992"/>
      <point x="1740" y="992" type="qcurve"/>
      <point x="1498" y="-396" type="line"/>
      <point x="1498" y="-396"/>
      <point x="1498" y="-396"/>
      <point x="1498" y="-396" type="qcurve"/>
      <point x="1066" y="-396" type="line"/>
      <point x="1070" y="-428" type="line"/>
      <point x="1756" y="-428" type="line" smooth="yes"/>
      <point x="1815" y="-428"/>
      <point x="1919" y="-381"/>
      <point x="2002" y="-296"/>
      <point x="2060" y="-176"/>
      <point x="2073" y="-102" type="qcurve" smooth="yes"/>
      <point x="2217" y="724" type="line" smooth="yes"/>
      <point x="2231" y="801"/>
      <point x="2209" y="914"/>
      <point x="2134" y="988"/>
      <point x="2002" y="1024"/>
      <point x="1904" y="1024" type="qcurve" smooth="yes"/>
      <point x="978" y="1024" type="line" smooth="yes"/>
      <point x="951" y="1024"/>
      <point x="910" y="1010"/>
      <point x="897" y="996" type="qcurve"/>
      <point x="902" y="1024" type="line"/>
      <point x="378" y="1024" type="line"/>
    </contour>
  </outline>
  <guideline x="1145" y="-0" angle="260.097" color="1,0,0,1"/>
  <guideline x="461" y="-0" angle="260.06" color="1,0,0,1"/>
</glyph>
<glyph name="OE" format="2">
  <advance width="4811"/>
  <unicode hex="0152"/>
  <outline>
    <contour>
      <point x="661" y="0" type="line"/>
      <point x="4681" y="0" type="line"/>
      <point x="4687" y="36" type="line"/>
      <point x="2919" y="36" type="line"/>
      <point x="3035" y="700" type="line"/>
      <point x="4117" y="700" type="line"/>
      <point x="4123" y="736" type="line"/>
      <point x="3041" y="736" type="line"/>
      <point x="3151" y="1364" type="line"/>
      <point x="4885" y="1364" type="line"/>
      <point x="4891" y="1400" type="line"/>
      <point x="905" y="1400" type="line" smooth="yes"/>
      <point x="811" y="1400"/>
      <point x="653" y="1371"/>
      <point x="533" y="1296"/>
      <point x="453" y="1167"/>
      <point x="435" y="1066" type="qcurve" smooth="yes"/>
      <point x="309" y="346" type="line" smooth="yes"/>
      <point x="291" y="243"/>
      <point x="323" y="109"/>
      <point x="414" y="31"/>
      <point x="562" y="0"/>
      <point x="661" y="0" type="qcurve"/>
    </contour>
    <contour>
      <point x="2347" y="36" type="line"/>
      <point x="827" y="36" type="line"/>
      <point x="827" y="36"/>
      <point x="827" y="36"/>
      <point x="827" y="36"/>
      <point x="827" y="36"/>
      <point x="827" y="36" type="qcurve"/>
      <point x="1059" y="1364" type="line"/>
      <point x="1059" y="1364"/>
      <point x="1059" y="1364"/>
      <point x="1059" y="1364"/>
      <point x="1059" y="1364"/>
      <point x="1059" y="1364" type="qcurve"/>
      <point x="2579" y="1364" type="line"/>
    </contour>
  </outline>
  <guideline angle="260.095" color="1,0,0,1" x="2579" y="1364"/>
</glyph>
<glyph name="oe" format="2">
  <advance width="3860"/>
  <unicode hex="0153"/>
  <anchor x="3947" y="1174" name="top"/>
  <anchor x="3716" y="-150" name="bottom"/>
  <outline>
    <contour>
      <point x="513" y="0" type="line"/>
      <point x="1559" y="0" type="line" smooth="yes"/>
      <point x="1647" y="0"/>
      <point x="1785" y="42"/>
      <point x="1831" y="88" type="qcurve"/>
      <point x="1863" y="41"/>
      <point x="1992" y="0"/>
      <point x="2083" y="0" type="qcurve" smooth="yes"/>
      <point x="3104" y="0" type="line" smooth="yes"/>
      <point x="3169" y="0"/>
      <point x="3293" y="22"/>
      <point x="3397" y="76"/>
      <point x="3470" y="170"/>
      <point x="3482" y="242" type="qcurve" smooth="yes"/>
      <point x="3488" y="274" type="line"/>
      <point x="2976" y="346" type="line"/>
      <point x="2922" y="32" type="line"/>
      <point x="2922" y="32"/>
      <point x="2922" y="32"/>
      <point x="2922" y="32" type="qcurve"/>
      <point x="2089" y="32" type="line"/>
      <point x="2089" y="32"/>
      <point x="2089" y="32"/>
      <point x="2089" y="32" type="qcurve"/>
      <point x="2170" y="499" type="line"/>
      <point x="3532" y="499" type="line"/>
      <point x="3571" y="724" type="line" smooth="yes"/>
      <point x="3583" y="794"/>
      <point x="3534" y="905"/>
      <point x="3426" y="983"/>
      <point x="3268" y="1024"/>
      <point x="3172" y="1024" type="qcurve" smooth="yes"/>
      <point x="2262" y="1024" type="line" smooth="yes"/>
      <point x="2171" y="1024"/>
      <point x="2028" y="985"/>
      <point x="1980" y="940" type="qcurve"/>
      <point x="1949" y="985"/>
      <point x="1826" y="1024"/>
      <point x="1738" y="1024" type="qcurve" smooth="yes"/>
      <point x="692" y="1024" type="line" smooth="yes"/>
      <point x="630" y="1024"/>
      <point x="505" y="1003"/>
      <point x="400" y="951"/>
      <point x="325" y="861"/>
      <point x="313" y="792" type="qcurve" smooth="yes"/>
      <point x="216" y="233" type="line" smooth="yes"/>
      <point x="203" y="161"/>
      <point x="244" y="70"/>
      <point x="329" y="19"/>
      <point x="448" y="0"/>
      <point x="513" y="0" type="qcurve"/>
    </contour>
    <contour>
      <point x="3014" y="531" type="line"/>
      <point x="2176" y="531" type="line"/>
      <point x="2256" y="992" type="line"/>
      <point x="2256" y="992"/>
      <point x="2256" y="992"/>
      <point x="2256" y="992" type="qcurve"/>
      <point x="3094" y="992" type="line"/>
      <point x="3094" y="992"/>
      <point x="3094" y="992"/>
      <point x="3094" y="992" type="qcurve"/>
    </contour>
    <contour>
      <point x="705" y="32" type="line"/>
      <point x="872" y="992" type="line"/>
      <point x="872" y="992"/>
      <point x="872" y="992"/>
      <point x="872" y="992" type="qcurve"/>
      <point x="1732" y="992" type="line"/>
      <point x="1732" y="992"/>
      <point x="1732" y="992"/>
      <point x="1732" y="992" type="qcurve"/>
      <point x="1565" y="32" type="line"/>
      <point x="1565" y="32"/>
      <point x="1565" y="32"/>
      <point x="1565" y="32" type="qcurve"/>
      <point x="705" y="32" type="line"/>
      <point x="705" y="32"/>
      <point x="705" y="32"/>
      <point x="705" y="32" type="qcurve"/>
    </contour>
  </outline>
  <guideline x="1810" y="-0" angle="260.097" color="1,0,0,1"/>
</glyph>
<glyph name="tbar" format="2">
  <advance width="1538.79"/>
  <unicode hex="0167"/>
  <anchor x="889.773" y="1394" name="top"/>
  <anchor x="620.773" y="-150" name="bottom"/>
  <outline>
    <contour>
      <point x="587" y="0" type="line" smooth="yes"/>
      <point x="504" y="0"/>
      <point x="393" y="28"/>
      <point x="330" y="90"/>
      <point x="314" y="187"/>
      <point x="326" y="256" type="qcurve" smooth="yes"/>
      <point x="411" y="743" type="line"/>
      <point x="231" y="743" type="line"/>
      <point x="237" y="775" type="line"/>
      <point x="416" y="775" type="line"/>
      <point x="454" y="992" type="line"/>
      <point x="182" y="992" type="line"/>
      <point x="188" y="1024" type="line"/>
      <point x="460" y="1024" type="line"/>
      <point x="498" y="1244" type="line"/>
      <point x="1022" y="1244" type="line"/>
      <point x="984" y="1024" type="line"/>
      <point x="1464" y="1024" type="line"/>
      <point x="1458" y="992" type="line"/>
      <point x="978" y="992" type="line"/>
      <point x="940" y="775" type="line"/>
      <point x="1322" y="775" type="line"/>
      <point x="1316" y="743" type="line"/>
      <point x="935" y="743" type="line"/>
      <point x="811" y="32" type="line"/>
      <point x="811" y="32"/>
      <point x="811" y="32"/>
      <point x="811" y="32" type="qcurve"/>
      <point x="1261" y="32" type="line"/>
      <point x="1245" y="0" type="line"/>
    </contour>
  </outline>
</glyph>
<glyph name="uni018F" format="2">
  <advance width="3232"/>
  <unicode hex="018F"/>
  <anchor x="1762" y="1550" name="top"/>
  <anchor x="1465" y="-150" name="bottom"/>
  <outline>
    <contour>
      <point x="655.429" y="0" type="line" smooth="yes"/>
      <point x="556.429" y="0"/>
      <point x="407.429" y="31"/>
      <point x="315.429" y="109"/>
      <point x="283.429" y="243"/>
      <point x="301.429" y="346" type="qcurve" smooth="yes"/>
      <point x="363.429" y="700" type="line"/>
      <point x="2293.43" y="700" type="line"/>
      <point x="2409.43" y="1364" type="line"/>
      <point x="2409.43" y="1364"/>
      <point x="2409.43" y="1364"/>
      <point x="2409.43" y="1364"/>
      <point x="2409.43" y="1364"/>
      <point x="2409.43" y="1364" type="qcurve"/>
      <point x="1057.43" y="1364" type="line"/>
      <point x="1057.43" y="1364"/>
      <point x="1057.43" y="1364"/>
      <point x="1057.43" y="1364"/>
      <point x="1057.43" y="1364"/>
      <point x="1057.43" y="1364" type="qcurve"/>
      <point x="977.429" y="906" type="line"/>
      <point x="424.429" y="1012" type="line"/>
      <point x="433.429" y="1066" type="line" smooth="yes"/>
      <point x="450.429" y="1167"/>
      <point x="531.429" y="1296"/>
      <point x="652.429" y="1371"/>
      <point x="811.429" y="1400"/>
      <point x="905.429" y="1400" type="qcurve" smooth="yes"/>
      <point x="2575.43" y="1400" type="line" smooth="yes"/>
      <point x="2670.43" y="1400"/>
      <point x="2817.43" y="1371"/>
      <point x="2911.43" y="1296"/>
      <point x="2947.43" y="1167"/>
      <point x="2929.43" y="1066" type="qcurve" smooth="yes"/>
      <point x="2803.43" y="346" type="line" smooth="yes"/>
      <point x="2785.43" y="243"/>
      <point x="2708.43" y="109"/>
      <point x="2589.43" y="31"/>
      <point x="2430.43" y="0"/>
      <point x="2331.43" y="0" type="qcurve" smooth="yes"/>
    </contour>
    <contour>
      <point x="929.429" y="664" type="line"/>
      <point x="819.429" y="36" type="line"/>
      <point x="819.429" y="36"/>
      <point x="819.429" y="36"/>
      <point x="819.429" y="36"/>
      <point x="819.429" y="36"/>
      <point x="819.429" y="36" type="qcurve"/>
      <point x="2177.43" y="36" type="line"/>
      <point x="2177.43" y="36"/>
      <point x="2177.43" y="36"/>
      <point x="2177.43" y="36"/>
      <point x="2177.43" y="36"/>
      <point x="2177.43" y="36" type="qcurve"/>
      <point x="2287.43" y="664" type="line"/>
    </contour>
  </outline>
</glyph>
<glyph name="florin" format="2">
  <advance width="2031"/>
  <unicode hex="0192"/>
  <outline>
    <contour>
      <point x="-195" y="-428" type="line"/>
      <point x="-172" y="-396" type="line"/>
      <point x="344" y="-396" type="line"/>
      <point x="344" y="-396"/>
      <point x="344" y="-396"/>
      <point x="344" y="-396" type="qcurve"/>
      <point x="809" y="808" type="line"/>
      <point x="537" y="808" type="line"/>
      <point x="550" y="840" type="line"/>
      <point x="822" y="840" type="line"/>
      <point x="952" y="1176" type="line" smooth="yes"/>
      <point x="982" y="1254"/>
      <point x="1066" y="1366"/>
      <point x="1173" y="1438"/>
      <point x="1303" y="1472"/>
      <point x="1381" y="1472" type="qcurve" smooth="yes"/>
      <point x="2171" y="1472" type="line"/>
      <point x="2148" y="1440" type="line"/>
      <point x="1578" y="1440" type="line"/>
      <point x="1578" y="1440"/>
      <point x="1578" y="1440"/>
      <point x="1578" y="1440" type="qcurve"/>
      <point x="1346" y="840" type="line"/>
      <point x="1796" y="840" type="line"/>
      <point x="1783" y="808" type="line"/>
      <point x="1333" y="808" type="line"/>
      <point x="981" y="-102" type="line" smooth="yes"/>
      <point x="952" y="-176"/>
      <point x="868" y="-296"/>
      <point x="767" y="-381"/>
      <point x="653" y="-428"/>
      <point x="595" y="-428" type="qcurve" smooth="yes"/>
    </contour>
  </outline>
</glyph>
<glyph name="uni0237" format="2">
  <advance width="1164"/>
  <unicode hex="0237"/>
  <anchor x="678" y="1174" name="top"/>
  <outline>
    <contour>
      <point x="-849.874" y="-396" type="line"/>
      <point x="-845.874" y="-428" type="line"/>
      <point x="400.126" y="-428" type="line" smooth="yes"/>
      <point x="459.126" y="-428"/>
      <point x="563.126" y="-381"/>
      <point x="646.126" y="-296"/>
      <point x="704.126" y="-176"/>
      <point x="717.126" y="-102" type="qcurve" smooth="yes"/>
      <point x="914.126" y="1024" type="line"/>
      <point x="390.126" y="1024" type="line"/>
      <point x="142.126" y="-396" type="line"/>
      <point x="142.126" y="-396"/>
      <point x="142.126" y="-396"/>
      <point x="142.126" y="-396" type="qcurve"/>
    </contour>
  </outline>
</glyph>
<glyph name="acutecomb" format="2">
  <unicode hex="0301"/>
  <anchor x="81" y="1150" name="_top"/>
  <anchor x="-123" y="1100" name="_topright"/>
  <outline>
    <contour>
      <point x="-183" y="1100" type="line"/>
      <point x="209" y="1448" type="line"/>
      <point x="970" y="1448" type="line"/>
      <point x="-134" y="1100" type="line"/>
    </contour>
  </outline>
</glyph>
<glyph name="uni0302" format="2">
  <unicode hex="0302"/>
  <anchor x="66" y="1100" name="_top"/>
  <anchor x="154" y="1598" name="_bottom"/>
  <anchor x="893" y="1274" name="topright"/>
  <anchor x="145" y="1548" name="top"/>
  <outline>
    <contour>
      <point x="-623" y="1100" type="line"/>
      <point x="-117" y="1448" type="line"/>
      <point x="428" y="1448" type="line"/>
      <point x="862" y="1100" type="line"/>
      <point x="265" y="1100" type="line"/>
      <point x="-95" y="1428" type="line"/>
      <point x="-571" y="1100" type="line"/>
    </contour>
  </outline>
</glyph>
<glyph name="tildecomb" format="2">
  <unicode hex="0303"/>
  <anchor x="76" y="1150" name="_top"/>
  <anchor x="146" y="1547" name="top"/>
  <outline>
    <contour>
      <point x="-479" y="1125" type="line"/>
      <point x="-452" y="1200"/>
      <point x="-378" y="1317"/>
      <point x="-279" y="1399"/>
      <point x="-154" y="1442"/>
      <point x="-76" y="1442" type="qcurve" smooth="yes"/>
      <point x="-30" y="1442"/>
      <point x="72" y="1420"/>
      <point x="177" y="1388"/>
      <point x="282" y="1349"/>
      <point x="380" y="1317"/>
      <point x="467" y="1295"/>
      <point x="501" y="1295" type="qcurve" smooth="yes"/>
      <point x="535" y="1295"/>
      <point x="583" y="1317"/>
      <point x="616" y="1350"/>
      <point x="635" y="1386"/>
      <point x="640" y="1399" type="qcurve"/>
      <point x="669" y="1394" type="line"/>
      <point x="643" y="1325"/>
      <point x="569" y="1209"/>
      <point x="470" y="1125"/>
      <point x="344" y="1077"/>
      <point x="266" y="1077" type="qcurve" smooth="yes"/>
      <point x="220" y="1077"/>
      <point x="118" y="1099"/>
      <point x="13" y="1131"/>
      <point x="-92" y="1170"/>
      <point x="-190" y="1202"/>
      <point x="-277" y="1224"/>
      <point x="-311" y="1224" type="qcurve" smooth="yes"/>
      <point x="-345" y="1224"/>
      <point x="-393" y="1202"/>
      <point x="-426" y="1169"/>
      <point x="-445" y="1134"/>
      <point x="-450" y="1120" type="qcurve"/>
    </contour>
  </outline>
  <guideline angle="90" x="-540" y="0"/>
  <guideline angle="90" x="430" y="0"/>
  <guideline angle="90" x="-510" y="0"/>
  <guideline angle="90" x="400" y="0"/>
</glyph>
<glyph name="uni0304" format="2">
  <unicode hex="0304"/>
  <anchor x="85" y="1174" name="_top"/>
  <anchor x="123" y="1390" name="top"/>
  <outline>
    <contour>
      <point x="-430" y="1258" type="line"/>
      <point x="630" y="1258" type="line"/>
      <point x="635" y="1290" type="line"/>
      <point x="-425" y="1290" type="line"/>
    </contour>
  </outline>
</glyph>
<glyph name="uni0306" format="2">
  <unicode hex="0306"/>
  <anchor x="85" y="1174" name="_top"/>
  <anchor x="152" y="1561" name="top"/>
  <outline>
    <contour>
      <point x="-344" y="1461" type="line"/>
      <point x="-361" y="1362"/>
      <point x="-344" y="1224"/>
      <point x="-252" y="1138"/>
      <point x="-72" y="1099"/>
      <point x="73" y="1099" type="qcurve" smooth="yes"/>
      <point x="218" y="1099"/>
      <point x="411" y="1138"/>
      <point x="532" y="1224"/>
      <point x="597" y="1362"/>
      <point x="614" y="1461" type="qcurve"/>
      <point x="349" y="1461" type="line"/>
      <point x="330" y="1351"/>
      <point x="275" y="1220"/>
      <point x="206" y="1151"/>
      <point x="125" y="1131"/>
      <point x="78" y="1131" type="qcurve" smooth="yes"/>
      <point x="30" y="1131"/>
      <point x="-45" y="1151"/>
      <point x="-90" y="1220"/>
      <point x="-98" y="1351"/>
      <point x="-79" y="1461" type="qcurve"/>
    </contour>
  </outline>
</glyph>
<glyph name="uni0307" format="2">
  <unicode hex="0307"/>
  <anchor x="86" y="1174" name="_top"/>
  <anchor x="165" y="1622" name="_bottom"/>
  <anchor x="149" y="1530" name="top"/>
  <outline>
    <contour>
      <point x="-87" y="1342" type="line" smooth="yes"/>
      <point x="-80" y="1382"/>
      <point x="-69" y="1425"/>
      <point x="-44" y="1446"/>
      <point x="2" y="1450"/>
      <point x="42" y="1450" type="qcurve" smooth="yes"/>
      <point x="214" y="1450" type="line" smooth="yes"/>
      <point x="255" y="1450"/>
      <point x="298" y="1446"/>
      <point x="315" y="1425"/>
      <point x="312" y="1382"/>
      <point x="305" y="1342" type="qcurve" smooth="yes"/>
      <point x="282" y="1210" type="line" smooth="yes"/>
      <point x="275" y="1170"/>
      <point x="264" y="1127"/>
      <point x="239" y="1106"/>
      <point x="194" y="1102"/>
      <point x="153" y="1102" type="qcurve" smooth="yes"/>
      <point x="-19" y="1102" type="line" smooth="yes"/>
      <point x="-60" y="1102"/>
      <point x="-103" y="1106"/>
      <point x="-120" y="1127"/>
      <point x="-117" y="1170"/>
      <point x="-110" y="1210" type="qcurve" smooth="yes"/>
    </contour>
  </outline>
</glyph>
<glyph name="uni0308" format="2">
  <unicode hex="0308"/>
  <anchor x="79" y="1172" name="_top"/>
  <anchor x="158" y="1622" name="_bottom"/>
  <anchor x="149" y="1570" name="top"/>
  <outline>
    <contour>
      <point x="-389" y="1220" type="line" smooth="yes"/>
      <point x="-396" y="1180"/>
      <point x="-400" y="1135"/>
      <point x="-382" y="1114"/>
      <point x="-339" y="1110"/>
      <point x="-298" y="1110" type="qcurve" smooth="yes"/>
      <point x="-146" y="1110" type="line" smooth="yes"/>
      <point x="-106" y="1110"/>
      <point x="-60" y="1114"/>
      <point x="-36" y="1135"/>
      <point x="-24" y="1180"/>
      <point x="-17" y="1220" type="qcurve" smooth="yes"/>
      <point x="5" y="1342" type="line" smooth="yes"/>
      <point x="12" y="1382"/>
      <point x="15" y="1425"/>
      <point x="-2" y="1446"/>
      <point x="-46" y="1450"/>
      <point x="-86" y="1450" type="qcurve" smooth="yes"/>
      <point x="-238" y="1450" type="line" smooth="yes"/>
      <point x="-279" y="1450"/>
      <point x="-324" y="1446"/>
      <point x="-349" y="1425"/>
      <point x="-360" y="1382"/>
      <point x="-367" y="1342" type="qcurve" smooth="yes"/>
    </contour>
    <contour>
      <point x="191" y="1220" type="line" smooth="yes"/>
      <point x="184" y="1180"/>
      <point x="180" y="1135"/>
      <point x="198" y="1114"/>
      <point x="242" y="1110"/>
      <point x="282" y="1110" type="qcurve" smooth="yes"/>
      <point x="434" y="1110" type="line" smooth="yes"/>
      <point x="475" y="1110"/>
      <point x="520" y="1114"/>
      <point x="544" y="1135"/>
      <point x="556" y="1180"/>
      <point x="563" y="1220" type="qcurve" smooth="yes"/>
      <point x="585" y="1342" type="line" smooth="yes"/>
      <point x="592" y="1382"/>
      <point x="595" y="1425"/>
      <point x="578" y="1446"/>
      <point x="535" y="1450"/>
      <point x="494" y="1450" type="qcurve" smooth="yes"/>
      <point x="342" y="1450" type="line" smooth="yes"/>
      <point x="302" y="1450"/>
      <point x="256" y="1446"/>
      <point x="231" y="1425"/>
      <point x="220" y="1382"/>
      <point x="213" y="1342" type="qcurve" smooth="yes"/>
    </contour>
  </outline>
</glyph>
<glyph name="uni0309" format="2">
  <unicode hex="0309"/>
  <anchor x="85" y="1174" name="_top"/>
  <anchor x="38" y="1100" name="_topright"/>
  <outline>
    <contour>
      <point x="-22" y="1100" type="line"/>
      <point x="140" y="1100" type="line"/>
      <point x="173" y="1108"/>
      <point x="246" y="1141"/>
      <point x="309" y="1190"/>
      <point x="356" y="1255"/>
      <point x="363" y="1296" type="qcurve" smooth="yes"/>
      <point x="370" y="1335"/>
      <point x="348" y="1403"/>
      <point x="293" y="1452"/>
      <point x="209" y="1480"/>
      <point x="155" y="1480" type="qcurve" smooth="yes"/>
      <point x="122" y="1480"/>
      <point x="60" y="1471"/>
      <point x="5" y="1455"/>
      <point x="-41" y="1436"/>
      <point x="-56" y="1425" type="qcurve"/>
      <point x="-44" y="1401" type="line"/>
      <point x="-21" y="1414"/>
      <point x="25" y="1432"/>
      <point x="45" y="1432" type="qcurve" smooth="yes"/>
      <point x="85" y="1432"/>
      <point x="108" y="1358"/>
      <point x="98" y="1302" type="qcurve" smooth="yes"/>
      <point x="89" y="1247"/>
      <point x="25" y="1143"/>
      <point x="-22" y="1100" type="qcurve"/>
    </contour>
  </outline>
</glyph>
<glyph name="uni030A" format="2">
  <unicode hex="030A"/>
  <anchor x="81" y="1150" name="_top"/>
  <anchor x="158" y="1594" name="top"/>
  <outline>
    <contour>
      <point x="-199" y="1291" type="line"/>
      <point x="-211" y="1224"/>
      <point x="-204" y="1147"/>
      <point x="-146" y="1108"/>
      <point x="-28" y="1098"/>
      <point x="72" y="1098" type="qcurve" smooth="yes"/>
      <point x="172" y="1098"/>
      <point x="293" y="1108"/>
      <point x="364" y="1147"/>
      <point x="397" y="1224"/>
      <point x="409" y="1291" type="qcurve" smooth="yes"/>
      <point x="421" y="1358"/>
      <point x="414" y="1435"/>
      <point x="357" y="1474"/>
      <point x="239" y="1484"/>
      <point x="139" y="1484" type="qcurve" smooth="yes"/>
      <point x="39" y="1484"/>
      <point x="-83" y="1474"/>
      <point x="-154" y="1435"/>
      <point x="-187" y="1358"/>
      <point x="-199" y="1291" type="qcurve"/>
    </contour>
    <contour>
      <point x="15" y="1291" type="line"/>
      <point x="25" y="1348"/>
      <point x="41" y="1413"/>
      <point x="64" y="1447"/>
      <point x="102" y="1456"/>
      <point x="134" y="1456" type="qcurve" smooth="yes"/>
      <point x="166" y="1456"/>
      <point x="201" y="1447"/>
      <point x="213" y="1413"/>
      <point x="205" y="1348"/>
      <point x="195" y="1291" type="qcurve" smooth="yes"/>
      <point x="185" y="1235"/>
      <point x="170" y="1170"/>
      <point x="147" y="1136"/>
      <point x="109" y="1126"/>
      <point x="77" y="1126" type="qcurve" smooth="yes"/>
      <point x="45" y="1126"/>
      <point x="10" y="1136"/>
      <point x="-2" y="1170"/>
      <point x="5" y="1235"/>
      <point x="15" y="1291" type="qcurve"/>
    </contour>
  </outline>
</glyph>
<glyph name="uni031B" format="2">
  <unicode hex="031B"/>
  <anchor x="59" y="1024" name="_horn"/>
  <outline>
    <contour>
      <point x="53" y="994" type="line"/>
      <point x="240" y="994"/>
      <point x="480" y="1029"/>
      <point x="622" y="1096"/>
      <point x="687" y="1194"/>
      <point x="698" y="1258" type="qcurve" smooth="yes"/>
      <point x="703" y="1290"/>
      <point x="700" y="1360"/>
      <point x="691" y="1393" type="qcurve"/>
      <point x="320" y="1328" type="line"/>
      <point x="328" y="1284"/>
      <point x="328" y="1209"/>
      <point x="323" y="1178" type="qcurve" smooth="yes"/>
      <point x="316" y="1140"/>
      <point x="280" y="1082"/>
      <point x="217" y="1043"/>
      <point x="124" y="1024"/>
      <point x="59" y="1024" type="qcurve"/>
    </contour>
  </outline>
</glyph>
<glyph name="uni0327" format="2">
  <unicode hex="0327"/>
  <anchor x="-146" y="-150" name="_bottom"/>
  <outline>
    <contour>
      <point x="-198" y="0" type="line"/>
      <point x="-269" y="-113" type="line"/>
      <point x="-250" y="-107"/>
      <point x="-218" y="-102"/>
      <point x="-204" y="-102" type="qcurve" smooth="yes"/>
      <point x="-178" y="-102"/>
      <point x="-136" y="-117"/>
      <point x="-109" y="-152"/>
      <point x="-101" y="-210"/>
      <point x="-108" y="-253" type="qcurve" smooth="yes"/>
      <point x="-116" y="-295"/>
      <point x="-144" y="-353"/>
      <point x="-184" y="-389"/>
      <point x="-232" y="-405"/>
      <point x="-259" y="-405" type="qcurve" smooth="yes"/>
      <point x="-294" y="-405"/>
      <point x="-351" y="-380"/>
      <point x="-367" y="-360" type="qcurve"/>
      <point x="-396" y="-385" type="line"/>
      <point x="-381" y="-397"/>
      <point x="-350" y="-417"/>
      <point x="-309" y="-430"/>
      <point x="-257" y="-438"/>
      <point x="-221" y="-438" type="qcurve" smooth="yes"/>
      <point x="-184" y="-438"/>
      <point x="-75" y="-426"/>
      <point x="28" y="-386"/>
      <point x="110" y="-312"/>
      <point x="120" y="-250" type="qcurve" smooth="yes"/>
      <point x="129" y="-197"/>
      <point x="89" y="-131"/>
      <point x="16" y="-94"/>
      <point x="-79" y="-80"/>
      <point x="-125" y="-78" type="qcurve"/>
      <point x="-76" y="0" type="line"/>
    </contour>
  </outline>
</glyph>
<glyph name="uni0328" format="2">
  <unicode hex="0328"/>
  <anchor x="-146" y="-150" name="_bottom"/>
  <anchor x="-201" y="0" name="_ogonek"/>
  <outline>
    <contour>
      <point x="-201" y="0" type="line"/>
      <point x="-212" y="-10"/>
      <point x="-228" y="-29"/>
      <point x="-239" y="-47"/>
      <point x="-247" y="-65"/>
      <point x="-248" y="-74" type="qcurve" smooth="yes"/>
      <point x="-253" y="-100"/>
      <point x="-229" y="-142"/>
      <point x="-179" y="-173"/>
      <point x="-105" y="-190"/>
      <point x="-59" y="-190" type="qcurve" smooth="yes"/>
      <point x="-36" y="-190"/>
      <point x="12" y="-186"/>
      <point x="62" y="-177"/>
      <point x="115" y="-163"/>
      <point x="143" y="-154" type="qcurve"/>
      <point x="-12" y="-400" type="line"/>
      <point x="-62" y="-415"/>
      <point x="-141" y="-428"/>
      <point x="-183" y="-428" type="qcurve" smooth="yes"/>
      <point x="-246" y="-428"/>
      <point x="-352" y="-401"/>
      <point x="-425" y="-351"/>
      <point x="-460" y="-280"/>
      <point x="-452" y="-235" type="qcurve"/>
      <point x="-428" y="-209"/>
      <point x="-373" y="-149"/>
      <point x="-318" y="-87"/>
      <point x="-263" y="-27"/>
      <point x="-239" y="0" type="qcurve"/>
    </contour>
  </outline>
</glyph>
<glyph name="uni0402" format="2">
  <advance width="4094"/>
  <unicode hex="0402"/>
  <outline>
    <contour>
      <point x="937" y="0" type="line"/>
      <point x="1509" y="0" type="line"/>
      <point x="1655" y="836" type="line"/>
      <point x="2997" y="836" type="line" smooth="yes"/>
      <point x="3054" y="836"/>
      <point x="3136" y="807"/>
      <point x="3185" y="755"/>
      <point x="3202" y="681"/>
      <point x="3194" y="636" type="qcurve" smooth="yes"/>
      <point x="3124" y="236" type="line" smooth="yes"/>
      <point x="3116" y="191"/>
      <point x="3073" y="117"/>
      <point x="3006" y="65"/>
      <point x="2914" y="36"/>
      <point x="2857" y="36" type="qcurve" smooth="yes"/>
      <point x="2378" y="36" type="line"/>
      <point x="2372" y="0" type="line"/>
      <point x="3241" y="0" type="line" smooth="yes"/>
      <point x="3335" y="0"/>
      <point x="3494" y="29"/>
      <point x="3615" y="104"/>
      <point x="3696" y="234"/>
      <point x="3713" y="334" type="qcurve" smooth="yes"/>
      <point x="3749" y="538" type="line" smooth="yes"/>
      <point x="3766" y="639"/>
      <point x="3731" y="768"/>
      <point x="3635" y="843"/>
      <point x="3487" y="872"/>
      <point x="3393" y="872" type="qcurve" smooth="yes"/>
      <point x="1661" y="872" type="line"/>
      <point x="1747" y="1364" type="line"/>
      <point x="2791" y="1364" type="line"/>
      <point x="2797" y="1400" type="line"/>
      <point x="137" y="1400" type="line"/>
      <point x="131" y="1364" type="line"/>
      <point x="1175" y="1364" type="line"/>
    </contour>
  </outline>
  <guideline angle="260.096" color="1,0,0,1" x="1175" y="1364"/>
</glyph>
<glyph name="uni0404" format="2">
  <advance width="3100"/>
  <unicode hex="0404"/>
  <anchor x="1721" y="1550" name="top"/>
  <outline>
    <contour>
      <point x="661.107" y="0" type="line"/>
      <point x="2237.11" y="0" type="line" smooth="yes"/>
      <point x="2336.11" y="0"/>
      <point x="2495.11" y="31"/>
      <point x="2615.11" y="109"/>
      <point x="2693.11" y="243"/>
      <point x="2711.11" y="346" type="qcurve" smooth="yes"/>
      <point x="2723.11" y="412" type="line"/>
      <point x="2167.11" y="504" type="line"/>
      <point x="2086.11" y="40" type="line"/>
      <point x="2086.11" y="40"/>
      <point x="2086.11" y="40"/>
      <point x="2086.11" y="40"/>
      <point x="2086.11" y="40"/>
      <point x="2086.11" y="40" type="qcurve"/>
      <point x="828.107" y="40" type="line"/>
      <point x="828.107" y="40"/>
      <point x="828.107" y="40"/>
      <point x="828.107" y="40"/>
      <point x="828.107" y="40"/>
      <point x="828.107" y="40" type="qcurve"/>
      <point x="942.107" y="696" type="line"/>
      <point x="2051.11" y="696" type="line"/>
      <point x="2058.11" y="736" type="line"/>
      <point x="949.107" y="736" type="line"/>
      <point x="1058.11" y="1360" type="line"/>
      <point x="1058.11" y="1360"/>
      <point x="1058.11" y="1360"/>
      <point x="1058.11" y="1360"/>
      <point x="1058.11" y="1360"/>
      <point x="1058.11" y="1360" type="qcurve"/>
      <point x="2310.11" y="1360" type="line"/>
      <point x="2310.11" y="1360"/>
      <point x="2310.11" y="1360"/>
      <point x="2310.11" y="1360"/>
      <point x="2310.11" y="1360"/>
      <point x="2310.11" y="1360" type="qcurve"/>
      <point x="2235.11" y="926" type="line"/>
      <point x="2822.11" y="1012" type="line"/>
      <point x="2831.11" y="1066" type="line" smooth="yes"/>
      <point x="2849.11" y="1167"/>
      <point x="2813.11" y="1296"/>
      <point x="2718.11" y="1371"/>
      <point x="2570.11" y="1400"/>
      <point x="2475.11" y="1400" type="qcurve" smooth="yes"/>
      <point x="905.107" y="1400" type="line" smooth="yes"/>
      <point x="811.107" y="1400"/>
      <point x="653.107" y="1371"/>
      <point x="533.107" y="1296"/>
      <point x="453.107" y="1167"/>
      <point x="435.107" y="1066" type="qcurve" smooth="yes"/>
      <point x="309.107" y="346" type="line" smooth="yes"/>
      <point x="291.107" y="243"/>
      <point x="323.107" y="109"/>
      <point x="414.107" y="31"/>
      <point x="562.107" y="0"/>
      <point x="661.107" y="0" type="qcurve"/>
    </contour>
  </outline>
  <guideline x="1811" y="-0" angle="260.108" color="1,0,0,1"/>
</glyph>
<glyph name="uni040A" format="2">
  <advance width="5043.11"/>
  <unicode hex="040A"/>
  <outline>
    <contour>
      <point x="280" y="0" type="line"/>
      <point x="852" y="0" type="line"/>
      <point x="982" y="742" type="line"/>
      <point x="2468" y="742" type="line"/>
      <point x="2338" y="0" type="line"/>
      <point x="4219" y="0" type="line" smooth="yes"/>
      <point x="4307" y="0"/>
      <point x="4455" y="29"/>
      <point x="4568" y="104"/>
      <point x="4645" y="234"/>
      <point x="4662" y="334" type="qcurve" smooth="yes"/>
      <point x="4681" y="444" type="line" smooth="yes"/>
      <point x="4699" y="545"/>
      <point x="4667" y="674"/>
      <point x="4580" y="749"/>
      <point x="4443" y="778"/>
      <point x="4355" y="778" type="qcurve" smooth="yes"/>
      <point x="3046" y="778" type="line"/>
      <point x="3154" y="1400" type="line"/>
      <point x="2582" y="1400" type="line"/>
      <point x="2474" y="778" type="line"/>
      <point x="988" y="778" type="line"/>
      <point x="1096" y="1400" type="line"/>
      <point x="524" y="1400" type="line"/>
    </contour>
    <contour>
      <point x="2916" y="36" type="line"/>
      <point x="3040" y="742" type="line"/>
      <point x="3953" y="742" type="line" smooth="yes"/>
      <point x="4004" y="742"/>
      <point x="4078" y="713"/>
      <point x="4121" y="661"/>
      <point x="4135" y="587"/>
      <point x="4127" y="542" type="qcurve" smooth="yes"/>
      <point x="4073" y="236" type="line" smooth="yes"/>
      <point x="4065" y="191"/>
      <point x="4025" y="117"/>
      <point x="3964" y="65"/>
      <point x="3880" y="36"/>
      <point x="3829" y="36" type="qcurve" smooth="yes"/>
    </contour>
  </outline>
</glyph>
<glyph name="uni040B" format="2">
  <advance width="4095"/>
  <unicode hex="040B"/>
  <outline>
    <contour>
      <point x="937" y="0" type="line"/>
      <point x="1509" y="0" type="line"/>
      <point x="1655" y="836" type="line"/>
      <point x="2997" y="836" type="line" smooth="yes"/>
      <point x="3054" y="836"/>
      <point x="3136" y="807"/>
      <point x="3185" y="755"/>
      <point x="3202" y="681"/>
      <point x="3194" y="636" type="qcurve" smooth="yes"/>
      <point x="3083" y="0" type="line"/>
      <point x="3655" y="0" type="line"/>
      <point x="3749" y="538" type="line" smooth="yes"/>
      <point x="3766" y="639"/>
      <point x="3731" y="768"/>
      <point x="3635" y="843"/>
      <point x="3487" y="872"/>
      <point x="3393" y="872" type="qcurve" smooth="yes"/>
      <point x="1661" y="872" type="line"/>
      <point x="1747" y="1364" type="line"/>
      <point x="2791" y="1364" type="line"/>
      <point x="2797" y="1400" type="line"/>
      <point x="137" y="1400" type="line"/>
      <point x="131" y="1364" type="line"/>
      <point x="1175" y="1364" type="line"/>
    </contour>
  </outline>
</glyph>
<glyph name="uni040F" format="2">
  <advance width="3245"/>
  <unicode hex="040F"/>
  <outline>
    <contour>
      <point x="280" y="0" type="line"/>
      <point x="1193" y="0" type="line"/>
      <point x="1394" y="-300" type="line"/>
      <point x="1760" y="-300" type="line"/>
      <point x="1812" y="0" type="line"/>
      <point x="2725" y="0" type="line"/>
      <point x="2969" y="1400" type="line"/>
      <point x="2397" y="1400" type="line"/>
      <point x="2159" y="36" type="line"/>
      <point x="858" y="36" type="line"/>
      <point x="1096" y="1400" type="line"/>
      <point x="524" y="1400" type="line"/>
    </contour>
  </outline>
  <guideline angle="260.109" color="1,0,0,1" x="1502.5" y="0"/>
</glyph>
<glyph name="uni0411" format="2">
  <advance width="3433"/>
  <unicode hex="0411"/>
  <outline>
    <contour>
      <point x="280" y="0" type="line"/>
      <point x="2580" y="0" type="line" smooth="yes"/>
      <point x="2673" y="0"/>
      <point x="2830" y="22"/>
      <point x="2948" y="78"/>
      <point x="3024" y="174"/>
      <point x="3037" y="248" type="qcurve" smooth="yes"/>
      <point x="3088" y="539" type="line" smooth="yes"/>
      <point x="3105" y="638"/>
      <point x="3068" y="768"/>
      <point x="2973" y="843"/>
      <point x="2825" y="873"/>
      <point x="2732" y="873" type="qcurve" smooth="yes"/>
      <point x="1004" y="873" type="line"/>
      <point x="1090" y="1364" type="line"/>
      <point x="3083" y="1364" type="line"/>
      <point x="3089" y="1400" type="line"/>
      <point x="524" y="1400" type="line"/>
    </contour>
    <contour>
      <point x="858" y="36" type="line"/>
      <point x="998" y="837" type="line"/>
      <point x="2336" y="837" type="line" smooth="yes"/>
      <point x="2449" y="837"/>
      <point x="2549" y="726"/>
      <point x="2533" y="637" type="qcurve" smooth="yes"/>
      <point x="2455" y="189" type="line" smooth="yes"/>
      <point x="2449" y="155"/>
      <point x="2409" y="99"/>
      <point x="2343" y="58"/>
      <point x="2252" y="36"/>
      <point x="2196" y="36" type="qcurve" smooth="yes"/>
    </contour>
  </outline>
</glyph>
<glyph name="uni0413" format="2">
  <advance width="2273"/>
  <unicode hex="0413"/>
  <anchor x="1484" y="1550" name="top"/>
  <outline>
    <contour>
      <point x="280" y="0" type="line"/>
      <point x="852" y="0" type="line"/>
      <point x="1090" y="1364" type="line"/>
      <point x="2384" y="1364" type="line"/>
      <point x="2390" y="1400" type="line"/>
      <point x="524" y="1400" type="line"/>
    </contour>
  </outline>
</glyph>
<glyph name="uni0414" format="2">
  <advance width="3554"/>
  <unicode hex="0414"/>
  <outline>
    <contour>
      <point x="515" y="0" type="line"/>
      <point x="2798" y="0" type="line"/>
      <point x="3014" y="-300" type="line"/>
      <point x="3365" y="-300" type="line"/>
      <point x="3423" y="36" type="line"/>
      <point x="3113" y="36" type="line"/>
      <point x="2098" y="1400" type="line"/>
      <point x="1812" y="1400" type="line"/>
      <point x="321" y="36" type="line"/>
      <point x="-98" y="36" type="line"/>
      <point x="-156" y="-300" type="line"/>
      <point x="195" y="-300" type="line"/>
    </contour>
    <contour>
      <point x="371" y="36" type="line"/>
      <point x="1549" y="1116" type="line"/>
      <point x="2326" y="36" type="line"/>
    </contour>
  </outline>
</glyph>
<glyph name="uni0416" format="2">
  <advance width="4460"/>
  <unicode hex="0416"/>
  <anchor x="2448" y="1550" name="top"/>
  <anchor x="2151" y="-150" name="bottom"/>
  <outline>
    <contour>
      <point x="-114" y="0" type="line"/>
      <point x="832" y="0" type="line"/>
      <point x="1935" y="609" type="line"/>
      <point x="1829" y="0" type="line"/>
      <point x="2401" y="0" type="line"/>
      <point x="2507" y="609" type="line"/>
      <point x="3428" y="0" type="line"/>
      <point x="4334" y="0" type="line"/>
      <point x="2945" y="893" type="line"/>
      <point x="4459" y="1400" type="line"/>
      <point x="4348" y="1400" type="line"/>
      <point x="2540" y="796" type="line"/>
      <point x="2645" y="1400" type="line"/>
      <point x="2073" y="1400" type="line"/>
      <point x="1968" y="796" type="line"/>
      <point x="366" y="1400" type="line"/>
      <point x="259" y="1400" type="line"/>
      <point x="1587" y="900" type="line"/>
    </contour>
  </outline>
</glyph>
<glyph name="uni0417" format="2">
  <advance width="3454"/>
  <unicode hex="0417"/>
  <anchor x="1770" y="1550" name="top"/>
  <anchor x="1557" y="0" name="ogonek"/>
  <outline>
    <contour>
      <point x="284.979" y="418" type="line"/>
      <point x="267.979" y="320" type="line" smooth="yes"/>
      <point x="253.979" y="239"/>
      <point x="280.979" y="119"/>
      <point x="363.979" y="40"/>
      <point x="501.979" y="0"/>
      <point x="599.979" y="0" type="qcurve" smooth="yes"/>
      <point x="2449.98" y="0" type="line" smooth="yes"/>
      <point x="2566.98" y="0"/>
      <point x="2730.98" y="34"/>
      <point x="2840.98" y="112"/>
      <point x="2905.98" y="240"/>
      <point x="2921.98" y="334" type="qcurve" smooth="yes"/>
      <point x="2933.98" y="402" type="line" smooth="yes"/>
      <point x="2945.98" y="472"/>
      <point x="2935.98" y="580"/>
      <point x="2888.98" y="659"/>
      <point x="2803.98" y="710"/>
      <point x="2741.98" y="722" type="qcurve"/>
      <point x="2799.98" y="737"/>
      <point x="2889.98" y="791"/>
      <point x="2956.98" y="868"/>
      <point x="3000.98" y="970"/>
      <point x="3011.98" y="1034" type="qcurve" smooth="yes"/>
      <point x="3018.98" y="1074" type="line" smooth="yes"/>
      <point x="3033.98" y="1157"/>
      <point x="3004.98" y="1279"/>
      <point x="2915.98" y="1360"/>
      <point x="2766.98" y="1400"/>
      <point x="2661.98" y="1400" type="qcurve" smooth="yes"/>
      <point x="843.979" y="1400" type="line" smooth="yes"/>
      <point x="734.979" y="1400"/>
      <point x="580.979" y="1369"/>
      <point x="477.979" y="1297"/>
      <point x="418.979" y="1179"/>
      <point x="402.979" y="1092" type="qcurve" smooth="yes"/>
      <point x="379.979" y="964" type="line"/>
      <point x="937.979" y="880" type="line"/>
      <point x="1021.98" y="1364" type="line"/>
      <point x="1021.98" y="1364"/>
      <point x="1021.98" y="1364"/>
      <point x="1021.98" y="1364"/>
      <point x="1021.98" y="1364"/>
      <point x="1021.98" y="1364" type="qcurve"/>
      <point x="2281.98" y="1364" type="line" smooth="yes"/>
      <point x="2339.98" y="1364"/>
      <point x="2422.98" y="1339"/>
      <point x="2471.98" y="1289"/>
      <point x="2487.98" y="1214"/>
      <point x="2478.98" y="1164" type="qcurve" smooth="yes"/>
      <point x="2438.98" y="936" type="line" smooth="yes"/>
      <point x="2430.98" y="889"/>
      <point x="2385.98" y="814"/>
      <point x="2317.98" y="763"/>
      <point x="2226.98" y="736"/>
      <point x="2171.98" y="736" type="qcurve" smooth="yes"/>
      <point x="1034.98" y="736" type="line"/>
      <point x="1028.98" y="700" type="line"/>
      <point x="2197.98" y="700" type="line" smooth="yes"/>
      <point x="2252.98" y="700"/>
      <point x="2333.98" y="673"/>
      <point x="2384.98" y="622"/>
      <point x="2402.98" y="547"/>
      <point x="2394.98" y="500" type="qcurve" smooth="yes"/>
      <point x="2348.98" y="236" type="line" smooth="yes"/>
      <point x="2338.98" y="180"/>
      <point x="2301.98" y="104"/>
      <point x="2238.98" y="57"/>
      <point x="2146.98" y="36"/>
      <point x="2081.98" y="36" type="qcurve" smooth="yes"/>
      <point x="789.979" y="36" type="line"/>
      <point x="789.979" y="36"/>
      <point x="789.979" y="36"/>
      <point x="789.979" y="36"/>
      <point x="789.979" y="36"/>
      <point x="789.979" y="36" type="qcurve"/>
      <point x="871.979" y="502" type="line"/>
    </contour>
  </outline>
</glyph>
<glyph name="uni0418" format="2">
  <advance width="3404"/>
  <unicode hex="0418"/>
  <anchor x="1501" y="-150" name="bottom"/>
  <anchor x="1798" y="1550" name="top"/>
  <outline>
    <contour>
      <point x="280" y="0" type="line"/>
      <point x="784" y="0" type="line"/>
      <point x="2538" y="1295" type="line"/>
      <point x="2312" y="0" type="line"/>
      <point x="2884" y="0" type="line"/>
      <point x="3128" y="1400" type="line"/>
      <point x="2626" y="1400" type="line"/>
      <point x="870" y="102" type="line"/>
      <point x="1096" y="1400" type="line"/>
      <point x="524" y="1400" type="line"/>
    </contour>
  </outline>
</glyph>
<glyph name="uni041F" format="2">
  <advance width="3374"/>
  <unicode hex="041F"/>
  <outline>
    <contour>
      <point x="280" y="0" type="line"/>
      <point x="852" y="0" type="line"/>
      <point x="1090" y="1364" type="line"/>
      <point x="2520" y="1364" type="line"/>
      <point x="2282" y="0" type="line"/>
      <point x="2854" y="0" type="line"/>
      <point x="3098" y="1400" type="line"/>
      <point x="524" y="1400" type="line"/>
    </contour>
  </outline>
</glyph>
